%TF.GenerationSoftware,KiCad,Pcbnew,9.0.7*%
%TF.CreationDate,2026-03-06T20:18:46-08:00*%
%TF.ProjectId,75keyboard,37356b65-7962-46f6-9172-642e6b696361,rev?*%
%TF.SameCoordinates,Original*%
%TF.FileFunction,Legend,Bot*%
%TF.FilePolarity,Positive*%
%FSLAX46Y46*%
G04 Gerber Fmt 4.6, Leading zero omitted, Abs format (unit mm)*
G04 Created by KiCad (PCBNEW 9.0.7) date 2026-03-06 20:18:46*
%MOMM*%
%LPD*%
G01*
G04 APERTURE LIST*
%ADD10C,0.200000*%
%ADD11C,0.150000*%
%ADD12C,0.120000*%
G04 APERTURE END LIST*
D10*
X338514919Y-58359719D02*
X339086347Y-58359719D01*
X338800633Y-58359719D02*
X338800633Y-57359719D01*
X338800633Y-57359719D02*
X338895871Y-57502576D01*
X338895871Y-57502576D02*
X338991109Y-57597814D01*
X338991109Y-57597814D02*
X339086347Y-57645433D01*
X337610157Y-57359719D02*
X338086347Y-57359719D01*
X338086347Y-57359719D02*
X338133966Y-57835909D01*
X338133966Y-57835909D02*
X338086347Y-57788290D01*
X338086347Y-57788290D02*
X337991109Y-57740671D01*
X337991109Y-57740671D02*
X337753014Y-57740671D01*
X337753014Y-57740671D02*
X337657776Y-57788290D01*
X337657776Y-57788290D02*
X337610157Y-57835909D01*
X337610157Y-57835909D02*
X337562538Y-57931147D01*
X337562538Y-57931147D02*
X337562538Y-58169242D01*
X337562538Y-58169242D02*
X337610157Y-58264480D01*
X337610157Y-58264480D02*
X337657776Y-58312100D01*
X337657776Y-58312100D02*
X337753014Y-58359719D01*
X337753014Y-58359719D02*
X337991109Y-58359719D01*
X337991109Y-58359719D02*
X338086347Y-58312100D01*
X338086347Y-58312100D02*
X338133966Y-58264480D01*
X339133966Y-44659719D02*
X338514919Y-44659719D01*
X338514919Y-44659719D02*
X338848252Y-45040671D01*
X338848252Y-45040671D02*
X338705395Y-45040671D01*
X338705395Y-45040671D02*
X338610157Y-45088290D01*
X338610157Y-45088290D02*
X338562538Y-45135909D01*
X338562538Y-45135909D02*
X338514919Y-45231147D01*
X338514919Y-45231147D02*
X338514919Y-45469242D01*
X338514919Y-45469242D02*
X338562538Y-45564480D01*
X338562538Y-45564480D02*
X338610157Y-45612100D01*
X338610157Y-45612100D02*
X338705395Y-45659719D01*
X338705395Y-45659719D02*
X338991109Y-45659719D01*
X338991109Y-45659719D02*
X339086347Y-45612100D01*
X339086347Y-45612100D02*
X339133966Y-45564480D01*
X338229204Y-44659719D02*
X337895871Y-45659719D01*
X337895871Y-45659719D02*
X337562538Y-44659719D01*
X337324442Y-44659719D02*
X336705395Y-44659719D01*
X336705395Y-44659719D02*
X337038728Y-45040671D01*
X337038728Y-45040671D02*
X336895871Y-45040671D01*
X336895871Y-45040671D02*
X336800633Y-45088290D01*
X336800633Y-45088290D02*
X336753014Y-45135909D01*
X336753014Y-45135909D02*
X336705395Y-45231147D01*
X336705395Y-45231147D02*
X336705395Y-45469242D01*
X336705395Y-45469242D02*
X336753014Y-45564480D01*
X336753014Y-45564480D02*
X336800633Y-45612100D01*
X336800633Y-45612100D02*
X336895871Y-45659719D01*
X336895871Y-45659719D02*
X337181585Y-45659719D01*
X337181585Y-45659719D02*
X337276823Y-45612100D01*
X337276823Y-45612100D02*
X337324442Y-45564480D01*
X359479554Y-43119719D02*
X360050982Y-43119719D01*
X359765268Y-43119719D02*
X359765268Y-42119719D01*
X359765268Y-42119719D02*
X359860506Y-42262576D01*
X359860506Y-42262576D02*
X359955744Y-42357814D01*
X359955744Y-42357814D02*
X360050982Y-42405433D01*
X339086347Y-52374957D02*
X339038728Y-52327338D01*
X339038728Y-52327338D02*
X338943490Y-52279719D01*
X338943490Y-52279719D02*
X338705395Y-52279719D01*
X338705395Y-52279719D02*
X338610157Y-52327338D01*
X338610157Y-52327338D02*
X338562538Y-52374957D01*
X338562538Y-52374957D02*
X338514919Y-52470195D01*
X338514919Y-52470195D02*
X338514919Y-52565433D01*
X338514919Y-52565433D02*
X338562538Y-52708290D01*
X338562538Y-52708290D02*
X339133966Y-53279719D01*
X339133966Y-53279719D02*
X338514919Y-53279719D01*
X338181585Y-52279719D02*
X337514919Y-52279719D01*
X337514919Y-52279719D02*
X337943490Y-53279719D01*
X346937976Y-63734719D02*
X347509404Y-63734719D01*
X347223690Y-63734719D02*
X347223690Y-62734719D01*
X347223690Y-62734719D02*
X347318928Y-62877576D01*
X347318928Y-62877576D02*
X347414166Y-62972814D01*
X347414166Y-62972814D02*
X347509404Y-63020433D01*
X346557023Y-62829957D02*
X346509404Y-62782338D01*
X346509404Y-62782338D02*
X346414166Y-62734719D01*
X346414166Y-62734719D02*
X346176071Y-62734719D01*
X346176071Y-62734719D02*
X346080833Y-62782338D01*
X346080833Y-62782338D02*
X346033214Y-62829957D01*
X346033214Y-62829957D02*
X345985595Y-62925195D01*
X345985595Y-62925195D02*
X345985595Y-63020433D01*
X345985595Y-63020433D02*
X346033214Y-63163290D01*
X346033214Y-63163290D02*
X346604642Y-63734719D01*
X346604642Y-63734719D02*
X345985595Y-63734719D01*
X338562538Y-39579719D02*
X339038728Y-39579719D01*
X339038728Y-39579719D02*
X339086347Y-40055909D01*
X339086347Y-40055909D02*
X339038728Y-40008290D01*
X339038728Y-40008290D02*
X338943490Y-39960671D01*
X338943490Y-39960671D02*
X338705395Y-39960671D01*
X338705395Y-39960671D02*
X338610157Y-40008290D01*
X338610157Y-40008290D02*
X338562538Y-40055909D01*
X338562538Y-40055909D02*
X338514919Y-40151147D01*
X338514919Y-40151147D02*
X338514919Y-40389242D01*
X338514919Y-40389242D02*
X338562538Y-40484480D01*
X338562538Y-40484480D02*
X338610157Y-40532100D01*
X338610157Y-40532100D02*
X338705395Y-40579719D01*
X338705395Y-40579719D02*
X338943490Y-40579719D01*
X338943490Y-40579719D02*
X339038728Y-40532100D01*
X339038728Y-40532100D02*
X339086347Y-40484480D01*
X338229204Y-39579719D02*
X337895871Y-40579719D01*
X337895871Y-40579719D02*
X337562538Y-39579719D01*
X344437976Y-63734719D02*
X345009404Y-63734719D01*
X344723690Y-63734719D02*
X344723690Y-62734719D01*
X344723690Y-62734719D02*
X344818928Y-62877576D01*
X344818928Y-62877576D02*
X344914166Y-62972814D01*
X344914166Y-62972814D02*
X345009404Y-63020433D01*
X344104642Y-62734719D02*
X343485595Y-62734719D01*
X343485595Y-62734719D02*
X343818928Y-63115671D01*
X343818928Y-63115671D02*
X343676071Y-63115671D01*
X343676071Y-63115671D02*
X343580833Y-63163290D01*
X343580833Y-63163290D02*
X343533214Y-63210909D01*
X343533214Y-63210909D02*
X343485595Y-63306147D01*
X343485595Y-63306147D02*
X343485595Y-63544242D01*
X343485595Y-63544242D02*
X343533214Y-63639480D01*
X343533214Y-63639480D02*
X343580833Y-63687100D01*
X343580833Y-63687100D02*
X343676071Y-63734719D01*
X343676071Y-63734719D02*
X343961785Y-63734719D01*
X343961785Y-63734719D02*
X344057023Y-63687100D01*
X344057023Y-63687100D02*
X344104642Y-63639480D01*
X339086347Y-47294957D02*
X339038728Y-47247338D01*
X339038728Y-47247338D02*
X338943490Y-47199719D01*
X338943490Y-47199719D02*
X338705395Y-47199719D01*
X338705395Y-47199719D02*
X338610157Y-47247338D01*
X338610157Y-47247338D02*
X338562538Y-47294957D01*
X338562538Y-47294957D02*
X338514919Y-47390195D01*
X338514919Y-47390195D02*
X338514919Y-47485433D01*
X338514919Y-47485433D02*
X338562538Y-47628290D01*
X338562538Y-47628290D02*
X339133966Y-48199719D01*
X339133966Y-48199719D02*
X338514919Y-48199719D01*
X338038728Y-48199719D02*
X337848252Y-48199719D01*
X337848252Y-48199719D02*
X337753014Y-48152100D01*
X337753014Y-48152100D02*
X337705395Y-48104480D01*
X337705395Y-48104480D02*
X337610157Y-47961623D01*
X337610157Y-47961623D02*
X337562538Y-47771147D01*
X337562538Y-47771147D02*
X337562538Y-47390195D01*
X337562538Y-47390195D02*
X337610157Y-47294957D01*
X337610157Y-47294957D02*
X337657776Y-47247338D01*
X337657776Y-47247338D02*
X337753014Y-47199719D01*
X337753014Y-47199719D02*
X337943490Y-47199719D01*
X337943490Y-47199719D02*
X338038728Y-47247338D01*
X338038728Y-47247338D02*
X338086347Y-47294957D01*
X338086347Y-47294957D02*
X338133966Y-47390195D01*
X338133966Y-47390195D02*
X338133966Y-47628290D01*
X338133966Y-47628290D02*
X338086347Y-47723528D01*
X338086347Y-47723528D02*
X338038728Y-47771147D01*
X338038728Y-47771147D02*
X337943490Y-47818766D01*
X337943490Y-47818766D02*
X337753014Y-47818766D01*
X337753014Y-47818766D02*
X337657776Y-47771147D01*
X337657776Y-47771147D02*
X337610157Y-47723528D01*
X337610157Y-47723528D02*
X337562538Y-47628290D01*
X360098601Y-47199719D02*
X359479554Y-47199719D01*
X359479554Y-47199719D02*
X359812887Y-47580671D01*
X359812887Y-47580671D02*
X359670030Y-47580671D01*
X359670030Y-47580671D02*
X359574792Y-47628290D01*
X359574792Y-47628290D02*
X359527173Y-47675909D01*
X359527173Y-47675909D02*
X359479554Y-47771147D01*
X359479554Y-47771147D02*
X359479554Y-48009242D01*
X359479554Y-48009242D02*
X359527173Y-48104480D01*
X359527173Y-48104480D02*
X359574792Y-48152100D01*
X359574792Y-48152100D02*
X359670030Y-48199719D01*
X359670030Y-48199719D02*
X359955744Y-48199719D01*
X359955744Y-48199719D02*
X360050982Y-48152100D01*
X360050982Y-48152100D02*
X360098601Y-48104480D01*
X359574792Y-50073052D02*
X359574792Y-50739719D01*
X359812887Y-49692100D02*
X360050982Y-50406385D01*
X360050982Y-50406385D02*
X359431935Y-50406385D01*
X359812887Y-39579719D02*
X359717649Y-39579719D01*
X359717649Y-39579719D02*
X359622411Y-39627338D01*
X359622411Y-39627338D02*
X359574792Y-39674957D01*
X359574792Y-39674957D02*
X359527173Y-39770195D01*
X359527173Y-39770195D02*
X359479554Y-39960671D01*
X359479554Y-39960671D02*
X359479554Y-40198766D01*
X359479554Y-40198766D02*
X359527173Y-40389242D01*
X359527173Y-40389242D02*
X359574792Y-40484480D01*
X359574792Y-40484480D02*
X359622411Y-40532100D01*
X359622411Y-40532100D02*
X359717649Y-40579719D01*
X359717649Y-40579719D02*
X359812887Y-40579719D01*
X359812887Y-40579719D02*
X359908125Y-40532100D01*
X359908125Y-40532100D02*
X359955744Y-40484480D01*
X359955744Y-40484480D02*
X360003363Y-40389242D01*
X360003363Y-40389242D02*
X360050982Y-40198766D01*
X360050982Y-40198766D02*
X360050982Y-39960671D01*
X360050982Y-39960671D02*
X360003363Y-39770195D01*
X360003363Y-39770195D02*
X359955744Y-39674957D01*
X359955744Y-39674957D02*
X359908125Y-39627338D01*
X359908125Y-39627338D02*
X359812887Y-39579719D01*
X360098601Y-57359719D02*
X359431935Y-57359719D01*
X359431935Y-57359719D02*
X359860506Y-58359719D01*
X339086347Y-49834957D02*
X339038728Y-49787338D01*
X339038728Y-49787338D02*
X338943490Y-49739719D01*
X338943490Y-49739719D02*
X338705395Y-49739719D01*
X338705395Y-49739719D02*
X338610157Y-49787338D01*
X338610157Y-49787338D02*
X338562538Y-49834957D01*
X338562538Y-49834957D02*
X338514919Y-49930195D01*
X338514919Y-49930195D02*
X338514919Y-50025433D01*
X338514919Y-50025433D02*
X338562538Y-50168290D01*
X338562538Y-50168290D02*
X339133966Y-50739719D01*
X339133966Y-50739719D02*
X338514919Y-50739719D01*
X337943490Y-50168290D02*
X338038728Y-50120671D01*
X338038728Y-50120671D02*
X338086347Y-50073052D01*
X338086347Y-50073052D02*
X338133966Y-49977814D01*
X338133966Y-49977814D02*
X338133966Y-49930195D01*
X338133966Y-49930195D02*
X338086347Y-49834957D01*
X338086347Y-49834957D02*
X338038728Y-49787338D01*
X338038728Y-49787338D02*
X337943490Y-49739719D01*
X337943490Y-49739719D02*
X337753014Y-49739719D01*
X337753014Y-49739719D02*
X337657776Y-49787338D01*
X337657776Y-49787338D02*
X337610157Y-49834957D01*
X337610157Y-49834957D02*
X337562538Y-49930195D01*
X337562538Y-49930195D02*
X337562538Y-49977814D01*
X337562538Y-49977814D02*
X337610157Y-50073052D01*
X337610157Y-50073052D02*
X337657776Y-50120671D01*
X337657776Y-50120671D02*
X337753014Y-50168290D01*
X337753014Y-50168290D02*
X337943490Y-50168290D01*
X337943490Y-50168290D02*
X338038728Y-50215909D01*
X338038728Y-50215909D02*
X338086347Y-50263528D01*
X338086347Y-50263528D02*
X338133966Y-50358766D01*
X338133966Y-50358766D02*
X338133966Y-50549242D01*
X338133966Y-50549242D02*
X338086347Y-50644480D01*
X338086347Y-50644480D02*
X338038728Y-50692100D01*
X338038728Y-50692100D02*
X337943490Y-50739719D01*
X337943490Y-50739719D02*
X337753014Y-50739719D01*
X337753014Y-50739719D02*
X337657776Y-50692100D01*
X337657776Y-50692100D02*
X337610157Y-50644480D01*
X337610157Y-50644480D02*
X337562538Y-50549242D01*
X337562538Y-50549242D02*
X337562538Y-50358766D01*
X337562538Y-50358766D02*
X337610157Y-50263528D01*
X337610157Y-50263528D02*
X337657776Y-50215909D01*
X337657776Y-50215909D02*
X337753014Y-50168290D01*
X339095445Y-54915949D02*
X339047826Y-54868330D01*
X339047826Y-54868330D02*
X338952588Y-54820711D01*
X338952588Y-54820711D02*
X338714493Y-54820711D01*
X338714493Y-54820711D02*
X338619255Y-54868330D01*
X338619255Y-54868330D02*
X338571636Y-54915949D01*
X338571636Y-54915949D02*
X338524017Y-55011187D01*
X338524017Y-55011187D02*
X338524017Y-55106425D01*
X338524017Y-55106425D02*
X338571636Y-55249282D01*
X338571636Y-55249282D02*
X339143064Y-55820711D01*
X339143064Y-55820711D02*
X338524017Y-55820711D01*
X337666874Y-54820711D02*
X337857350Y-54820711D01*
X337857350Y-54820711D02*
X337952588Y-54868330D01*
X337952588Y-54868330D02*
X338000207Y-54915949D01*
X338000207Y-54915949D02*
X338095445Y-55058806D01*
X338095445Y-55058806D02*
X338143064Y-55249282D01*
X338143064Y-55249282D02*
X338143064Y-55630234D01*
X338143064Y-55630234D02*
X338095445Y-55725472D01*
X338095445Y-55725472D02*
X338047826Y-55773092D01*
X338047826Y-55773092D02*
X337952588Y-55820711D01*
X337952588Y-55820711D02*
X337762112Y-55820711D01*
X337762112Y-55820711D02*
X337666874Y-55773092D01*
X337666874Y-55773092D02*
X337619255Y-55725472D01*
X337619255Y-55725472D02*
X337571636Y-55630234D01*
X337571636Y-55630234D02*
X337571636Y-55392139D01*
X337571636Y-55392139D02*
X337619255Y-55296901D01*
X337619255Y-55296901D02*
X337666874Y-55249282D01*
X337666874Y-55249282D02*
X337762112Y-55201663D01*
X337762112Y-55201663D02*
X337952588Y-55201663D01*
X337952588Y-55201663D02*
X338047826Y-55249282D01*
X338047826Y-55249282D02*
X338095445Y-55296901D01*
X338095445Y-55296901D02*
X338143064Y-55392139D01*
X354557975Y-63734719D02*
X354367499Y-63734719D01*
X354367499Y-63734719D02*
X354272261Y-63687100D01*
X354272261Y-63687100D02*
X354224642Y-63639480D01*
X354224642Y-63639480D02*
X354129404Y-63496623D01*
X354129404Y-63496623D02*
X354081785Y-63306147D01*
X354081785Y-63306147D02*
X354081785Y-62925195D01*
X354081785Y-62925195D02*
X354129404Y-62829957D01*
X354129404Y-62829957D02*
X354177023Y-62782338D01*
X354177023Y-62782338D02*
X354272261Y-62734719D01*
X354272261Y-62734719D02*
X354462737Y-62734719D01*
X354462737Y-62734719D02*
X354557975Y-62782338D01*
X354557975Y-62782338D02*
X354605594Y-62829957D01*
X354605594Y-62829957D02*
X354653213Y-62925195D01*
X354653213Y-62925195D02*
X354653213Y-63163290D01*
X354653213Y-63163290D02*
X354605594Y-63258528D01*
X354605594Y-63258528D02*
X354557975Y-63306147D01*
X354557975Y-63306147D02*
X354462737Y-63353766D01*
X354462737Y-63353766D02*
X354272261Y-63353766D01*
X354272261Y-63353766D02*
X354177023Y-63306147D01*
X354177023Y-63306147D02*
X354129404Y-63258528D01*
X354129404Y-63258528D02*
X354081785Y-63163290D01*
X359527173Y-52279719D02*
X360003363Y-52279719D01*
X360003363Y-52279719D02*
X360050982Y-52755909D01*
X360050982Y-52755909D02*
X360003363Y-52708290D01*
X360003363Y-52708290D02*
X359908125Y-52660671D01*
X359908125Y-52660671D02*
X359670030Y-52660671D01*
X359670030Y-52660671D02*
X359574792Y-52708290D01*
X359574792Y-52708290D02*
X359527173Y-52755909D01*
X359527173Y-52755909D02*
X359479554Y-52851147D01*
X359479554Y-52851147D02*
X359479554Y-53089242D01*
X359479554Y-53089242D02*
X359527173Y-53184480D01*
X359527173Y-53184480D02*
X359574792Y-53232100D01*
X359574792Y-53232100D02*
X359670030Y-53279719D01*
X359670030Y-53279719D02*
X359908125Y-53279719D01*
X359908125Y-53279719D02*
X360003363Y-53232100D01*
X360003363Y-53232100D02*
X360050982Y-53184480D01*
X352017976Y-63734719D02*
X352589404Y-63734719D01*
X352303690Y-63734719D02*
X352303690Y-62734719D01*
X352303690Y-62734719D02*
X352398928Y-62877576D01*
X352398928Y-62877576D02*
X352494166Y-62972814D01*
X352494166Y-62972814D02*
X352589404Y-63020433D01*
X351398928Y-62734719D02*
X351303690Y-62734719D01*
X351303690Y-62734719D02*
X351208452Y-62782338D01*
X351208452Y-62782338D02*
X351160833Y-62829957D01*
X351160833Y-62829957D02*
X351113214Y-62925195D01*
X351113214Y-62925195D02*
X351065595Y-63115671D01*
X351065595Y-63115671D02*
X351065595Y-63353766D01*
X351065595Y-63353766D02*
X351113214Y-63544242D01*
X351113214Y-63544242D02*
X351160833Y-63639480D01*
X351160833Y-63639480D02*
X351208452Y-63687100D01*
X351208452Y-63687100D02*
X351303690Y-63734719D01*
X351303690Y-63734719D02*
X351398928Y-63734719D01*
X351398928Y-63734719D02*
X351494166Y-63687100D01*
X351494166Y-63687100D02*
X351541785Y-63639480D01*
X351541785Y-63639480D02*
X351589404Y-63544242D01*
X351589404Y-63544242D02*
X351637023Y-63353766D01*
X351637023Y-63353766D02*
X351637023Y-63115671D01*
X351637023Y-63115671D02*
X351589404Y-62925195D01*
X351589404Y-62925195D02*
X351541785Y-62829957D01*
X351541785Y-62829957D02*
X351494166Y-62782338D01*
X351494166Y-62782338D02*
X351398928Y-62734719D01*
X338514919Y-60899719D02*
X339086347Y-60899719D01*
X338800633Y-60899719D02*
X338800633Y-59899719D01*
X338800633Y-59899719D02*
X338895871Y-60042576D01*
X338895871Y-60042576D02*
X338991109Y-60137814D01*
X338991109Y-60137814D02*
X339086347Y-60185433D01*
X337657776Y-60233052D02*
X337657776Y-60899719D01*
X337895871Y-59852100D02*
X338133966Y-60566385D01*
X338133966Y-60566385D02*
X337514919Y-60566385D01*
X359860506Y-60328290D02*
X359955744Y-60280671D01*
X359955744Y-60280671D02*
X360003363Y-60233052D01*
X360003363Y-60233052D02*
X360050982Y-60137814D01*
X360050982Y-60137814D02*
X360050982Y-60090195D01*
X360050982Y-60090195D02*
X360003363Y-59994957D01*
X360003363Y-59994957D02*
X359955744Y-59947338D01*
X359955744Y-59947338D02*
X359860506Y-59899719D01*
X359860506Y-59899719D02*
X359670030Y-59899719D01*
X359670030Y-59899719D02*
X359574792Y-59947338D01*
X359574792Y-59947338D02*
X359527173Y-59994957D01*
X359527173Y-59994957D02*
X359479554Y-60090195D01*
X359479554Y-60090195D02*
X359479554Y-60137814D01*
X359479554Y-60137814D02*
X359527173Y-60233052D01*
X359527173Y-60233052D02*
X359574792Y-60280671D01*
X359574792Y-60280671D02*
X359670030Y-60328290D01*
X359670030Y-60328290D02*
X359860506Y-60328290D01*
X359860506Y-60328290D02*
X359955744Y-60375909D01*
X359955744Y-60375909D02*
X360003363Y-60423528D01*
X360003363Y-60423528D02*
X360050982Y-60518766D01*
X360050982Y-60518766D02*
X360050982Y-60709242D01*
X360050982Y-60709242D02*
X360003363Y-60804480D01*
X360003363Y-60804480D02*
X359955744Y-60852100D01*
X359955744Y-60852100D02*
X359860506Y-60899719D01*
X359860506Y-60899719D02*
X359670030Y-60899719D01*
X359670030Y-60899719D02*
X359574792Y-60852100D01*
X359574792Y-60852100D02*
X359527173Y-60804480D01*
X359527173Y-60804480D02*
X359479554Y-60709242D01*
X359479554Y-60709242D02*
X359479554Y-60518766D01*
X359479554Y-60518766D02*
X359527173Y-60423528D01*
X359527173Y-60423528D02*
X359574792Y-60375909D01*
X359574792Y-60375909D02*
X359670030Y-60328290D01*
X338514919Y-42167338D02*
X338610157Y-42119719D01*
X338610157Y-42119719D02*
X338753014Y-42119719D01*
X338753014Y-42119719D02*
X338895871Y-42167338D01*
X338895871Y-42167338D02*
X338991109Y-42262576D01*
X338991109Y-42262576D02*
X339038728Y-42357814D01*
X339038728Y-42357814D02*
X339086347Y-42548290D01*
X339086347Y-42548290D02*
X339086347Y-42691147D01*
X339086347Y-42691147D02*
X339038728Y-42881623D01*
X339038728Y-42881623D02*
X338991109Y-42976861D01*
X338991109Y-42976861D02*
X338895871Y-43072100D01*
X338895871Y-43072100D02*
X338753014Y-43119719D01*
X338753014Y-43119719D02*
X338657776Y-43119719D01*
X338657776Y-43119719D02*
X338514919Y-43072100D01*
X338514919Y-43072100D02*
X338467300Y-43024480D01*
X338467300Y-43024480D02*
X338467300Y-42691147D01*
X338467300Y-42691147D02*
X338657776Y-42691147D01*
X338038728Y-43119719D02*
X338038728Y-42119719D01*
X338038728Y-42119719D02*
X337467300Y-43119719D01*
X337467300Y-43119719D02*
X337467300Y-42119719D01*
X336991109Y-43119719D02*
X336991109Y-42119719D01*
X336991109Y-42119719D02*
X336753014Y-42119719D01*
X336753014Y-42119719D02*
X336610157Y-42167338D01*
X336610157Y-42167338D02*
X336514919Y-42262576D01*
X336514919Y-42262576D02*
X336467300Y-42357814D01*
X336467300Y-42357814D02*
X336419681Y-42548290D01*
X336419681Y-42548290D02*
X336419681Y-42691147D01*
X336419681Y-42691147D02*
X336467300Y-42881623D01*
X336467300Y-42881623D02*
X336514919Y-42976861D01*
X336514919Y-42976861D02*
X336610157Y-43072100D01*
X336610157Y-43072100D02*
X336753014Y-43119719D01*
X336753014Y-43119719D02*
X336991109Y-43119719D01*
X359574792Y-54819719D02*
X359765268Y-54819719D01*
X359765268Y-54819719D02*
X359860506Y-54867338D01*
X359860506Y-54867338D02*
X359908125Y-54914957D01*
X359908125Y-54914957D02*
X360003363Y-55057814D01*
X360003363Y-55057814D02*
X360050982Y-55248290D01*
X360050982Y-55248290D02*
X360050982Y-55629242D01*
X360050982Y-55629242D02*
X360003363Y-55724480D01*
X360003363Y-55724480D02*
X359955744Y-55772100D01*
X359955744Y-55772100D02*
X359860506Y-55819719D01*
X359860506Y-55819719D02*
X359670030Y-55819719D01*
X359670030Y-55819719D02*
X359574792Y-55772100D01*
X359574792Y-55772100D02*
X359527173Y-55724480D01*
X359527173Y-55724480D02*
X359479554Y-55629242D01*
X359479554Y-55629242D02*
X359479554Y-55391147D01*
X359479554Y-55391147D02*
X359527173Y-55295909D01*
X359527173Y-55295909D02*
X359574792Y-55248290D01*
X359574792Y-55248290D02*
X359670030Y-55200671D01*
X359670030Y-55200671D02*
X359860506Y-55200671D01*
X359860506Y-55200671D02*
X359955744Y-55248290D01*
X359955744Y-55248290D02*
X360003363Y-55295909D01*
X360003363Y-55295909D02*
X360050982Y-55391147D01*
X360050982Y-44754957D02*
X360003363Y-44707338D01*
X360003363Y-44707338D02*
X359908125Y-44659719D01*
X359908125Y-44659719D02*
X359670030Y-44659719D01*
X359670030Y-44659719D02*
X359574792Y-44707338D01*
X359574792Y-44707338D02*
X359527173Y-44754957D01*
X359527173Y-44754957D02*
X359479554Y-44850195D01*
X359479554Y-44850195D02*
X359479554Y-44945433D01*
X359479554Y-44945433D02*
X359527173Y-45088290D01*
X359527173Y-45088290D02*
X360098601Y-45659719D01*
X360098601Y-45659719D02*
X359479554Y-45659719D01*
X349477976Y-63734719D02*
X350049404Y-63734719D01*
X349763690Y-63734719D02*
X349763690Y-62734719D01*
X349763690Y-62734719D02*
X349858928Y-62877576D01*
X349858928Y-62877576D02*
X349954166Y-62972814D01*
X349954166Y-62972814D02*
X350049404Y-63020433D01*
X348525595Y-63734719D02*
X349097023Y-63734719D01*
X348811309Y-63734719D02*
X348811309Y-62734719D01*
X348811309Y-62734719D02*
X348906547Y-62877576D01*
X348906547Y-62877576D02*
X349001785Y-62972814D01*
X349001785Y-62972814D02*
X349097023Y-63020433D01*
D11*
X192742319Y-39549405D02*
X191742319Y-39549405D01*
X191742319Y-39549405D02*
X191742319Y-39787500D01*
X191742319Y-39787500D02*
X191789938Y-39930357D01*
X191789938Y-39930357D02*
X191885176Y-40025595D01*
X191885176Y-40025595D02*
X191980414Y-40073214D01*
X191980414Y-40073214D02*
X192170890Y-40120833D01*
X192170890Y-40120833D02*
X192313747Y-40120833D01*
X192313747Y-40120833D02*
X192504223Y-40073214D01*
X192504223Y-40073214D02*
X192599461Y-40025595D01*
X192599461Y-40025595D02*
X192694700Y-39930357D01*
X192694700Y-39930357D02*
X192742319Y-39787500D01*
X192742319Y-39787500D02*
X192742319Y-39549405D01*
X192742319Y-40597024D02*
X192742319Y-40787500D01*
X192742319Y-40787500D02*
X192694700Y-40882738D01*
X192694700Y-40882738D02*
X192647080Y-40930357D01*
X192647080Y-40930357D02*
X192504223Y-41025595D01*
X192504223Y-41025595D02*
X192313747Y-41073214D01*
X192313747Y-41073214D02*
X191932795Y-41073214D01*
X191932795Y-41073214D02*
X191837557Y-41025595D01*
X191837557Y-41025595D02*
X191789938Y-40977976D01*
X191789938Y-40977976D02*
X191742319Y-40882738D01*
X191742319Y-40882738D02*
X191742319Y-40692262D01*
X191742319Y-40692262D02*
X191789938Y-40597024D01*
X191789938Y-40597024D02*
X191837557Y-40549405D01*
X191837557Y-40549405D02*
X191932795Y-40501786D01*
X191932795Y-40501786D02*
X192170890Y-40501786D01*
X192170890Y-40501786D02*
X192266128Y-40549405D01*
X192266128Y-40549405D02*
X192313747Y-40597024D01*
X192313747Y-40597024D02*
X192361366Y-40692262D01*
X192361366Y-40692262D02*
X192361366Y-40882738D01*
X192361366Y-40882738D02*
X192313747Y-40977976D01*
X192313747Y-40977976D02*
X192266128Y-41025595D01*
X192266128Y-41025595D02*
X192170890Y-41073214D01*
X40742319Y-39549405D02*
X39742319Y-39549405D01*
X39742319Y-39549405D02*
X39742319Y-39787500D01*
X39742319Y-39787500D02*
X39789938Y-39930357D01*
X39789938Y-39930357D02*
X39885176Y-40025595D01*
X39885176Y-40025595D02*
X39980414Y-40073214D01*
X39980414Y-40073214D02*
X40170890Y-40120833D01*
X40170890Y-40120833D02*
X40313747Y-40120833D01*
X40313747Y-40120833D02*
X40504223Y-40073214D01*
X40504223Y-40073214D02*
X40599461Y-40025595D01*
X40599461Y-40025595D02*
X40694700Y-39930357D01*
X40694700Y-39930357D02*
X40742319Y-39787500D01*
X40742319Y-39787500D02*
X40742319Y-39549405D01*
X40742319Y-41073214D02*
X40742319Y-40501786D01*
X40742319Y-40787500D02*
X39742319Y-40787500D01*
X39742319Y-40787500D02*
X39885176Y-40692262D01*
X39885176Y-40692262D02*
X39980414Y-40597024D01*
X39980414Y-40597024D02*
X40028033Y-40501786D01*
X306742319Y-134073214D02*
X305742319Y-134073214D01*
X305742319Y-134073214D02*
X305742319Y-134311309D01*
X305742319Y-134311309D02*
X305789938Y-134454166D01*
X305789938Y-134454166D02*
X305885176Y-134549404D01*
X305885176Y-134549404D02*
X305980414Y-134597023D01*
X305980414Y-134597023D02*
X306170890Y-134644642D01*
X306170890Y-134644642D02*
X306313747Y-134644642D01*
X306313747Y-134644642D02*
X306504223Y-134597023D01*
X306504223Y-134597023D02*
X306599461Y-134549404D01*
X306599461Y-134549404D02*
X306694700Y-134454166D01*
X306694700Y-134454166D02*
X306742319Y-134311309D01*
X306742319Y-134311309D02*
X306742319Y-134073214D01*
X306170890Y-135216071D02*
X306123271Y-135120833D01*
X306123271Y-135120833D02*
X306075652Y-135073214D01*
X306075652Y-135073214D02*
X305980414Y-135025595D01*
X305980414Y-135025595D02*
X305932795Y-135025595D01*
X305932795Y-135025595D02*
X305837557Y-135073214D01*
X305837557Y-135073214D02*
X305789938Y-135120833D01*
X305789938Y-135120833D02*
X305742319Y-135216071D01*
X305742319Y-135216071D02*
X305742319Y-135406547D01*
X305742319Y-135406547D02*
X305789938Y-135501785D01*
X305789938Y-135501785D02*
X305837557Y-135549404D01*
X305837557Y-135549404D02*
X305932795Y-135597023D01*
X305932795Y-135597023D02*
X305980414Y-135597023D01*
X305980414Y-135597023D02*
X306075652Y-135549404D01*
X306075652Y-135549404D02*
X306123271Y-135501785D01*
X306123271Y-135501785D02*
X306170890Y-135406547D01*
X306170890Y-135406547D02*
X306170890Y-135216071D01*
X306170890Y-135216071D02*
X306218509Y-135120833D01*
X306218509Y-135120833D02*
X306266128Y-135073214D01*
X306266128Y-135073214D02*
X306361366Y-135025595D01*
X306361366Y-135025595D02*
X306551842Y-135025595D01*
X306551842Y-135025595D02*
X306647080Y-135073214D01*
X306647080Y-135073214D02*
X306694700Y-135120833D01*
X306694700Y-135120833D02*
X306742319Y-135216071D01*
X306742319Y-135216071D02*
X306742319Y-135406547D01*
X306742319Y-135406547D02*
X306694700Y-135501785D01*
X306694700Y-135501785D02*
X306647080Y-135549404D01*
X306647080Y-135549404D02*
X306551842Y-135597023D01*
X306551842Y-135597023D02*
X306361366Y-135597023D01*
X306361366Y-135597023D02*
X306266128Y-135549404D01*
X306266128Y-135549404D02*
X306218509Y-135501785D01*
X306218509Y-135501785D02*
X306170890Y-135406547D01*
X305742319Y-135930357D02*
X305742319Y-136549404D01*
X305742319Y-136549404D02*
X306123271Y-136216071D01*
X306123271Y-136216071D02*
X306123271Y-136358928D01*
X306123271Y-136358928D02*
X306170890Y-136454166D01*
X306170890Y-136454166D02*
X306218509Y-136501785D01*
X306218509Y-136501785D02*
X306313747Y-136549404D01*
X306313747Y-136549404D02*
X306551842Y-136549404D01*
X306551842Y-136549404D02*
X306647080Y-136501785D01*
X306647080Y-136501785D02*
X306694700Y-136454166D01*
X306694700Y-136454166D02*
X306742319Y-136358928D01*
X306742319Y-136358928D02*
X306742319Y-136073214D01*
X306742319Y-136073214D02*
X306694700Y-135977976D01*
X306694700Y-135977976D02*
X306647080Y-135930357D01*
X45742319Y-135073214D02*
X44742319Y-135073214D01*
X44742319Y-135073214D02*
X44742319Y-135311309D01*
X44742319Y-135311309D02*
X44789938Y-135454166D01*
X44789938Y-135454166D02*
X44885176Y-135549404D01*
X44885176Y-135549404D02*
X44980414Y-135597023D01*
X44980414Y-135597023D02*
X45170890Y-135644642D01*
X45170890Y-135644642D02*
X45313747Y-135644642D01*
X45313747Y-135644642D02*
X45504223Y-135597023D01*
X45504223Y-135597023D02*
X45599461Y-135549404D01*
X45599461Y-135549404D02*
X45694700Y-135454166D01*
X45694700Y-135454166D02*
X45742319Y-135311309D01*
X45742319Y-135311309D02*
X45742319Y-135073214D01*
X44742319Y-135977976D02*
X44742319Y-136644642D01*
X44742319Y-136644642D02*
X45742319Y-136216071D01*
X44742319Y-137501785D02*
X44742319Y-137025595D01*
X44742319Y-137025595D02*
X45218509Y-136977976D01*
X45218509Y-136977976D02*
X45170890Y-137025595D01*
X45170890Y-137025595D02*
X45123271Y-137120833D01*
X45123271Y-137120833D02*
X45123271Y-137358928D01*
X45123271Y-137358928D02*
X45170890Y-137454166D01*
X45170890Y-137454166D02*
X45218509Y-137501785D01*
X45218509Y-137501785D02*
X45313747Y-137549404D01*
X45313747Y-137549404D02*
X45551842Y-137549404D01*
X45551842Y-137549404D02*
X45647080Y-137501785D01*
X45647080Y-137501785D02*
X45694700Y-137454166D01*
X45694700Y-137454166D02*
X45742319Y-137358928D01*
X45742319Y-137358928D02*
X45742319Y-137120833D01*
X45742319Y-137120833D02*
X45694700Y-137025595D01*
X45694700Y-137025595D02*
X45647080Y-136977976D01*
X244742319Y-96073214D02*
X243742319Y-96073214D01*
X243742319Y-96073214D02*
X243742319Y-96311309D01*
X243742319Y-96311309D02*
X243789938Y-96454166D01*
X243789938Y-96454166D02*
X243885176Y-96549404D01*
X243885176Y-96549404D02*
X243980414Y-96597023D01*
X243980414Y-96597023D02*
X244170890Y-96644642D01*
X244170890Y-96644642D02*
X244313747Y-96644642D01*
X244313747Y-96644642D02*
X244504223Y-96597023D01*
X244504223Y-96597023D02*
X244599461Y-96549404D01*
X244599461Y-96549404D02*
X244694700Y-96454166D01*
X244694700Y-96454166D02*
X244742319Y-96311309D01*
X244742319Y-96311309D02*
X244742319Y-96073214D01*
X243742319Y-97549404D02*
X243742319Y-97073214D01*
X243742319Y-97073214D02*
X244218509Y-97025595D01*
X244218509Y-97025595D02*
X244170890Y-97073214D01*
X244170890Y-97073214D02*
X244123271Y-97168452D01*
X244123271Y-97168452D02*
X244123271Y-97406547D01*
X244123271Y-97406547D02*
X244170890Y-97501785D01*
X244170890Y-97501785D02*
X244218509Y-97549404D01*
X244218509Y-97549404D02*
X244313747Y-97597023D01*
X244313747Y-97597023D02*
X244551842Y-97597023D01*
X244551842Y-97597023D02*
X244647080Y-97549404D01*
X244647080Y-97549404D02*
X244694700Y-97501785D01*
X244694700Y-97501785D02*
X244742319Y-97406547D01*
X244742319Y-97406547D02*
X244742319Y-97168452D01*
X244742319Y-97168452D02*
X244694700Y-97073214D01*
X244694700Y-97073214D02*
X244647080Y-97025595D01*
X243742319Y-97930357D02*
X243742319Y-98597023D01*
X243742319Y-98597023D02*
X244742319Y-98168452D01*
X78742319Y-58073214D02*
X77742319Y-58073214D01*
X77742319Y-58073214D02*
X77742319Y-58311309D01*
X77742319Y-58311309D02*
X77789938Y-58454166D01*
X77789938Y-58454166D02*
X77885176Y-58549404D01*
X77885176Y-58549404D02*
X77980414Y-58597023D01*
X77980414Y-58597023D02*
X78170890Y-58644642D01*
X78170890Y-58644642D02*
X78313747Y-58644642D01*
X78313747Y-58644642D02*
X78504223Y-58597023D01*
X78504223Y-58597023D02*
X78599461Y-58549404D01*
X78599461Y-58549404D02*
X78694700Y-58454166D01*
X78694700Y-58454166D02*
X78742319Y-58311309D01*
X78742319Y-58311309D02*
X78742319Y-58073214D01*
X78742319Y-59597023D02*
X78742319Y-59025595D01*
X78742319Y-59311309D02*
X77742319Y-59311309D01*
X77742319Y-59311309D02*
X77885176Y-59216071D01*
X77885176Y-59216071D02*
X77980414Y-59120833D01*
X77980414Y-59120833D02*
X78028033Y-59025595D01*
X78742319Y-60073214D02*
X78742319Y-60263690D01*
X78742319Y-60263690D02*
X78694700Y-60358928D01*
X78694700Y-60358928D02*
X78647080Y-60406547D01*
X78647080Y-60406547D02*
X78504223Y-60501785D01*
X78504223Y-60501785D02*
X78313747Y-60549404D01*
X78313747Y-60549404D02*
X77932795Y-60549404D01*
X77932795Y-60549404D02*
X77837557Y-60501785D01*
X77837557Y-60501785D02*
X77789938Y-60454166D01*
X77789938Y-60454166D02*
X77742319Y-60358928D01*
X77742319Y-60358928D02*
X77742319Y-60168452D01*
X77742319Y-60168452D02*
X77789938Y-60073214D01*
X77789938Y-60073214D02*
X77837557Y-60025595D01*
X77837557Y-60025595D02*
X77932795Y-59977976D01*
X77932795Y-59977976D02*
X78170890Y-59977976D01*
X78170890Y-59977976D02*
X78266128Y-60025595D01*
X78266128Y-60025595D02*
X78313747Y-60073214D01*
X78313747Y-60073214D02*
X78361366Y-60168452D01*
X78361366Y-60168452D02*
X78361366Y-60358928D01*
X78361366Y-60358928D02*
X78313747Y-60454166D01*
X78313747Y-60454166D02*
X78266128Y-60501785D01*
X78266128Y-60501785D02*
X78170890Y-60549404D01*
X178742319Y-115073214D02*
X177742319Y-115073214D01*
X177742319Y-115073214D02*
X177742319Y-115311309D01*
X177742319Y-115311309D02*
X177789938Y-115454166D01*
X177789938Y-115454166D02*
X177885176Y-115549404D01*
X177885176Y-115549404D02*
X177980414Y-115597023D01*
X177980414Y-115597023D02*
X178170890Y-115644642D01*
X178170890Y-115644642D02*
X178313747Y-115644642D01*
X178313747Y-115644642D02*
X178504223Y-115597023D01*
X178504223Y-115597023D02*
X178599461Y-115549404D01*
X178599461Y-115549404D02*
X178694700Y-115454166D01*
X178694700Y-115454166D02*
X178742319Y-115311309D01*
X178742319Y-115311309D02*
X178742319Y-115073214D01*
X177742319Y-116501785D02*
X177742319Y-116311309D01*
X177742319Y-116311309D02*
X177789938Y-116216071D01*
X177789938Y-116216071D02*
X177837557Y-116168452D01*
X177837557Y-116168452D02*
X177980414Y-116073214D01*
X177980414Y-116073214D02*
X178170890Y-116025595D01*
X178170890Y-116025595D02*
X178551842Y-116025595D01*
X178551842Y-116025595D02*
X178647080Y-116073214D01*
X178647080Y-116073214D02*
X178694700Y-116120833D01*
X178694700Y-116120833D02*
X178742319Y-116216071D01*
X178742319Y-116216071D02*
X178742319Y-116406547D01*
X178742319Y-116406547D02*
X178694700Y-116501785D01*
X178694700Y-116501785D02*
X178647080Y-116549404D01*
X178647080Y-116549404D02*
X178551842Y-116597023D01*
X178551842Y-116597023D02*
X178313747Y-116597023D01*
X178313747Y-116597023D02*
X178218509Y-116549404D01*
X178218509Y-116549404D02*
X178170890Y-116501785D01*
X178170890Y-116501785D02*
X178123271Y-116406547D01*
X178123271Y-116406547D02*
X178123271Y-116216071D01*
X178123271Y-116216071D02*
X178170890Y-116120833D01*
X178170890Y-116120833D02*
X178218509Y-116073214D01*
X178218509Y-116073214D02*
X178313747Y-116025595D01*
X177742319Y-116930357D02*
X177742319Y-117597023D01*
X177742319Y-117597023D02*
X178742319Y-117168452D01*
X201742319Y-77073214D02*
X200742319Y-77073214D01*
X200742319Y-77073214D02*
X200742319Y-77311309D01*
X200742319Y-77311309D02*
X200789938Y-77454166D01*
X200789938Y-77454166D02*
X200885176Y-77549404D01*
X200885176Y-77549404D02*
X200980414Y-77597023D01*
X200980414Y-77597023D02*
X201170890Y-77644642D01*
X201170890Y-77644642D02*
X201313747Y-77644642D01*
X201313747Y-77644642D02*
X201504223Y-77597023D01*
X201504223Y-77597023D02*
X201599461Y-77549404D01*
X201599461Y-77549404D02*
X201694700Y-77454166D01*
X201694700Y-77454166D02*
X201742319Y-77311309D01*
X201742319Y-77311309D02*
X201742319Y-77073214D01*
X201075652Y-78501785D02*
X201742319Y-78501785D01*
X200694700Y-78263690D02*
X201408985Y-78025595D01*
X201408985Y-78025595D02*
X201408985Y-78644642D01*
X200742319Y-79216071D02*
X200742319Y-79311309D01*
X200742319Y-79311309D02*
X200789938Y-79406547D01*
X200789938Y-79406547D02*
X200837557Y-79454166D01*
X200837557Y-79454166D02*
X200932795Y-79501785D01*
X200932795Y-79501785D02*
X201123271Y-79549404D01*
X201123271Y-79549404D02*
X201361366Y-79549404D01*
X201361366Y-79549404D02*
X201551842Y-79501785D01*
X201551842Y-79501785D02*
X201647080Y-79454166D01*
X201647080Y-79454166D02*
X201694700Y-79406547D01*
X201694700Y-79406547D02*
X201742319Y-79311309D01*
X201742319Y-79311309D02*
X201742319Y-79216071D01*
X201742319Y-79216071D02*
X201694700Y-79120833D01*
X201694700Y-79120833D02*
X201647080Y-79073214D01*
X201647080Y-79073214D02*
X201551842Y-79025595D01*
X201551842Y-79025595D02*
X201361366Y-78977976D01*
X201361366Y-78977976D02*
X201123271Y-78977976D01*
X201123271Y-78977976D02*
X200932795Y-79025595D01*
X200932795Y-79025595D02*
X200837557Y-79073214D01*
X200837557Y-79073214D02*
X200789938Y-79120833D01*
X200789938Y-79120833D02*
X200742319Y-79216071D01*
X63742319Y-115073214D02*
X62742319Y-115073214D01*
X62742319Y-115073214D02*
X62742319Y-115311309D01*
X62742319Y-115311309D02*
X62789938Y-115454166D01*
X62789938Y-115454166D02*
X62885176Y-115549404D01*
X62885176Y-115549404D02*
X62980414Y-115597023D01*
X62980414Y-115597023D02*
X63170890Y-115644642D01*
X63170890Y-115644642D02*
X63313747Y-115644642D01*
X63313747Y-115644642D02*
X63504223Y-115597023D01*
X63504223Y-115597023D02*
X63599461Y-115549404D01*
X63599461Y-115549404D02*
X63694700Y-115454166D01*
X63694700Y-115454166D02*
X63742319Y-115311309D01*
X63742319Y-115311309D02*
X63742319Y-115073214D01*
X62742319Y-116501785D02*
X62742319Y-116311309D01*
X62742319Y-116311309D02*
X62789938Y-116216071D01*
X62789938Y-116216071D02*
X62837557Y-116168452D01*
X62837557Y-116168452D02*
X62980414Y-116073214D01*
X62980414Y-116073214D02*
X63170890Y-116025595D01*
X63170890Y-116025595D02*
X63551842Y-116025595D01*
X63551842Y-116025595D02*
X63647080Y-116073214D01*
X63647080Y-116073214D02*
X63694700Y-116120833D01*
X63694700Y-116120833D02*
X63742319Y-116216071D01*
X63742319Y-116216071D02*
X63742319Y-116406547D01*
X63742319Y-116406547D02*
X63694700Y-116501785D01*
X63694700Y-116501785D02*
X63647080Y-116549404D01*
X63647080Y-116549404D02*
X63551842Y-116597023D01*
X63551842Y-116597023D02*
X63313747Y-116597023D01*
X63313747Y-116597023D02*
X63218509Y-116549404D01*
X63218509Y-116549404D02*
X63170890Y-116501785D01*
X63170890Y-116501785D02*
X63123271Y-116406547D01*
X63123271Y-116406547D02*
X63123271Y-116216071D01*
X63123271Y-116216071D02*
X63170890Y-116120833D01*
X63170890Y-116120833D02*
X63218509Y-116073214D01*
X63218509Y-116073214D02*
X63313747Y-116025595D01*
X63742319Y-117549404D02*
X63742319Y-116977976D01*
X63742319Y-117263690D02*
X62742319Y-117263690D01*
X62742319Y-117263690D02*
X62885176Y-117168452D01*
X62885176Y-117168452D02*
X62980414Y-117073214D01*
X62980414Y-117073214D02*
X63028033Y-116977976D01*
X325742319Y-96073214D02*
X324742319Y-96073214D01*
X324742319Y-96073214D02*
X324742319Y-96311309D01*
X324742319Y-96311309D02*
X324789938Y-96454166D01*
X324789938Y-96454166D02*
X324885176Y-96549404D01*
X324885176Y-96549404D02*
X324980414Y-96597023D01*
X324980414Y-96597023D02*
X325170890Y-96644642D01*
X325170890Y-96644642D02*
X325313747Y-96644642D01*
X325313747Y-96644642D02*
X325504223Y-96597023D01*
X325504223Y-96597023D02*
X325599461Y-96549404D01*
X325599461Y-96549404D02*
X325694700Y-96454166D01*
X325694700Y-96454166D02*
X325742319Y-96311309D01*
X325742319Y-96311309D02*
X325742319Y-96073214D01*
X324742319Y-97501785D02*
X324742319Y-97311309D01*
X324742319Y-97311309D02*
X324789938Y-97216071D01*
X324789938Y-97216071D02*
X324837557Y-97168452D01*
X324837557Y-97168452D02*
X324980414Y-97073214D01*
X324980414Y-97073214D02*
X325170890Y-97025595D01*
X325170890Y-97025595D02*
X325551842Y-97025595D01*
X325551842Y-97025595D02*
X325647080Y-97073214D01*
X325647080Y-97073214D02*
X325694700Y-97120833D01*
X325694700Y-97120833D02*
X325742319Y-97216071D01*
X325742319Y-97216071D02*
X325742319Y-97406547D01*
X325742319Y-97406547D02*
X325694700Y-97501785D01*
X325694700Y-97501785D02*
X325647080Y-97549404D01*
X325647080Y-97549404D02*
X325551842Y-97597023D01*
X325551842Y-97597023D02*
X325313747Y-97597023D01*
X325313747Y-97597023D02*
X325218509Y-97549404D01*
X325218509Y-97549404D02*
X325170890Y-97501785D01*
X325170890Y-97501785D02*
X325123271Y-97406547D01*
X325123271Y-97406547D02*
X325123271Y-97216071D01*
X325123271Y-97216071D02*
X325170890Y-97120833D01*
X325170890Y-97120833D02*
X325218509Y-97073214D01*
X325218509Y-97073214D02*
X325313747Y-97025595D01*
X324742319Y-98216071D02*
X324742319Y-98311309D01*
X324742319Y-98311309D02*
X324789938Y-98406547D01*
X324789938Y-98406547D02*
X324837557Y-98454166D01*
X324837557Y-98454166D02*
X324932795Y-98501785D01*
X324932795Y-98501785D02*
X325123271Y-98549404D01*
X325123271Y-98549404D02*
X325361366Y-98549404D01*
X325361366Y-98549404D02*
X325551842Y-98501785D01*
X325551842Y-98501785D02*
X325647080Y-98454166D01*
X325647080Y-98454166D02*
X325694700Y-98406547D01*
X325694700Y-98406547D02*
X325742319Y-98311309D01*
X325742319Y-98311309D02*
X325742319Y-98216071D01*
X325742319Y-98216071D02*
X325694700Y-98120833D01*
X325694700Y-98120833D02*
X325647080Y-98073214D01*
X325647080Y-98073214D02*
X325551842Y-98025595D01*
X325551842Y-98025595D02*
X325361366Y-97977976D01*
X325361366Y-97977976D02*
X325123271Y-97977976D01*
X325123271Y-97977976D02*
X324932795Y-98025595D01*
X324932795Y-98025595D02*
X324837557Y-98073214D01*
X324837557Y-98073214D02*
X324789938Y-98120833D01*
X324789938Y-98120833D02*
X324742319Y-98216071D01*
X277742319Y-77073214D02*
X276742319Y-77073214D01*
X276742319Y-77073214D02*
X276742319Y-77311309D01*
X276742319Y-77311309D02*
X276789938Y-77454166D01*
X276789938Y-77454166D02*
X276885176Y-77549404D01*
X276885176Y-77549404D02*
X276980414Y-77597023D01*
X276980414Y-77597023D02*
X277170890Y-77644642D01*
X277170890Y-77644642D02*
X277313747Y-77644642D01*
X277313747Y-77644642D02*
X277504223Y-77597023D01*
X277504223Y-77597023D02*
X277599461Y-77549404D01*
X277599461Y-77549404D02*
X277694700Y-77454166D01*
X277694700Y-77454166D02*
X277742319Y-77311309D01*
X277742319Y-77311309D02*
X277742319Y-77073214D01*
X277075652Y-78501785D02*
X277742319Y-78501785D01*
X276694700Y-78263690D02*
X277408985Y-78025595D01*
X277408985Y-78025595D02*
X277408985Y-78644642D01*
X277075652Y-79454166D02*
X277742319Y-79454166D01*
X276694700Y-79216071D02*
X277408985Y-78977976D01*
X277408985Y-78977976D02*
X277408985Y-79597023D01*
X54742319Y-96073214D02*
X53742319Y-96073214D01*
X53742319Y-96073214D02*
X53742319Y-96311309D01*
X53742319Y-96311309D02*
X53789938Y-96454166D01*
X53789938Y-96454166D02*
X53885176Y-96549404D01*
X53885176Y-96549404D02*
X53980414Y-96597023D01*
X53980414Y-96597023D02*
X54170890Y-96644642D01*
X54170890Y-96644642D02*
X54313747Y-96644642D01*
X54313747Y-96644642D02*
X54504223Y-96597023D01*
X54504223Y-96597023D02*
X54599461Y-96549404D01*
X54599461Y-96549404D02*
X54694700Y-96454166D01*
X54694700Y-96454166D02*
X54742319Y-96311309D01*
X54742319Y-96311309D02*
X54742319Y-96073214D01*
X54075652Y-97501785D02*
X54742319Y-97501785D01*
X53694700Y-97263690D02*
X54408985Y-97025595D01*
X54408985Y-97025595D02*
X54408985Y-97644642D01*
X53742319Y-97930357D02*
X53742319Y-98597023D01*
X53742319Y-98597023D02*
X54742319Y-98168452D01*
X187742319Y-96073214D02*
X186742319Y-96073214D01*
X186742319Y-96073214D02*
X186742319Y-96311309D01*
X186742319Y-96311309D02*
X186789938Y-96454166D01*
X186789938Y-96454166D02*
X186885176Y-96549404D01*
X186885176Y-96549404D02*
X186980414Y-96597023D01*
X186980414Y-96597023D02*
X187170890Y-96644642D01*
X187170890Y-96644642D02*
X187313747Y-96644642D01*
X187313747Y-96644642D02*
X187504223Y-96597023D01*
X187504223Y-96597023D02*
X187599461Y-96549404D01*
X187599461Y-96549404D02*
X187694700Y-96454166D01*
X187694700Y-96454166D02*
X187742319Y-96311309D01*
X187742319Y-96311309D02*
X187742319Y-96073214D01*
X186742319Y-97549404D02*
X186742319Y-97073214D01*
X186742319Y-97073214D02*
X187218509Y-97025595D01*
X187218509Y-97025595D02*
X187170890Y-97073214D01*
X187170890Y-97073214D02*
X187123271Y-97168452D01*
X187123271Y-97168452D02*
X187123271Y-97406547D01*
X187123271Y-97406547D02*
X187170890Y-97501785D01*
X187170890Y-97501785D02*
X187218509Y-97549404D01*
X187218509Y-97549404D02*
X187313747Y-97597023D01*
X187313747Y-97597023D02*
X187551842Y-97597023D01*
X187551842Y-97597023D02*
X187647080Y-97549404D01*
X187647080Y-97549404D02*
X187694700Y-97501785D01*
X187694700Y-97501785D02*
X187742319Y-97406547D01*
X187742319Y-97406547D02*
X187742319Y-97168452D01*
X187742319Y-97168452D02*
X187694700Y-97073214D01*
X187694700Y-97073214D02*
X187647080Y-97025595D01*
X187075652Y-98454166D02*
X187742319Y-98454166D01*
X186694700Y-98216071D02*
X187408985Y-97977976D01*
X187408985Y-97977976D02*
X187408985Y-98597023D01*
X116742319Y-58073214D02*
X115742319Y-58073214D01*
X115742319Y-58073214D02*
X115742319Y-58311309D01*
X115742319Y-58311309D02*
X115789938Y-58454166D01*
X115789938Y-58454166D02*
X115885176Y-58549404D01*
X115885176Y-58549404D02*
X115980414Y-58597023D01*
X115980414Y-58597023D02*
X116170890Y-58644642D01*
X116170890Y-58644642D02*
X116313747Y-58644642D01*
X116313747Y-58644642D02*
X116504223Y-58597023D01*
X116504223Y-58597023D02*
X116599461Y-58549404D01*
X116599461Y-58549404D02*
X116694700Y-58454166D01*
X116694700Y-58454166D02*
X116742319Y-58311309D01*
X116742319Y-58311309D02*
X116742319Y-58073214D01*
X115837557Y-59025595D02*
X115789938Y-59073214D01*
X115789938Y-59073214D02*
X115742319Y-59168452D01*
X115742319Y-59168452D02*
X115742319Y-59406547D01*
X115742319Y-59406547D02*
X115789938Y-59501785D01*
X115789938Y-59501785D02*
X115837557Y-59549404D01*
X115837557Y-59549404D02*
X115932795Y-59597023D01*
X115932795Y-59597023D02*
X116028033Y-59597023D01*
X116028033Y-59597023D02*
X116170890Y-59549404D01*
X116170890Y-59549404D02*
X116742319Y-58977976D01*
X116742319Y-58977976D02*
X116742319Y-59597023D01*
X116742319Y-60549404D02*
X116742319Y-59977976D01*
X116742319Y-60263690D02*
X115742319Y-60263690D01*
X115742319Y-60263690D02*
X115885176Y-60168452D01*
X115885176Y-60168452D02*
X115980414Y-60073214D01*
X115980414Y-60073214D02*
X116028033Y-59977976D01*
X97742319Y-39549405D02*
X96742319Y-39549405D01*
X96742319Y-39549405D02*
X96742319Y-39787500D01*
X96742319Y-39787500D02*
X96789938Y-39930357D01*
X96789938Y-39930357D02*
X96885176Y-40025595D01*
X96885176Y-40025595D02*
X96980414Y-40073214D01*
X96980414Y-40073214D02*
X97170890Y-40120833D01*
X97170890Y-40120833D02*
X97313747Y-40120833D01*
X97313747Y-40120833D02*
X97504223Y-40073214D01*
X97504223Y-40073214D02*
X97599461Y-40025595D01*
X97599461Y-40025595D02*
X97694700Y-39930357D01*
X97694700Y-39930357D02*
X97742319Y-39787500D01*
X97742319Y-39787500D02*
X97742319Y-39549405D01*
X97075652Y-40977976D02*
X97742319Y-40977976D01*
X96694700Y-40739881D02*
X97408985Y-40501786D01*
X97408985Y-40501786D02*
X97408985Y-41120833D01*
X325742319Y-39073214D02*
X324742319Y-39073214D01*
X324742319Y-39073214D02*
X324742319Y-39311309D01*
X324742319Y-39311309D02*
X324789938Y-39454166D01*
X324789938Y-39454166D02*
X324885176Y-39549404D01*
X324885176Y-39549404D02*
X324980414Y-39597023D01*
X324980414Y-39597023D02*
X325170890Y-39644642D01*
X325170890Y-39644642D02*
X325313747Y-39644642D01*
X325313747Y-39644642D02*
X325504223Y-39597023D01*
X325504223Y-39597023D02*
X325599461Y-39549404D01*
X325599461Y-39549404D02*
X325694700Y-39454166D01*
X325694700Y-39454166D02*
X325742319Y-39311309D01*
X325742319Y-39311309D02*
X325742319Y-39073214D01*
X325742319Y-40597023D02*
X325742319Y-40025595D01*
X325742319Y-40311309D02*
X324742319Y-40311309D01*
X324742319Y-40311309D02*
X324885176Y-40216071D01*
X324885176Y-40216071D02*
X324980414Y-40120833D01*
X324980414Y-40120833D02*
X325028033Y-40025595D01*
X324742319Y-41454166D02*
X324742319Y-41263690D01*
X324742319Y-41263690D02*
X324789938Y-41168452D01*
X324789938Y-41168452D02*
X324837557Y-41120833D01*
X324837557Y-41120833D02*
X324980414Y-41025595D01*
X324980414Y-41025595D02*
X325170890Y-40977976D01*
X325170890Y-40977976D02*
X325551842Y-40977976D01*
X325551842Y-40977976D02*
X325647080Y-41025595D01*
X325647080Y-41025595D02*
X325694700Y-41073214D01*
X325694700Y-41073214D02*
X325742319Y-41168452D01*
X325742319Y-41168452D02*
X325742319Y-41358928D01*
X325742319Y-41358928D02*
X325694700Y-41454166D01*
X325694700Y-41454166D02*
X325647080Y-41501785D01*
X325647080Y-41501785D02*
X325551842Y-41549404D01*
X325551842Y-41549404D02*
X325313747Y-41549404D01*
X325313747Y-41549404D02*
X325218509Y-41501785D01*
X325218509Y-41501785D02*
X325170890Y-41454166D01*
X325170890Y-41454166D02*
X325123271Y-41358928D01*
X325123271Y-41358928D02*
X325123271Y-41168452D01*
X325123271Y-41168452D02*
X325170890Y-41073214D01*
X325170890Y-41073214D02*
X325218509Y-41025595D01*
X325218509Y-41025595D02*
X325313747Y-40977976D01*
X268742319Y-134073214D02*
X267742319Y-134073214D01*
X267742319Y-134073214D02*
X267742319Y-134311309D01*
X267742319Y-134311309D02*
X267789938Y-134454166D01*
X267789938Y-134454166D02*
X267885176Y-134549404D01*
X267885176Y-134549404D02*
X267980414Y-134597023D01*
X267980414Y-134597023D02*
X268170890Y-134644642D01*
X268170890Y-134644642D02*
X268313747Y-134644642D01*
X268313747Y-134644642D02*
X268504223Y-134597023D01*
X268504223Y-134597023D02*
X268599461Y-134549404D01*
X268599461Y-134549404D02*
X268694700Y-134454166D01*
X268694700Y-134454166D02*
X268742319Y-134311309D01*
X268742319Y-134311309D02*
X268742319Y-134073214D01*
X268170890Y-135216071D02*
X268123271Y-135120833D01*
X268123271Y-135120833D02*
X268075652Y-135073214D01*
X268075652Y-135073214D02*
X267980414Y-135025595D01*
X267980414Y-135025595D02*
X267932795Y-135025595D01*
X267932795Y-135025595D02*
X267837557Y-135073214D01*
X267837557Y-135073214D02*
X267789938Y-135120833D01*
X267789938Y-135120833D02*
X267742319Y-135216071D01*
X267742319Y-135216071D02*
X267742319Y-135406547D01*
X267742319Y-135406547D02*
X267789938Y-135501785D01*
X267789938Y-135501785D02*
X267837557Y-135549404D01*
X267837557Y-135549404D02*
X267932795Y-135597023D01*
X267932795Y-135597023D02*
X267980414Y-135597023D01*
X267980414Y-135597023D02*
X268075652Y-135549404D01*
X268075652Y-135549404D02*
X268123271Y-135501785D01*
X268123271Y-135501785D02*
X268170890Y-135406547D01*
X268170890Y-135406547D02*
X268170890Y-135216071D01*
X268170890Y-135216071D02*
X268218509Y-135120833D01*
X268218509Y-135120833D02*
X268266128Y-135073214D01*
X268266128Y-135073214D02*
X268361366Y-135025595D01*
X268361366Y-135025595D02*
X268551842Y-135025595D01*
X268551842Y-135025595D02*
X268647080Y-135073214D01*
X268647080Y-135073214D02*
X268694700Y-135120833D01*
X268694700Y-135120833D02*
X268742319Y-135216071D01*
X268742319Y-135216071D02*
X268742319Y-135406547D01*
X268742319Y-135406547D02*
X268694700Y-135501785D01*
X268694700Y-135501785D02*
X268647080Y-135549404D01*
X268647080Y-135549404D02*
X268551842Y-135597023D01*
X268551842Y-135597023D02*
X268361366Y-135597023D01*
X268361366Y-135597023D02*
X268266128Y-135549404D01*
X268266128Y-135549404D02*
X268218509Y-135501785D01*
X268218509Y-135501785D02*
X268170890Y-135406547D01*
X268742319Y-136549404D02*
X268742319Y-135977976D01*
X268742319Y-136263690D02*
X267742319Y-136263690D01*
X267742319Y-136263690D02*
X267885176Y-136168452D01*
X267885176Y-136168452D02*
X267980414Y-136073214D01*
X267980414Y-136073214D02*
X268028033Y-135977976D01*
X87742319Y-77073214D02*
X86742319Y-77073214D01*
X86742319Y-77073214D02*
X86742319Y-77311309D01*
X86742319Y-77311309D02*
X86789938Y-77454166D01*
X86789938Y-77454166D02*
X86885176Y-77549404D01*
X86885176Y-77549404D02*
X86980414Y-77597023D01*
X86980414Y-77597023D02*
X87170890Y-77644642D01*
X87170890Y-77644642D02*
X87313747Y-77644642D01*
X87313747Y-77644642D02*
X87504223Y-77597023D01*
X87504223Y-77597023D02*
X87599461Y-77549404D01*
X87599461Y-77549404D02*
X87694700Y-77454166D01*
X87694700Y-77454166D02*
X87742319Y-77311309D01*
X87742319Y-77311309D02*
X87742319Y-77073214D01*
X86742319Y-77977976D02*
X86742319Y-78597023D01*
X86742319Y-78597023D02*
X87123271Y-78263690D01*
X87123271Y-78263690D02*
X87123271Y-78406547D01*
X87123271Y-78406547D02*
X87170890Y-78501785D01*
X87170890Y-78501785D02*
X87218509Y-78549404D01*
X87218509Y-78549404D02*
X87313747Y-78597023D01*
X87313747Y-78597023D02*
X87551842Y-78597023D01*
X87551842Y-78597023D02*
X87647080Y-78549404D01*
X87647080Y-78549404D02*
X87694700Y-78501785D01*
X87694700Y-78501785D02*
X87742319Y-78406547D01*
X87742319Y-78406547D02*
X87742319Y-78120833D01*
X87742319Y-78120833D02*
X87694700Y-78025595D01*
X87694700Y-78025595D02*
X87647080Y-77977976D01*
X87075652Y-79454166D02*
X87742319Y-79454166D01*
X86694700Y-79216071D02*
X87408985Y-78977976D01*
X87408985Y-78977976D02*
X87408985Y-79597023D01*
X106742319Y-77073214D02*
X105742319Y-77073214D01*
X105742319Y-77073214D02*
X105742319Y-77311309D01*
X105742319Y-77311309D02*
X105789938Y-77454166D01*
X105789938Y-77454166D02*
X105885176Y-77549404D01*
X105885176Y-77549404D02*
X105980414Y-77597023D01*
X105980414Y-77597023D02*
X106170890Y-77644642D01*
X106170890Y-77644642D02*
X106313747Y-77644642D01*
X106313747Y-77644642D02*
X106504223Y-77597023D01*
X106504223Y-77597023D02*
X106599461Y-77549404D01*
X106599461Y-77549404D02*
X106694700Y-77454166D01*
X106694700Y-77454166D02*
X106742319Y-77311309D01*
X106742319Y-77311309D02*
X106742319Y-77073214D01*
X105742319Y-77977976D02*
X105742319Y-78597023D01*
X105742319Y-78597023D02*
X106123271Y-78263690D01*
X106123271Y-78263690D02*
X106123271Y-78406547D01*
X106123271Y-78406547D02*
X106170890Y-78501785D01*
X106170890Y-78501785D02*
X106218509Y-78549404D01*
X106218509Y-78549404D02*
X106313747Y-78597023D01*
X106313747Y-78597023D02*
X106551842Y-78597023D01*
X106551842Y-78597023D02*
X106647080Y-78549404D01*
X106647080Y-78549404D02*
X106694700Y-78501785D01*
X106694700Y-78501785D02*
X106742319Y-78406547D01*
X106742319Y-78406547D02*
X106742319Y-78120833D01*
X106742319Y-78120833D02*
X106694700Y-78025595D01*
X106694700Y-78025595D02*
X106647080Y-77977976D01*
X105742319Y-79501785D02*
X105742319Y-79025595D01*
X105742319Y-79025595D02*
X106218509Y-78977976D01*
X106218509Y-78977976D02*
X106170890Y-79025595D01*
X106170890Y-79025595D02*
X106123271Y-79120833D01*
X106123271Y-79120833D02*
X106123271Y-79358928D01*
X106123271Y-79358928D02*
X106170890Y-79454166D01*
X106170890Y-79454166D02*
X106218509Y-79501785D01*
X106218509Y-79501785D02*
X106313747Y-79549404D01*
X106313747Y-79549404D02*
X106551842Y-79549404D01*
X106551842Y-79549404D02*
X106647080Y-79501785D01*
X106647080Y-79501785D02*
X106694700Y-79454166D01*
X106694700Y-79454166D02*
X106742319Y-79358928D01*
X106742319Y-79358928D02*
X106742319Y-79120833D01*
X106742319Y-79120833D02*
X106694700Y-79025595D01*
X106694700Y-79025595D02*
X106647080Y-78977976D01*
X239742319Y-77073214D02*
X238742319Y-77073214D01*
X238742319Y-77073214D02*
X238742319Y-77311309D01*
X238742319Y-77311309D02*
X238789938Y-77454166D01*
X238789938Y-77454166D02*
X238885176Y-77549404D01*
X238885176Y-77549404D02*
X238980414Y-77597023D01*
X238980414Y-77597023D02*
X239170890Y-77644642D01*
X239170890Y-77644642D02*
X239313747Y-77644642D01*
X239313747Y-77644642D02*
X239504223Y-77597023D01*
X239504223Y-77597023D02*
X239599461Y-77549404D01*
X239599461Y-77549404D02*
X239694700Y-77454166D01*
X239694700Y-77454166D02*
X239742319Y-77311309D01*
X239742319Y-77311309D02*
X239742319Y-77073214D01*
X239075652Y-78501785D02*
X239742319Y-78501785D01*
X238694700Y-78263690D02*
X239408985Y-78025595D01*
X239408985Y-78025595D02*
X239408985Y-78644642D01*
X238837557Y-78977976D02*
X238789938Y-79025595D01*
X238789938Y-79025595D02*
X238742319Y-79120833D01*
X238742319Y-79120833D02*
X238742319Y-79358928D01*
X238742319Y-79358928D02*
X238789938Y-79454166D01*
X238789938Y-79454166D02*
X238837557Y-79501785D01*
X238837557Y-79501785D02*
X238932795Y-79549404D01*
X238932795Y-79549404D02*
X239028033Y-79549404D01*
X239028033Y-79549404D02*
X239170890Y-79501785D01*
X239170890Y-79501785D02*
X239742319Y-78930357D01*
X239742319Y-78930357D02*
X239742319Y-79549404D01*
X287742319Y-39073214D02*
X286742319Y-39073214D01*
X286742319Y-39073214D02*
X286742319Y-39311309D01*
X286742319Y-39311309D02*
X286789938Y-39454166D01*
X286789938Y-39454166D02*
X286885176Y-39549404D01*
X286885176Y-39549404D02*
X286980414Y-39597023D01*
X286980414Y-39597023D02*
X287170890Y-39644642D01*
X287170890Y-39644642D02*
X287313747Y-39644642D01*
X287313747Y-39644642D02*
X287504223Y-39597023D01*
X287504223Y-39597023D02*
X287599461Y-39549404D01*
X287599461Y-39549404D02*
X287694700Y-39454166D01*
X287694700Y-39454166D02*
X287742319Y-39311309D01*
X287742319Y-39311309D02*
X287742319Y-39073214D01*
X287742319Y-40597023D02*
X287742319Y-40025595D01*
X287742319Y-40311309D02*
X286742319Y-40311309D01*
X286742319Y-40311309D02*
X286885176Y-40216071D01*
X286885176Y-40216071D02*
X286980414Y-40120833D01*
X286980414Y-40120833D02*
X287028033Y-40025595D01*
X287075652Y-41454166D02*
X287742319Y-41454166D01*
X286694700Y-41216071D02*
X287408985Y-40977976D01*
X287408985Y-40977976D02*
X287408985Y-41597023D01*
X211742319Y-58073214D02*
X210742319Y-58073214D01*
X210742319Y-58073214D02*
X210742319Y-58311309D01*
X210742319Y-58311309D02*
X210789938Y-58454166D01*
X210789938Y-58454166D02*
X210885176Y-58549404D01*
X210885176Y-58549404D02*
X210980414Y-58597023D01*
X210980414Y-58597023D02*
X211170890Y-58644642D01*
X211170890Y-58644642D02*
X211313747Y-58644642D01*
X211313747Y-58644642D02*
X211504223Y-58597023D01*
X211504223Y-58597023D02*
X211599461Y-58549404D01*
X211599461Y-58549404D02*
X211694700Y-58454166D01*
X211694700Y-58454166D02*
X211742319Y-58311309D01*
X211742319Y-58311309D02*
X211742319Y-58073214D01*
X210837557Y-59025595D02*
X210789938Y-59073214D01*
X210789938Y-59073214D02*
X210742319Y-59168452D01*
X210742319Y-59168452D02*
X210742319Y-59406547D01*
X210742319Y-59406547D02*
X210789938Y-59501785D01*
X210789938Y-59501785D02*
X210837557Y-59549404D01*
X210837557Y-59549404D02*
X210932795Y-59597023D01*
X210932795Y-59597023D02*
X211028033Y-59597023D01*
X211028033Y-59597023D02*
X211170890Y-59549404D01*
X211170890Y-59549404D02*
X211742319Y-58977976D01*
X211742319Y-58977976D02*
X211742319Y-59597023D01*
X210742319Y-60454166D02*
X210742319Y-60263690D01*
X210742319Y-60263690D02*
X210789938Y-60168452D01*
X210789938Y-60168452D02*
X210837557Y-60120833D01*
X210837557Y-60120833D02*
X210980414Y-60025595D01*
X210980414Y-60025595D02*
X211170890Y-59977976D01*
X211170890Y-59977976D02*
X211551842Y-59977976D01*
X211551842Y-59977976D02*
X211647080Y-60025595D01*
X211647080Y-60025595D02*
X211694700Y-60073214D01*
X211694700Y-60073214D02*
X211742319Y-60168452D01*
X211742319Y-60168452D02*
X211742319Y-60358928D01*
X211742319Y-60358928D02*
X211694700Y-60454166D01*
X211694700Y-60454166D02*
X211647080Y-60501785D01*
X211647080Y-60501785D02*
X211551842Y-60549404D01*
X211551842Y-60549404D02*
X211313747Y-60549404D01*
X211313747Y-60549404D02*
X211218509Y-60501785D01*
X211218509Y-60501785D02*
X211170890Y-60454166D01*
X211170890Y-60454166D02*
X211123271Y-60358928D01*
X211123271Y-60358928D02*
X211123271Y-60168452D01*
X211123271Y-60168452D02*
X211170890Y-60073214D01*
X211170890Y-60073214D02*
X211218509Y-60025595D01*
X211218509Y-60025595D02*
X211313747Y-59977976D01*
X140742319Y-115073214D02*
X139742319Y-115073214D01*
X139742319Y-115073214D02*
X139742319Y-115311309D01*
X139742319Y-115311309D02*
X139789938Y-115454166D01*
X139789938Y-115454166D02*
X139885176Y-115549404D01*
X139885176Y-115549404D02*
X139980414Y-115597023D01*
X139980414Y-115597023D02*
X140170890Y-115644642D01*
X140170890Y-115644642D02*
X140313747Y-115644642D01*
X140313747Y-115644642D02*
X140504223Y-115597023D01*
X140504223Y-115597023D02*
X140599461Y-115549404D01*
X140599461Y-115549404D02*
X140694700Y-115454166D01*
X140694700Y-115454166D02*
X140742319Y-115311309D01*
X140742319Y-115311309D02*
X140742319Y-115073214D01*
X139742319Y-116501785D02*
X139742319Y-116311309D01*
X139742319Y-116311309D02*
X139789938Y-116216071D01*
X139789938Y-116216071D02*
X139837557Y-116168452D01*
X139837557Y-116168452D02*
X139980414Y-116073214D01*
X139980414Y-116073214D02*
X140170890Y-116025595D01*
X140170890Y-116025595D02*
X140551842Y-116025595D01*
X140551842Y-116025595D02*
X140647080Y-116073214D01*
X140647080Y-116073214D02*
X140694700Y-116120833D01*
X140694700Y-116120833D02*
X140742319Y-116216071D01*
X140742319Y-116216071D02*
X140742319Y-116406547D01*
X140742319Y-116406547D02*
X140694700Y-116501785D01*
X140694700Y-116501785D02*
X140647080Y-116549404D01*
X140647080Y-116549404D02*
X140551842Y-116597023D01*
X140551842Y-116597023D02*
X140313747Y-116597023D01*
X140313747Y-116597023D02*
X140218509Y-116549404D01*
X140218509Y-116549404D02*
X140170890Y-116501785D01*
X140170890Y-116501785D02*
X140123271Y-116406547D01*
X140123271Y-116406547D02*
X140123271Y-116216071D01*
X140123271Y-116216071D02*
X140170890Y-116120833D01*
X140170890Y-116120833D02*
X140218509Y-116073214D01*
X140218509Y-116073214D02*
X140313747Y-116025595D01*
X139742319Y-117501785D02*
X139742319Y-117025595D01*
X139742319Y-117025595D02*
X140218509Y-116977976D01*
X140218509Y-116977976D02*
X140170890Y-117025595D01*
X140170890Y-117025595D02*
X140123271Y-117120833D01*
X140123271Y-117120833D02*
X140123271Y-117358928D01*
X140123271Y-117358928D02*
X140170890Y-117454166D01*
X140170890Y-117454166D02*
X140218509Y-117501785D01*
X140218509Y-117501785D02*
X140313747Y-117549404D01*
X140313747Y-117549404D02*
X140551842Y-117549404D01*
X140551842Y-117549404D02*
X140647080Y-117501785D01*
X140647080Y-117501785D02*
X140694700Y-117454166D01*
X140694700Y-117454166D02*
X140742319Y-117358928D01*
X140742319Y-117358928D02*
X140742319Y-117120833D01*
X140742319Y-117120833D02*
X140694700Y-117025595D01*
X140694700Y-117025595D02*
X140647080Y-116977976D01*
X116742319Y-39549405D02*
X115742319Y-39549405D01*
X115742319Y-39549405D02*
X115742319Y-39787500D01*
X115742319Y-39787500D02*
X115789938Y-39930357D01*
X115789938Y-39930357D02*
X115885176Y-40025595D01*
X115885176Y-40025595D02*
X115980414Y-40073214D01*
X115980414Y-40073214D02*
X116170890Y-40120833D01*
X116170890Y-40120833D02*
X116313747Y-40120833D01*
X116313747Y-40120833D02*
X116504223Y-40073214D01*
X116504223Y-40073214D02*
X116599461Y-40025595D01*
X116599461Y-40025595D02*
X116694700Y-39930357D01*
X116694700Y-39930357D02*
X116742319Y-39787500D01*
X116742319Y-39787500D02*
X116742319Y-39549405D01*
X115742319Y-41025595D02*
X115742319Y-40549405D01*
X115742319Y-40549405D02*
X116218509Y-40501786D01*
X116218509Y-40501786D02*
X116170890Y-40549405D01*
X116170890Y-40549405D02*
X116123271Y-40644643D01*
X116123271Y-40644643D02*
X116123271Y-40882738D01*
X116123271Y-40882738D02*
X116170890Y-40977976D01*
X116170890Y-40977976D02*
X116218509Y-41025595D01*
X116218509Y-41025595D02*
X116313747Y-41073214D01*
X116313747Y-41073214D02*
X116551842Y-41073214D01*
X116551842Y-41073214D02*
X116647080Y-41025595D01*
X116647080Y-41025595D02*
X116694700Y-40977976D01*
X116694700Y-40977976D02*
X116742319Y-40882738D01*
X116742319Y-40882738D02*
X116742319Y-40644643D01*
X116742319Y-40644643D02*
X116694700Y-40549405D01*
X116694700Y-40549405D02*
X116647080Y-40501786D01*
X97742319Y-58073214D02*
X96742319Y-58073214D01*
X96742319Y-58073214D02*
X96742319Y-58311309D01*
X96742319Y-58311309D02*
X96789938Y-58454166D01*
X96789938Y-58454166D02*
X96885176Y-58549404D01*
X96885176Y-58549404D02*
X96980414Y-58597023D01*
X96980414Y-58597023D02*
X97170890Y-58644642D01*
X97170890Y-58644642D02*
X97313747Y-58644642D01*
X97313747Y-58644642D02*
X97504223Y-58597023D01*
X97504223Y-58597023D02*
X97599461Y-58549404D01*
X97599461Y-58549404D02*
X97694700Y-58454166D01*
X97694700Y-58454166D02*
X97742319Y-58311309D01*
X97742319Y-58311309D02*
X97742319Y-58073214D01*
X96837557Y-59025595D02*
X96789938Y-59073214D01*
X96789938Y-59073214D02*
X96742319Y-59168452D01*
X96742319Y-59168452D02*
X96742319Y-59406547D01*
X96742319Y-59406547D02*
X96789938Y-59501785D01*
X96789938Y-59501785D02*
X96837557Y-59549404D01*
X96837557Y-59549404D02*
X96932795Y-59597023D01*
X96932795Y-59597023D02*
X97028033Y-59597023D01*
X97028033Y-59597023D02*
X97170890Y-59549404D01*
X97170890Y-59549404D02*
X97742319Y-58977976D01*
X97742319Y-58977976D02*
X97742319Y-59597023D01*
X96742319Y-60216071D02*
X96742319Y-60311309D01*
X96742319Y-60311309D02*
X96789938Y-60406547D01*
X96789938Y-60406547D02*
X96837557Y-60454166D01*
X96837557Y-60454166D02*
X96932795Y-60501785D01*
X96932795Y-60501785D02*
X97123271Y-60549404D01*
X97123271Y-60549404D02*
X97361366Y-60549404D01*
X97361366Y-60549404D02*
X97551842Y-60501785D01*
X97551842Y-60501785D02*
X97647080Y-60454166D01*
X97647080Y-60454166D02*
X97694700Y-60406547D01*
X97694700Y-60406547D02*
X97742319Y-60311309D01*
X97742319Y-60311309D02*
X97742319Y-60216071D01*
X97742319Y-60216071D02*
X97694700Y-60120833D01*
X97694700Y-60120833D02*
X97647080Y-60073214D01*
X97647080Y-60073214D02*
X97551842Y-60025595D01*
X97551842Y-60025595D02*
X97361366Y-59977976D01*
X97361366Y-59977976D02*
X97123271Y-59977976D01*
X97123271Y-59977976D02*
X96932795Y-60025595D01*
X96932795Y-60025595D02*
X96837557Y-60073214D01*
X96837557Y-60073214D02*
X96789938Y-60120833D01*
X96789938Y-60120833D02*
X96742319Y-60216071D01*
X325742319Y-134073214D02*
X324742319Y-134073214D01*
X324742319Y-134073214D02*
X324742319Y-134311309D01*
X324742319Y-134311309D02*
X324789938Y-134454166D01*
X324789938Y-134454166D02*
X324885176Y-134549404D01*
X324885176Y-134549404D02*
X324980414Y-134597023D01*
X324980414Y-134597023D02*
X325170890Y-134644642D01*
X325170890Y-134644642D02*
X325313747Y-134644642D01*
X325313747Y-134644642D02*
X325504223Y-134597023D01*
X325504223Y-134597023D02*
X325599461Y-134549404D01*
X325599461Y-134549404D02*
X325694700Y-134454166D01*
X325694700Y-134454166D02*
X325742319Y-134311309D01*
X325742319Y-134311309D02*
X325742319Y-134073214D01*
X325170890Y-135216071D02*
X325123271Y-135120833D01*
X325123271Y-135120833D02*
X325075652Y-135073214D01*
X325075652Y-135073214D02*
X324980414Y-135025595D01*
X324980414Y-135025595D02*
X324932795Y-135025595D01*
X324932795Y-135025595D02*
X324837557Y-135073214D01*
X324837557Y-135073214D02*
X324789938Y-135120833D01*
X324789938Y-135120833D02*
X324742319Y-135216071D01*
X324742319Y-135216071D02*
X324742319Y-135406547D01*
X324742319Y-135406547D02*
X324789938Y-135501785D01*
X324789938Y-135501785D02*
X324837557Y-135549404D01*
X324837557Y-135549404D02*
X324932795Y-135597023D01*
X324932795Y-135597023D02*
X324980414Y-135597023D01*
X324980414Y-135597023D02*
X325075652Y-135549404D01*
X325075652Y-135549404D02*
X325123271Y-135501785D01*
X325123271Y-135501785D02*
X325170890Y-135406547D01*
X325170890Y-135406547D02*
X325170890Y-135216071D01*
X325170890Y-135216071D02*
X325218509Y-135120833D01*
X325218509Y-135120833D02*
X325266128Y-135073214D01*
X325266128Y-135073214D02*
X325361366Y-135025595D01*
X325361366Y-135025595D02*
X325551842Y-135025595D01*
X325551842Y-135025595D02*
X325647080Y-135073214D01*
X325647080Y-135073214D02*
X325694700Y-135120833D01*
X325694700Y-135120833D02*
X325742319Y-135216071D01*
X325742319Y-135216071D02*
X325742319Y-135406547D01*
X325742319Y-135406547D02*
X325694700Y-135501785D01*
X325694700Y-135501785D02*
X325647080Y-135549404D01*
X325647080Y-135549404D02*
X325551842Y-135597023D01*
X325551842Y-135597023D02*
X325361366Y-135597023D01*
X325361366Y-135597023D02*
X325266128Y-135549404D01*
X325266128Y-135549404D02*
X325218509Y-135501785D01*
X325218509Y-135501785D02*
X325170890Y-135406547D01*
X325075652Y-136454166D02*
X325742319Y-136454166D01*
X324694700Y-136216071D02*
X325408985Y-135977976D01*
X325408985Y-135977976D02*
X325408985Y-136597023D01*
X101742319Y-115466914D02*
X100742319Y-115466914D01*
X100742319Y-115466914D02*
X100742319Y-115705009D01*
X100742319Y-115705009D02*
X100789938Y-115847866D01*
X100789938Y-115847866D02*
X100885176Y-115943104D01*
X100885176Y-115943104D02*
X100980414Y-115990723D01*
X100980414Y-115990723D02*
X101170890Y-116038342D01*
X101170890Y-116038342D02*
X101313747Y-116038342D01*
X101313747Y-116038342D02*
X101504223Y-115990723D01*
X101504223Y-115990723D02*
X101599461Y-115943104D01*
X101599461Y-115943104D02*
X101694700Y-115847866D01*
X101694700Y-115847866D02*
X101742319Y-115705009D01*
X101742319Y-115705009D02*
X101742319Y-115466914D01*
X100742319Y-116895485D02*
X100742319Y-116705009D01*
X100742319Y-116705009D02*
X100789938Y-116609771D01*
X100789938Y-116609771D02*
X100837557Y-116562152D01*
X100837557Y-116562152D02*
X100980414Y-116466914D01*
X100980414Y-116466914D02*
X101170890Y-116419295D01*
X101170890Y-116419295D02*
X101551842Y-116419295D01*
X101551842Y-116419295D02*
X101647080Y-116466914D01*
X101647080Y-116466914D02*
X101694700Y-116514533D01*
X101694700Y-116514533D02*
X101742319Y-116609771D01*
X101742319Y-116609771D02*
X101742319Y-116800247D01*
X101742319Y-116800247D02*
X101694700Y-116895485D01*
X101694700Y-116895485D02*
X101647080Y-116943104D01*
X101647080Y-116943104D02*
X101551842Y-116990723D01*
X101551842Y-116990723D02*
X101313747Y-116990723D01*
X101313747Y-116990723D02*
X101218509Y-116943104D01*
X101218509Y-116943104D02*
X101170890Y-116895485D01*
X101170890Y-116895485D02*
X101123271Y-116800247D01*
X101123271Y-116800247D02*
X101123271Y-116609771D01*
X101123271Y-116609771D02*
X101170890Y-116514533D01*
X101170890Y-116514533D02*
X101218509Y-116466914D01*
X101218509Y-116466914D02*
X101313747Y-116419295D01*
X100742319Y-117324057D02*
X100742319Y-117943104D01*
X100742319Y-117943104D02*
X101123271Y-117609771D01*
X101123271Y-117609771D02*
X101123271Y-117752628D01*
X101123271Y-117752628D02*
X101170890Y-117847866D01*
X101170890Y-117847866D02*
X101218509Y-117895485D01*
X101218509Y-117895485D02*
X101313747Y-117943104D01*
X101313747Y-117943104D02*
X101551842Y-117943104D01*
X101551842Y-117943104D02*
X101647080Y-117895485D01*
X101647080Y-117895485D02*
X101694700Y-117847866D01*
X101694700Y-117847866D02*
X101742319Y-117752628D01*
X101742319Y-117752628D02*
X101742319Y-117466914D01*
X101742319Y-117466914D02*
X101694700Y-117371676D01*
X101694700Y-117371676D02*
X101647080Y-117324057D01*
X306742319Y-58073214D02*
X305742319Y-58073214D01*
X305742319Y-58073214D02*
X305742319Y-58311309D01*
X305742319Y-58311309D02*
X305789938Y-58454166D01*
X305789938Y-58454166D02*
X305885176Y-58549404D01*
X305885176Y-58549404D02*
X305980414Y-58597023D01*
X305980414Y-58597023D02*
X306170890Y-58644642D01*
X306170890Y-58644642D02*
X306313747Y-58644642D01*
X306313747Y-58644642D02*
X306504223Y-58597023D01*
X306504223Y-58597023D02*
X306599461Y-58549404D01*
X306599461Y-58549404D02*
X306694700Y-58454166D01*
X306694700Y-58454166D02*
X306742319Y-58311309D01*
X306742319Y-58311309D02*
X306742319Y-58073214D01*
X305742319Y-58977976D02*
X305742319Y-59597023D01*
X305742319Y-59597023D02*
X306123271Y-59263690D01*
X306123271Y-59263690D02*
X306123271Y-59406547D01*
X306123271Y-59406547D02*
X306170890Y-59501785D01*
X306170890Y-59501785D02*
X306218509Y-59549404D01*
X306218509Y-59549404D02*
X306313747Y-59597023D01*
X306313747Y-59597023D02*
X306551842Y-59597023D01*
X306551842Y-59597023D02*
X306647080Y-59549404D01*
X306647080Y-59549404D02*
X306694700Y-59501785D01*
X306694700Y-59501785D02*
X306742319Y-59406547D01*
X306742319Y-59406547D02*
X306742319Y-59120833D01*
X306742319Y-59120833D02*
X306694700Y-59025595D01*
X306694700Y-59025595D02*
X306647080Y-58977976D01*
X305742319Y-60216071D02*
X305742319Y-60311309D01*
X305742319Y-60311309D02*
X305789938Y-60406547D01*
X305789938Y-60406547D02*
X305837557Y-60454166D01*
X305837557Y-60454166D02*
X305932795Y-60501785D01*
X305932795Y-60501785D02*
X306123271Y-60549404D01*
X306123271Y-60549404D02*
X306361366Y-60549404D01*
X306361366Y-60549404D02*
X306551842Y-60501785D01*
X306551842Y-60501785D02*
X306647080Y-60454166D01*
X306647080Y-60454166D02*
X306694700Y-60406547D01*
X306694700Y-60406547D02*
X306742319Y-60311309D01*
X306742319Y-60311309D02*
X306742319Y-60216071D01*
X306742319Y-60216071D02*
X306694700Y-60120833D01*
X306694700Y-60120833D02*
X306647080Y-60073214D01*
X306647080Y-60073214D02*
X306551842Y-60025595D01*
X306551842Y-60025595D02*
X306361366Y-59977976D01*
X306361366Y-59977976D02*
X306123271Y-59977976D01*
X306123271Y-59977976D02*
X305932795Y-60025595D01*
X305932795Y-60025595D02*
X305837557Y-60073214D01*
X305837557Y-60073214D02*
X305789938Y-60120833D01*
X305789938Y-60120833D02*
X305742319Y-60216071D01*
X306742319Y-77073214D02*
X305742319Y-77073214D01*
X305742319Y-77073214D02*
X305742319Y-77311309D01*
X305742319Y-77311309D02*
X305789938Y-77454166D01*
X305789938Y-77454166D02*
X305885176Y-77549404D01*
X305885176Y-77549404D02*
X305980414Y-77597023D01*
X305980414Y-77597023D02*
X306170890Y-77644642D01*
X306170890Y-77644642D02*
X306313747Y-77644642D01*
X306313747Y-77644642D02*
X306504223Y-77597023D01*
X306504223Y-77597023D02*
X306599461Y-77549404D01*
X306599461Y-77549404D02*
X306694700Y-77454166D01*
X306694700Y-77454166D02*
X306742319Y-77311309D01*
X306742319Y-77311309D02*
X306742319Y-77073214D01*
X306075652Y-78501785D02*
X306742319Y-78501785D01*
X305694700Y-78263690D02*
X306408985Y-78025595D01*
X306408985Y-78025595D02*
X306408985Y-78644642D01*
X305742319Y-79501785D02*
X305742319Y-79025595D01*
X305742319Y-79025595D02*
X306218509Y-78977976D01*
X306218509Y-78977976D02*
X306170890Y-79025595D01*
X306170890Y-79025595D02*
X306123271Y-79120833D01*
X306123271Y-79120833D02*
X306123271Y-79358928D01*
X306123271Y-79358928D02*
X306170890Y-79454166D01*
X306170890Y-79454166D02*
X306218509Y-79501785D01*
X306218509Y-79501785D02*
X306313747Y-79549404D01*
X306313747Y-79549404D02*
X306551842Y-79549404D01*
X306551842Y-79549404D02*
X306647080Y-79501785D01*
X306647080Y-79501785D02*
X306694700Y-79454166D01*
X306694700Y-79454166D02*
X306742319Y-79358928D01*
X306742319Y-79358928D02*
X306742319Y-79120833D01*
X306742319Y-79120833D02*
X306694700Y-79025595D01*
X306694700Y-79025595D02*
X306647080Y-78977976D01*
X287742319Y-134073214D02*
X286742319Y-134073214D01*
X286742319Y-134073214D02*
X286742319Y-134311309D01*
X286742319Y-134311309D02*
X286789938Y-134454166D01*
X286789938Y-134454166D02*
X286885176Y-134549404D01*
X286885176Y-134549404D02*
X286980414Y-134597023D01*
X286980414Y-134597023D02*
X287170890Y-134644642D01*
X287170890Y-134644642D02*
X287313747Y-134644642D01*
X287313747Y-134644642D02*
X287504223Y-134597023D01*
X287504223Y-134597023D02*
X287599461Y-134549404D01*
X287599461Y-134549404D02*
X287694700Y-134454166D01*
X287694700Y-134454166D02*
X287742319Y-134311309D01*
X287742319Y-134311309D02*
X287742319Y-134073214D01*
X287170890Y-135216071D02*
X287123271Y-135120833D01*
X287123271Y-135120833D02*
X287075652Y-135073214D01*
X287075652Y-135073214D02*
X286980414Y-135025595D01*
X286980414Y-135025595D02*
X286932795Y-135025595D01*
X286932795Y-135025595D02*
X286837557Y-135073214D01*
X286837557Y-135073214D02*
X286789938Y-135120833D01*
X286789938Y-135120833D02*
X286742319Y-135216071D01*
X286742319Y-135216071D02*
X286742319Y-135406547D01*
X286742319Y-135406547D02*
X286789938Y-135501785D01*
X286789938Y-135501785D02*
X286837557Y-135549404D01*
X286837557Y-135549404D02*
X286932795Y-135597023D01*
X286932795Y-135597023D02*
X286980414Y-135597023D01*
X286980414Y-135597023D02*
X287075652Y-135549404D01*
X287075652Y-135549404D02*
X287123271Y-135501785D01*
X287123271Y-135501785D02*
X287170890Y-135406547D01*
X287170890Y-135406547D02*
X287170890Y-135216071D01*
X287170890Y-135216071D02*
X287218509Y-135120833D01*
X287218509Y-135120833D02*
X287266128Y-135073214D01*
X287266128Y-135073214D02*
X287361366Y-135025595D01*
X287361366Y-135025595D02*
X287551842Y-135025595D01*
X287551842Y-135025595D02*
X287647080Y-135073214D01*
X287647080Y-135073214D02*
X287694700Y-135120833D01*
X287694700Y-135120833D02*
X287742319Y-135216071D01*
X287742319Y-135216071D02*
X287742319Y-135406547D01*
X287742319Y-135406547D02*
X287694700Y-135501785D01*
X287694700Y-135501785D02*
X287647080Y-135549404D01*
X287647080Y-135549404D02*
X287551842Y-135597023D01*
X287551842Y-135597023D02*
X287361366Y-135597023D01*
X287361366Y-135597023D02*
X287266128Y-135549404D01*
X287266128Y-135549404D02*
X287218509Y-135501785D01*
X287218509Y-135501785D02*
X287170890Y-135406547D01*
X286837557Y-135977976D02*
X286789938Y-136025595D01*
X286789938Y-136025595D02*
X286742319Y-136120833D01*
X286742319Y-136120833D02*
X286742319Y-136358928D01*
X286742319Y-136358928D02*
X286789938Y-136454166D01*
X286789938Y-136454166D02*
X286837557Y-136501785D01*
X286837557Y-136501785D02*
X286932795Y-136549404D01*
X286932795Y-136549404D02*
X287028033Y-136549404D01*
X287028033Y-136549404D02*
X287170890Y-136501785D01*
X287170890Y-136501785D02*
X287742319Y-135930357D01*
X287742319Y-135930357D02*
X287742319Y-136549404D01*
X159742319Y-115073214D02*
X158742319Y-115073214D01*
X158742319Y-115073214D02*
X158742319Y-115311309D01*
X158742319Y-115311309D02*
X158789938Y-115454166D01*
X158789938Y-115454166D02*
X158885176Y-115549404D01*
X158885176Y-115549404D02*
X158980414Y-115597023D01*
X158980414Y-115597023D02*
X159170890Y-115644642D01*
X159170890Y-115644642D02*
X159313747Y-115644642D01*
X159313747Y-115644642D02*
X159504223Y-115597023D01*
X159504223Y-115597023D02*
X159599461Y-115549404D01*
X159599461Y-115549404D02*
X159694700Y-115454166D01*
X159694700Y-115454166D02*
X159742319Y-115311309D01*
X159742319Y-115311309D02*
X159742319Y-115073214D01*
X158742319Y-116501785D02*
X158742319Y-116311309D01*
X158742319Y-116311309D02*
X158789938Y-116216071D01*
X158789938Y-116216071D02*
X158837557Y-116168452D01*
X158837557Y-116168452D02*
X158980414Y-116073214D01*
X158980414Y-116073214D02*
X159170890Y-116025595D01*
X159170890Y-116025595D02*
X159551842Y-116025595D01*
X159551842Y-116025595D02*
X159647080Y-116073214D01*
X159647080Y-116073214D02*
X159694700Y-116120833D01*
X159694700Y-116120833D02*
X159742319Y-116216071D01*
X159742319Y-116216071D02*
X159742319Y-116406547D01*
X159742319Y-116406547D02*
X159694700Y-116501785D01*
X159694700Y-116501785D02*
X159647080Y-116549404D01*
X159647080Y-116549404D02*
X159551842Y-116597023D01*
X159551842Y-116597023D02*
X159313747Y-116597023D01*
X159313747Y-116597023D02*
X159218509Y-116549404D01*
X159218509Y-116549404D02*
X159170890Y-116501785D01*
X159170890Y-116501785D02*
X159123271Y-116406547D01*
X159123271Y-116406547D02*
X159123271Y-116216071D01*
X159123271Y-116216071D02*
X159170890Y-116120833D01*
X159170890Y-116120833D02*
X159218509Y-116073214D01*
X159218509Y-116073214D02*
X159313747Y-116025595D01*
X158742319Y-117454166D02*
X158742319Y-117263690D01*
X158742319Y-117263690D02*
X158789938Y-117168452D01*
X158789938Y-117168452D02*
X158837557Y-117120833D01*
X158837557Y-117120833D02*
X158980414Y-117025595D01*
X158980414Y-117025595D02*
X159170890Y-116977976D01*
X159170890Y-116977976D02*
X159551842Y-116977976D01*
X159551842Y-116977976D02*
X159647080Y-117025595D01*
X159647080Y-117025595D02*
X159694700Y-117073214D01*
X159694700Y-117073214D02*
X159742319Y-117168452D01*
X159742319Y-117168452D02*
X159742319Y-117358928D01*
X159742319Y-117358928D02*
X159694700Y-117454166D01*
X159694700Y-117454166D02*
X159647080Y-117501785D01*
X159647080Y-117501785D02*
X159551842Y-117549404D01*
X159551842Y-117549404D02*
X159313747Y-117549404D01*
X159313747Y-117549404D02*
X159218509Y-117501785D01*
X159218509Y-117501785D02*
X159170890Y-117454166D01*
X159170890Y-117454166D02*
X159123271Y-117358928D01*
X159123271Y-117358928D02*
X159123271Y-117168452D01*
X159123271Y-117168452D02*
X159170890Y-117073214D01*
X159170890Y-117073214D02*
X159218509Y-117025595D01*
X159218509Y-117025595D02*
X159313747Y-116977976D01*
X149742319Y-96073214D02*
X148742319Y-96073214D01*
X148742319Y-96073214D02*
X148742319Y-96311309D01*
X148742319Y-96311309D02*
X148789938Y-96454166D01*
X148789938Y-96454166D02*
X148885176Y-96549404D01*
X148885176Y-96549404D02*
X148980414Y-96597023D01*
X148980414Y-96597023D02*
X149170890Y-96644642D01*
X149170890Y-96644642D02*
X149313747Y-96644642D01*
X149313747Y-96644642D02*
X149504223Y-96597023D01*
X149504223Y-96597023D02*
X149599461Y-96549404D01*
X149599461Y-96549404D02*
X149694700Y-96454166D01*
X149694700Y-96454166D02*
X149742319Y-96311309D01*
X149742319Y-96311309D02*
X149742319Y-96073214D01*
X148742319Y-97549404D02*
X148742319Y-97073214D01*
X148742319Y-97073214D02*
X149218509Y-97025595D01*
X149218509Y-97025595D02*
X149170890Y-97073214D01*
X149170890Y-97073214D02*
X149123271Y-97168452D01*
X149123271Y-97168452D02*
X149123271Y-97406547D01*
X149123271Y-97406547D02*
X149170890Y-97501785D01*
X149170890Y-97501785D02*
X149218509Y-97549404D01*
X149218509Y-97549404D02*
X149313747Y-97597023D01*
X149313747Y-97597023D02*
X149551842Y-97597023D01*
X149551842Y-97597023D02*
X149647080Y-97549404D01*
X149647080Y-97549404D02*
X149694700Y-97501785D01*
X149694700Y-97501785D02*
X149742319Y-97406547D01*
X149742319Y-97406547D02*
X149742319Y-97168452D01*
X149742319Y-97168452D02*
X149694700Y-97073214D01*
X149694700Y-97073214D02*
X149647080Y-97025595D01*
X148837557Y-97977976D02*
X148789938Y-98025595D01*
X148789938Y-98025595D02*
X148742319Y-98120833D01*
X148742319Y-98120833D02*
X148742319Y-98358928D01*
X148742319Y-98358928D02*
X148789938Y-98454166D01*
X148789938Y-98454166D02*
X148837557Y-98501785D01*
X148837557Y-98501785D02*
X148932795Y-98549404D01*
X148932795Y-98549404D02*
X149028033Y-98549404D01*
X149028033Y-98549404D02*
X149170890Y-98501785D01*
X149170890Y-98501785D02*
X149742319Y-97930357D01*
X149742319Y-97930357D02*
X149742319Y-98549404D01*
X206742319Y-97723214D02*
X205742319Y-97723214D01*
X205742319Y-97723214D02*
X205742319Y-97961309D01*
X205742319Y-97961309D02*
X205789938Y-98104166D01*
X205789938Y-98104166D02*
X205885176Y-98199404D01*
X205885176Y-98199404D02*
X205980414Y-98247023D01*
X205980414Y-98247023D02*
X206170890Y-98294642D01*
X206170890Y-98294642D02*
X206313747Y-98294642D01*
X206313747Y-98294642D02*
X206504223Y-98247023D01*
X206504223Y-98247023D02*
X206599461Y-98199404D01*
X206599461Y-98199404D02*
X206694700Y-98104166D01*
X206694700Y-98104166D02*
X206742319Y-97961309D01*
X206742319Y-97961309D02*
X206742319Y-97723214D01*
X205742319Y-99199404D02*
X205742319Y-98723214D01*
X205742319Y-98723214D02*
X206218509Y-98675595D01*
X206218509Y-98675595D02*
X206170890Y-98723214D01*
X206170890Y-98723214D02*
X206123271Y-98818452D01*
X206123271Y-98818452D02*
X206123271Y-99056547D01*
X206123271Y-99056547D02*
X206170890Y-99151785D01*
X206170890Y-99151785D02*
X206218509Y-99199404D01*
X206218509Y-99199404D02*
X206313747Y-99247023D01*
X206313747Y-99247023D02*
X206551842Y-99247023D01*
X206551842Y-99247023D02*
X206647080Y-99199404D01*
X206647080Y-99199404D02*
X206694700Y-99151785D01*
X206694700Y-99151785D02*
X206742319Y-99056547D01*
X206742319Y-99056547D02*
X206742319Y-98818452D01*
X206742319Y-98818452D02*
X206694700Y-98723214D01*
X206694700Y-98723214D02*
X206647080Y-98675595D01*
X205742319Y-100151785D02*
X205742319Y-99675595D01*
X205742319Y-99675595D02*
X206218509Y-99627976D01*
X206218509Y-99627976D02*
X206170890Y-99675595D01*
X206170890Y-99675595D02*
X206123271Y-99770833D01*
X206123271Y-99770833D02*
X206123271Y-100008928D01*
X206123271Y-100008928D02*
X206170890Y-100104166D01*
X206170890Y-100104166D02*
X206218509Y-100151785D01*
X206218509Y-100151785D02*
X206313747Y-100199404D01*
X206313747Y-100199404D02*
X206551842Y-100199404D01*
X206551842Y-100199404D02*
X206647080Y-100151785D01*
X206647080Y-100151785D02*
X206694700Y-100104166D01*
X206694700Y-100104166D02*
X206742319Y-100008928D01*
X206742319Y-100008928D02*
X206742319Y-99770833D01*
X206742319Y-99770833D02*
X206694700Y-99675595D01*
X206694700Y-99675595D02*
X206647080Y-99627976D01*
X92742319Y-135073214D02*
X91742319Y-135073214D01*
X91742319Y-135073214D02*
X91742319Y-135311309D01*
X91742319Y-135311309D02*
X91789938Y-135454166D01*
X91789938Y-135454166D02*
X91885176Y-135549404D01*
X91885176Y-135549404D02*
X91980414Y-135597023D01*
X91980414Y-135597023D02*
X92170890Y-135644642D01*
X92170890Y-135644642D02*
X92313747Y-135644642D01*
X92313747Y-135644642D02*
X92504223Y-135597023D01*
X92504223Y-135597023D02*
X92599461Y-135549404D01*
X92599461Y-135549404D02*
X92694700Y-135454166D01*
X92694700Y-135454166D02*
X92742319Y-135311309D01*
X92742319Y-135311309D02*
X92742319Y-135073214D01*
X91742319Y-135977976D02*
X91742319Y-136644642D01*
X91742319Y-136644642D02*
X92742319Y-136216071D01*
X91742319Y-136930357D02*
X91742319Y-137597023D01*
X91742319Y-137597023D02*
X92742319Y-137168452D01*
X92742319Y-96073214D02*
X91742319Y-96073214D01*
X91742319Y-96073214D02*
X91742319Y-96311309D01*
X91742319Y-96311309D02*
X91789938Y-96454166D01*
X91789938Y-96454166D02*
X91885176Y-96549404D01*
X91885176Y-96549404D02*
X91980414Y-96597023D01*
X91980414Y-96597023D02*
X92170890Y-96644642D01*
X92170890Y-96644642D02*
X92313747Y-96644642D01*
X92313747Y-96644642D02*
X92504223Y-96597023D01*
X92504223Y-96597023D02*
X92599461Y-96549404D01*
X92599461Y-96549404D02*
X92694700Y-96454166D01*
X92694700Y-96454166D02*
X92742319Y-96311309D01*
X92742319Y-96311309D02*
X92742319Y-96073214D01*
X92075652Y-97501785D02*
X92742319Y-97501785D01*
X91694700Y-97263690D02*
X92408985Y-97025595D01*
X92408985Y-97025595D02*
X92408985Y-97644642D01*
X92742319Y-98073214D02*
X92742319Y-98263690D01*
X92742319Y-98263690D02*
X92694700Y-98358928D01*
X92694700Y-98358928D02*
X92647080Y-98406547D01*
X92647080Y-98406547D02*
X92504223Y-98501785D01*
X92504223Y-98501785D02*
X92313747Y-98549404D01*
X92313747Y-98549404D02*
X91932795Y-98549404D01*
X91932795Y-98549404D02*
X91837557Y-98501785D01*
X91837557Y-98501785D02*
X91789938Y-98454166D01*
X91789938Y-98454166D02*
X91742319Y-98358928D01*
X91742319Y-98358928D02*
X91742319Y-98168452D01*
X91742319Y-98168452D02*
X91789938Y-98073214D01*
X91789938Y-98073214D02*
X91837557Y-98025595D01*
X91837557Y-98025595D02*
X91932795Y-97977976D01*
X91932795Y-97977976D02*
X92170890Y-97977976D01*
X92170890Y-97977976D02*
X92266128Y-98025595D01*
X92266128Y-98025595D02*
X92313747Y-98073214D01*
X92313747Y-98073214D02*
X92361366Y-98168452D01*
X92361366Y-98168452D02*
X92361366Y-98358928D01*
X92361366Y-98358928D02*
X92313747Y-98454166D01*
X92313747Y-98454166D02*
X92266128Y-98501785D01*
X92266128Y-98501785D02*
X92170890Y-98549404D01*
X125742319Y-77073214D02*
X124742319Y-77073214D01*
X124742319Y-77073214D02*
X124742319Y-77311309D01*
X124742319Y-77311309D02*
X124789938Y-77454166D01*
X124789938Y-77454166D02*
X124885176Y-77549404D01*
X124885176Y-77549404D02*
X124980414Y-77597023D01*
X124980414Y-77597023D02*
X125170890Y-77644642D01*
X125170890Y-77644642D02*
X125313747Y-77644642D01*
X125313747Y-77644642D02*
X125504223Y-77597023D01*
X125504223Y-77597023D02*
X125599461Y-77549404D01*
X125599461Y-77549404D02*
X125694700Y-77454166D01*
X125694700Y-77454166D02*
X125742319Y-77311309D01*
X125742319Y-77311309D02*
X125742319Y-77073214D01*
X124742319Y-77977976D02*
X124742319Y-78597023D01*
X124742319Y-78597023D02*
X125123271Y-78263690D01*
X125123271Y-78263690D02*
X125123271Y-78406547D01*
X125123271Y-78406547D02*
X125170890Y-78501785D01*
X125170890Y-78501785D02*
X125218509Y-78549404D01*
X125218509Y-78549404D02*
X125313747Y-78597023D01*
X125313747Y-78597023D02*
X125551842Y-78597023D01*
X125551842Y-78597023D02*
X125647080Y-78549404D01*
X125647080Y-78549404D02*
X125694700Y-78501785D01*
X125694700Y-78501785D02*
X125742319Y-78406547D01*
X125742319Y-78406547D02*
X125742319Y-78120833D01*
X125742319Y-78120833D02*
X125694700Y-78025595D01*
X125694700Y-78025595D02*
X125647080Y-77977976D01*
X124742319Y-79454166D02*
X124742319Y-79263690D01*
X124742319Y-79263690D02*
X124789938Y-79168452D01*
X124789938Y-79168452D02*
X124837557Y-79120833D01*
X124837557Y-79120833D02*
X124980414Y-79025595D01*
X124980414Y-79025595D02*
X125170890Y-78977976D01*
X125170890Y-78977976D02*
X125551842Y-78977976D01*
X125551842Y-78977976D02*
X125647080Y-79025595D01*
X125647080Y-79025595D02*
X125694700Y-79073214D01*
X125694700Y-79073214D02*
X125742319Y-79168452D01*
X125742319Y-79168452D02*
X125742319Y-79358928D01*
X125742319Y-79358928D02*
X125694700Y-79454166D01*
X125694700Y-79454166D02*
X125647080Y-79501785D01*
X125647080Y-79501785D02*
X125551842Y-79549404D01*
X125551842Y-79549404D02*
X125313747Y-79549404D01*
X125313747Y-79549404D02*
X125218509Y-79501785D01*
X125218509Y-79501785D02*
X125170890Y-79454166D01*
X125170890Y-79454166D02*
X125123271Y-79358928D01*
X125123271Y-79358928D02*
X125123271Y-79168452D01*
X125123271Y-79168452D02*
X125170890Y-79073214D01*
X125170890Y-79073214D02*
X125218509Y-79025595D01*
X125218509Y-79025595D02*
X125313747Y-78977976D01*
X163742319Y-77723214D02*
X162742319Y-77723214D01*
X162742319Y-77723214D02*
X162742319Y-77961309D01*
X162742319Y-77961309D02*
X162789938Y-78104166D01*
X162789938Y-78104166D02*
X162885176Y-78199404D01*
X162885176Y-78199404D02*
X162980414Y-78247023D01*
X162980414Y-78247023D02*
X163170890Y-78294642D01*
X163170890Y-78294642D02*
X163313747Y-78294642D01*
X163313747Y-78294642D02*
X163504223Y-78247023D01*
X163504223Y-78247023D02*
X163599461Y-78199404D01*
X163599461Y-78199404D02*
X163694700Y-78104166D01*
X163694700Y-78104166D02*
X163742319Y-77961309D01*
X163742319Y-77961309D02*
X163742319Y-77723214D01*
X162742319Y-78627976D02*
X162742319Y-79247023D01*
X162742319Y-79247023D02*
X163123271Y-78913690D01*
X163123271Y-78913690D02*
X163123271Y-79056547D01*
X163123271Y-79056547D02*
X163170890Y-79151785D01*
X163170890Y-79151785D02*
X163218509Y-79199404D01*
X163218509Y-79199404D02*
X163313747Y-79247023D01*
X163313747Y-79247023D02*
X163551842Y-79247023D01*
X163551842Y-79247023D02*
X163647080Y-79199404D01*
X163647080Y-79199404D02*
X163694700Y-79151785D01*
X163694700Y-79151785D02*
X163742319Y-79056547D01*
X163742319Y-79056547D02*
X163742319Y-78770833D01*
X163742319Y-78770833D02*
X163694700Y-78675595D01*
X163694700Y-78675595D02*
X163647080Y-78627976D01*
X163170890Y-79818452D02*
X163123271Y-79723214D01*
X163123271Y-79723214D02*
X163075652Y-79675595D01*
X163075652Y-79675595D02*
X162980414Y-79627976D01*
X162980414Y-79627976D02*
X162932795Y-79627976D01*
X162932795Y-79627976D02*
X162837557Y-79675595D01*
X162837557Y-79675595D02*
X162789938Y-79723214D01*
X162789938Y-79723214D02*
X162742319Y-79818452D01*
X162742319Y-79818452D02*
X162742319Y-80008928D01*
X162742319Y-80008928D02*
X162789938Y-80104166D01*
X162789938Y-80104166D02*
X162837557Y-80151785D01*
X162837557Y-80151785D02*
X162932795Y-80199404D01*
X162932795Y-80199404D02*
X162980414Y-80199404D01*
X162980414Y-80199404D02*
X163075652Y-80151785D01*
X163075652Y-80151785D02*
X163123271Y-80104166D01*
X163123271Y-80104166D02*
X163170890Y-80008928D01*
X163170890Y-80008928D02*
X163170890Y-79818452D01*
X163170890Y-79818452D02*
X163218509Y-79723214D01*
X163218509Y-79723214D02*
X163266128Y-79675595D01*
X163266128Y-79675595D02*
X163361366Y-79627976D01*
X163361366Y-79627976D02*
X163551842Y-79627976D01*
X163551842Y-79627976D02*
X163647080Y-79675595D01*
X163647080Y-79675595D02*
X163694700Y-79723214D01*
X163694700Y-79723214D02*
X163742319Y-79818452D01*
X163742319Y-79818452D02*
X163742319Y-80008928D01*
X163742319Y-80008928D02*
X163694700Y-80104166D01*
X163694700Y-80104166D02*
X163647080Y-80151785D01*
X163647080Y-80151785D02*
X163551842Y-80199404D01*
X163551842Y-80199404D02*
X163361366Y-80199404D01*
X163361366Y-80199404D02*
X163266128Y-80151785D01*
X163266128Y-80151785D02*
X163218509Y-80104166D01*
X163218509Y-80104166D02*
X163170890Y-80008928D01*
X249742319Y-134073214D02*
X248742319Y-134073214D01*
X248742319Y-134073214D02*
X248742319Y-134311309D01*
X248742319Y-134311309D02*
X248789938Y-134454166D01*
X248789938Y-134454166D02*
X248885176Y-134549404D01*
X248885176Y-134549404D02*
X248980414Y-134597023D01*
X248980414Y-134597023D02*
X249170890Y-134644642D01*
X249170890Y-134644642D02*
X249313747Y-134644642D01*
X249313747Y-134644642D02*
X249504223Y-134597023D01*
X249504223Y-134597023D02*
X249599461Y-134549404D01*
X249599461Y-134549404D02*
X249694700Y-134454166D01*
X249694700Y-134454166D02*
X249742319Y-134311309D01*
X249742319Y-134311309D02*
X249742319Y-134073214D01*
X249170890Y-135216071D02*
X249123271Y-135120833D01*
X249123271Y-135120833D02*
X249075652Y-135073214D01*
X249075652Y-135073214D02*
X248980414Y-135025595D01*
X248980414Y-135025595D02*
X248932795Y-135025595D01*
X248932795Y-135025595D02*
X248837557Y-135073214D01*
X248837557Y-135073214D02*
X248789938Y-135120833D01*
X248789938Y-135120833D02*
X248742319Y-135216071D01*
X248742319Y-135216071D02*
X248742319Y-135406547D01*
X248742319Y-135406547D02*
X248789938Y-135501785D01*
X248789938Y-135501785D02*
X248837557Y-135549404D01*
X248837557Y-135549404D02*
X248932795Y-135597023D01*
X248932795Y-135597023D02*
X248980414Y-135597023D01*
X248980414Y-135597023D02*
X249075652Y-135549404D01*
X249075652Y-135549404D02*
X249123271Y-135501785D01*
X249123271Y-135501785D02*
X249170890Y-135406547D01*
X249170890Y-135406547D02*
X249170890Y-135216071D01*
X249170890Y-135216071D02*
X249218509Y-135120833D01*
X249218509Y-135120833D02*
X249266128Y-135073214D01*
X249266128Y-135073214D02*
X249361366Y-135025595D01*
X249361366Y-135025595D02*
X249551842Y-135025595D01*
X249551842Y-135025595D02*
X249647080Y-135073214D01*
X249647080Y-135073214D02*
X249694700Y-135120833D01*
X249694700Y-135120833D02*
X249742319Y-135216071D01*
X249742319Y-135216071D02*
X249742319Y-135406547D01*
X249742319Y-135406547D02*
X249694700Y-135501785D01*
X249694700Y-135501785D02*
X249647080Y-135549404D01*
X249647080Y-135549404D02*
X249551842Y-135597023D01*
X249551842Y-135597023D02*
X249361366Y-135597023D01*
X249361366Y-135597023D02*
X249266128Y-135549404D01*
X249266128Y-135549404D02*
X249218509Y-135501785D01*
X249218509Y-135501785D02*
X249170890Y-135406547D01*
X248742319Y-136216071D02*
X248742319Y-136311309D01*
X248742319Y-136311309D02*
X248789938Y-136406547D01*
X248789938Y-136406547D02*
X248837557Y-136454166D01*
X248837557Y-136454166D02*
X248932795Y-136501785D01*
X248932795Y-136501785D02*
X249123271Y-136549404D01*
X249123271Y-136549404D02*
X249361366Y-136549404D01*
X249361366Y-136549404D02*
X249551842Y-136501785D01*
X249551842Y-136501785D02*
X249647080Y-136454166D01*
X249647080Y-136454166D02*
X249694700Y-136406547D01*
X249694700Y-136406547D02*
X249742319Y-136311309D01*
X249742319Y-136311309D02*
X249742319Y-136216071D01*
X249742319Y-136216071D02*
X249694700Y-136120833D01*
X249694700Y-136120833D02*
X249647080Y-136073214D01*
X249647080Y-136073214D02*
X249551842Y-136025595D01*
X249551842Y-136025595D02*
X249361366Y-135977976D01*
X249361366Y-135977976D02*
X249123271Y-135977976D01*
X249123271Y-135977976D02*
X248932795Y-136025595D01*
X248932795Y-136025595D02*
X248837557Y-136073214D01*
X248837557Y-136073214D02*
X248789938Y-136120833D01*
X248789938Y-136120833D02*
X248742319Y-136216071D01*
X68742319Y-135073214D02*
X67742319Y-135073214D01*
X67742319Y-135073214D02*
X67742319Y-135311309D01*
X67742319Y-135311309D02*
X67789938Y-135454166D01*
X67789938Y-135454166D02*
X67885176Y-135549404D01*
X67885176Y-135549404D02*
X67980414Y-135597023D01*
X67980414Y-135597023D02*
X68170890Y-135644642D01*
X68170890Y-135644642D02*
X68313747Y-135644642D01*
X68313747Y-135644642D02*
X68504223Y-135597023D01*
X68504223Y-135597023D02*
X68599461Y-135549404D01*
X68599461Y-135549404D02*
X68694700Y-135454166D01*
X68694700Y-135454166D02*
X68742319Y-135311309D01*
X68742319Y-135311309D02*
X68742319Y-135073214D01*
X67742319Y-135977976D02*
X67742319Y-136644642D01*
X67742319Y-136644642D02*
X68742319Y-136216071D01*
X67742319Y-137454166D02*
X67742319Y-137263690D01*
X67742319Y-137263690D02*
X67789938Y-137168452D01*
X67789938Y-137168452D02*
X67837557Y-137120833D01*
X67837557Y-137120833D02*
X67980414Y-137025595D01*
X67980414Y-137025595D02*
X68170890Y-136977976D01*
X68170890Y-136977976D02*
X68551842Y-136977976D01*
X68551842Y-136977976D02*
X68647080Y-137025595D01*
X68647080Y-137025595D02*
X68694700Y-137073214D01*
X68694700Y-137073214D02*
X68742319Y-137168452D01*
X68742319Y-137168452D02*
X68742319Y-137358928D01*
X68742319Y-137358928D02*
X68694700Y-137454166D01*
X68694700Y-137454166D02*
X68647080Y-137501785D01*
X68647080Y-137501785D02*
X68551842Y-137549404D01*
X68551842Y-137549404D02*
X68313747Y-137549404D01*
X68313747Y-137549404D02*
X68218509Y-137501785D01*
X68218509Y-137501785D02*
X68170890Y-137454166D01*
X68170890Y-137454166D02*
X68123271Y-137358928D01*
X68123271Y-137358928D02*
X68123271Y-137168452D01*
X68123271Y-137168452D02*
X68170890Y-137073214D01*
X68170890Y-137073214D02*
X68218509Y-137025595D01*
X68218509Y-137025595D02*
X68313747Y-136977976D01*
X73742319Y-96073214D02*
X72742319Y-96073214D01*
X72742319Y-96073214D02*
X72742319Y-96311309D01*
X72742319Y-96311309D02*
X72789938Y-96454166D01*
X72789938Y-96454166D02*
X72885176Y-96549404D01*
X72885176Y-96549404D02*
X72980414Y-96597023D01*
X72980414Y-96597023D02*
X73170890Y-96644642D01*
X73170890Y-96644642D02*
X73313747Y-96644642D01*
X73313747Y-96644642D02*
X73504223Y-96597023D01*
X73504223Y-96597023D02*
X73599461Y-96549404D01*
X73599461Y-96549404D02*
X73694700Y-96454166D01*
X73694700Y-96454166D02*
X73742319Y-96311309D01*
X73742319Y-96311309D02*
X73742319Y-96073214D01*
X73075652Y-97501785D02*
X73742319Y-97501785D01*
X72694700Y-97263690D02*
X73408985Y-97025595D01*
X73408985Y-97025595D02*
X73408985Y-97644642D01*
X73170890Y-98168452D02*
X73123271Y-98073214D01*
X73123271Y-98073214D02*
X73075652Y-98025595D01*
X73075652Y-98025595D02*
X72980414Y-97977976D01*
X72980414Y-97977976D02*
X72932795Y-97977976D01*
X72932795Y-97977976D02*
X72837557Y-98025595D01*
X72837557Y-98025595D02*
X72789938Y-98073214D01*
X72789938Y-98073214D02*
X72742319Y-98168452D01*
X72742319Y-98168452D02*
X72742319Y-98358928D01*
X72742319Y-98358928D02*
X72789938Y-98454166D01*
X72789938Y-98454166D02*
X72837557Y-98501785D01*
X72837557Y-98501785D02*
X72932795Y-98549404D01*
X72932795Y-98549404D02*
X72980414Y-98549404D01*
X72980414Y-98549404D02*
X73075652Y-98501785D01*
X73075652Y-98501785D02*
X73123271Y-98454166D01*
X73123271Y-98454166D02*
X73170890Y-98358928D01*
X73170890Y-98358928D02*
X73170890Y-98168452D01*
X73170890Y-98168452D02*
X73218509Y-98073214D01*
X73218509Y-98073214D02*
X73266128Y-98025595D01*
X73266128Y-98025595D02*
X73361366Y-97977976D01*
X73361366Y-97977976D02*
X73551842Y-97977976D01*
X73551842Y-97977976D02*
X73647080Y-98025595D01*
X73647080Y-98025595D02*
X73694700Y-98073214D01*
X73694700Y-98073214D02*
X73742319Y-98168452D01*
X73742319Y-98168452D02*
X73742319Y-98358928D01*
X73742319Y-98358928D02*
X73694700Y-98454166D01*
X73694700Y-98454166D02*
X73647080Y-98501785D01*
X73647080Y-98501785D02*
X73551842Y-98549404D01*
X73551842Y-98549404D02*
X73361366Y-98549404D01*
X73361366Y-98549404D02*
X73266128Y-98501785D01*
X73266128Y-98501785D02*
X73218509Y-98454166D01*
X73218509Y-98454166D02*
X73170890Y-98358928D01*
X287742319Y-116723214D02*
X286742319Y-116723214D01*
X286742319Y-116723214D02*
X286742319Y-116961309D01*
X286742319Y-116961309D02*
X286789938Y-117104166D01*
X286789938Y-117104166D02*
X286885176Y-117199404D01*
X286885176Y-117199404D02*
X286980414Y-117247023D01*
X286980414Y-117247023D02*
X287170890Y-117294642D01*
X287170890Y-117294642D02*
X287313747Y-117294642D01*
X287313747Y-117294642D02*
X287504223Y-117247023D01*
X287504223Y-117247023D02*
X287599461Y-117199404D01*
X287599461Y-117199404D02*
X287694700Y-117104166D01*
X287694700Y-117104166D02*
X287742319Y-116961309D01*
X287742319Y-116961309D02*
X287742319Y-116723214D01*
X286742319Y-117627976D02*
X286742319Y-118294642D01*
X286742319Y-118294642D02*
X287742319Y-117866071D01*
X286837557Y-118627976D02*
X286789938Y-118675595D01*
X286789938Y-118675595D02*
X286742319Y-118770833D01*
X286742319Y-118770833D02*
X286742319Y-119008928D01*
X286742319Y-119008928D02*
X286789938Y-119104166D01*
X286789938Y-119104166D02*
X286837557Y-119151785D01*
X286837557Y-119151785D02*
X286932795Y-119199404D01*
X286932795Y-119199404D02*
X287028033Y-119199404D01*
X287028033Y-119199404D02*
X287170890Y-119151785D01*
X287170890Y-119151785D02*
X287742319Y-118580357D01*
X287742319Y-118580357D02*
X287742319Y-119199404D01*
X168742319Y-96073214D02*
X167742319Y-96073214D01*
X167742319Y-96073214D02*
X167742319Y-96311309D01*
X167742319Y-96311309D02*
X167789938Y-96454166D01*
X167789938Y-96454166D02*
X167885176Y-96549404D01*
X167885176Y-96549404D02*
X167980414Y-96597023D01*
X167980414Y-96597023D02*
X168170890Y-96644642D01*
X168170890Y-96644642D02*
X168313747Y-96644642D01*
X168313747Y-96644642D02*
X168504223Y-96597023D01*
X168504223Y-96597023D02*
X168599461Y-96549404D01*
X168599461Y-96549404D02*
X168694700Y-96454166D01*
X168694700Y-96454166D02*
X168742319Y-96311309D01*
X168742319Y-96311309D02*
X168742319Y-96073214D01*
X167742319Y-97549404D02*
X167742319Y-97073214D01*
X167742319Y-97073214D02*
X168218509Y-97025595D01*
X168218509Y-97025595D02*
X168170890Y-97073214D01*
X168170890Y-97073214D02*
X168123271Y-97168452D01*
X168123271Y-97168452D02*
X168123271Y-97406547D01*
X168123271Y-97406547D02*
X168170890Y-97501785D01*
X168170890Y-97501785D02*
X168218509Y-97549404D01*
X168218509Y-97549404D02*
X168313747Y-97597023D01*
X168313747Y-97597023D02*
X168551842Y-97597023D01*
X168551842Y-97597023D02*
X168647080Y-97549404D01*
X168647080Y-97549404D02*
X168694700Y-97501785D01*
X168694700Y-97501785D02*
X168742319Y-97406547D01*
X168742319Y-97406547D02*
X168742319Y-97168452D01*
X168742319Y-97168452D02*
X168694700Y-97073214D01*
X168694700Y-97073214D02*
X168647080Y-97025595D01*
X167742319Y-97930357D02*
X167742319Y-98549404D01*
X167742319Y-98549404D02*
X168123271Y-98216071D01*
X168123271Y-98216071D02*
X168123271Y-98358928D01*
X168123271Y-98358928D02*
X168170890Y-98454166D01*
X168170890Y-98454166D02*
X168218509Y-98501785D01*
X168218509Y-98501785D02*
X168313747Y-98549404D01*
X168313747Y-98549404D02*
X168551842Y-98549404D01*
X168551842Y-98549404D02*
X168647080Y-98501785D01*
X168647080Y-98501785D02*
X168694700Y-98454166D01*
X168694700Y-98454166D02*
X168742319Y-98358928D01*
X168742319Y-98358928D02*
X168742319Y-98073214D01*
X168742319Y-98073214D02*
X168694700Y-97977976D01*
X168694700Y-97977976D02*
X168647080Y-97930357D01*
X306742319Y-116073214D02*
X305742319Y-116073214D01*
X305742319Y-116073214D02*
X305742319Y-116311309D01*
X305742319Y-116311309D02*
X305789938Y-116454166D01*
X305789938Y-116454166D02*
X305885176Y-116549404D01*
X305885176Y-116549404D02*
X305980414Y-116597023D01*
X305980414Y-116597023D02*
X306170890Y-116644642D01*
X306170890Y-116644642D02*
X306313747Y-116644642D01*
X306313747Y-116644642D02*
X306504223Y-116597023D01*
X306504223Y-116597023D02*
X306599461Y-116549404D01*
X306599461Y-116549404D02*
X306694700Y-116454166D01*
X306694700Y-116454166D02*
X306742319Y-116311309D01*
X306742319Y-116311309D02*
X306742319Y-116073214D01*
X305742319Y-116977976D02*
X305742319Y-117644642D01*
X305742319Y-117644642D02*
X306742319Y-117216071D01*
X305742319Y-117930357D02*
X305742319Y-118549404D01*
X305742319Y-118549404D02*
X306123271Y-118216071D01*
X306123271Y-118216071D02*
X306123271Y-118358928D01*
X306123271Y-118358928D02*
X306170890Y-118454166D01*
X306170890Y-118454166D02*
X306218509Y-118501785D01*
X306218509Y-118501785D02*
X306313747Y-118549404D01*
X306313747Y-118549404D02*
X306551842Y-118549404D01*
X306551842Y-118549404D02*
X306647080Y-118501785D01*
X306647080Y-118501785D02*
X306694700Y-118454166D01*
X306694700Y-118454166D02*
X306742319Y-118358928D01*
X306742319Y-118358928D02*
X306742319Y-118073214D01*
X306742319Y-118073214D02*
X306694700Y-117977976D01*
X306694700Y-117977976D02*
X306647080Y-117930357D01*
X192742319Y-58073214D02*
X191742319Y-58073214D01*
X191742319Y-58073214D02*
X191742319Y-58311309D01*
X191742319Y-58311309D02*
X191789938Y-58454166D01*
X191789938Y-58454166D02*
X191885176Y-58549404D01*
X191885176Y-58549404D02*
X191980414Y-58597023D01*
X191980414Y-58597023D02*
X192170890Y-58644642D01*
X192170890Y-58644642D02*
X192313747Y-58644642D01*
X192313747Y-58644642D02*
X192504223Y-58597023D01*
X192504223Y-58597023D02*
X192599461Y-58549404D01*
X192599461Y-58549404D02*
X192694700Y-58454166D01*
X192694700Y-58454166D02*
X192742319Y-58311309D01*
X192742319Y-58311309D02*
X192742319Y-58073214D01*
X191837557Y-59025595D02*
X191789938Y-59073214D01*
X191789938Y-59073214D02*
X191742319Y-59168452D01*
X191742319Y-59168452D02*
X191742319Y-59406547D01*
X191742319Y-59406547D02*
X191789938Y-59501785D01*
X191789938Y-59501785D02*
X191837557Y-59549404D01*
X191837557Y-59549404D02*
X191932795Y-59597023D01*
X191932795Y-59597023D02*
X192028033Y-59597023D01*
X192028033Y-59597023D02*
X192170890Y-59549404D01*
X192170890Y-59549404D02*
X192742319Y-58977976D01*
X192742319Y-58977976D02*
X192742319Y-59597023D01*
X191742319Y-60501785D02*
X191742319Y-60025595D01*
X191742319Y-60025595D02*
X192218509Y-59977976D01*
X192218509Y-59977976D02*
X192170890Y-60025595D01*
X192170890Y-60025595D02*
X192123271Y-60120833D01*
X192123271Y-60120833D02*
X192123271Y-60358928D01*
X192123271Y-60358928D02*
X192170890Y-60454166D01*
X192170890Y-60454166D02*
X192218509Y-60501785D01*
X192218509Y-60501785D02*
X192313747Y-60549404D01*
X192313747Y-60549404D02*
X192551842Y-60549404D01*
X192551842Y-60549404D02*
X192647080Y-60501785D01*
X192647080Y-60501785D02*
X192694700Y-60454166D01*
X192694700Y-60454166D02*
X192742319Y-60358928D01*
X192742319Y-60358928D02*
X192742319Y-60120833D01*
X192742319Y-60120833D02*
X192694700Y-60025595D01*
X192694700Y-60025595D02*
X192647080Y-59977976D01*
X306742319Y-96073214D02*
X305742319Y-96073214D01*
X305742319Y-96073214D02*
X305742319Y-96311309D01*
X305742319Y-96311309D02*
X305789938Y-96454166D01*
X305789938Y-96454166D02*
X305885176Y-96549404D01*
X305885176Y-96549404D02*
X305980414Y-96597023D01*
X305980414Y-96597023D02*
X306170890Y-96644642D01*
X306170890Y-96644642D02*
X306313747Y-96644642D01*
X306313747Y-96644642D02*
X306504223Y-96597023D01*
X306504223Y-96597023D02*
X306599461Y-96549404D01*
X306599461Y-96549404D02*
X306694700Y-96454166D01*
X306694700Y-96454166D02*
X306742319Y-96311309D01*
X306742319Y-96311309D02*
X306742319Y-96073214D01*
X305742319Y-97549404D02*
X305742319Y-97073214D01*
X305742319Y-97073214D02*
X306218509Y-97025595D01*
X306218509Y-97025595D02*
X306170890Y-97073214D01*
X306170890Y-97073214D02*
X306123271Y-97168452D01*
X306123271Y-97168452D02*
X306123271Y-97406547D01*
X306123271Y-97406547D02*
X306170890Y-97501785D01*
X306170890Y-97501785D02*
X306218509Y-97549404D01*
X306218509Y-97549404D02*
X306313747Y-97597023D01*
X306313747Y-97597023D02*
X306551842Y-97597023D01*
X306551842Y-97597023D02*
X306647080Y-97549404D01*
X306647080Y-97549404D02*
X306694700Y-97501785D01*
X306694700Y-97501785D02*
X306742319Y-97406547D01*
X306742319Y-97406547D02*
X306742319Y-97168452D01*
X306742319Y-97168452D02*
X306694700Y-97073214D01*
X306694700Y-97073214D02*
X306647080Y-97025595D01*
X306742319Y-98073214D02*
X306742319Y-98263690D01*
X306742319Y-98263690D02*
X306694700Y-98358928D01*
X306694700Y-98358928D02*
X306647080Y-98406547D01*
X306647080Y-98406547D02*
X306504223Y-98501785D01*
X306504223Y-98501785D02*
X306313747Y-98549404D01*
X306313747Y-98549404D02*
X305932795Y-98549404D01*
X305932795Y-98549404D02*
X305837557Y-98501785D01*
X305837557Y-98501785D02*
X305789938Y-98454166D01*
X305789938Y-98454166D02*
X305742319Y-98358928D01*
X305742319Y-98358928D02*
X305742319Y-98168452D01*
X305742319Y-98168452D02*
X305789938Y-98073214D01*
X305789938Y-98073214D02*
X305837557Y-98025595D01*
X305837557Y-98025595D02*
X305932795Y-97977976D01*
X305932795Y-97977976D02*
X306170890Y-97977976D01*
X306170890Y-97977976D02*
X306266128Y-98025595D01*
X306266128Y-98025595D02*
X306313747Y-98073214D01*
X306313747Y-98073214D02*
X306361366Y-98168452D01*
X306361366Y-98168452D02*
X306361366Y-98358928D01*
X306361366Y-98358928D02*
X306313747Y-98454166D01*
X306313747Y-98454166D02*
X306266128Y-98501785D01*
X306266128Y-98501785D02*
X306170890Y-98549404D01*
X173742319Y-58073214D02*
X172742319Y-58073214D01*
X172742319Y-58073214D02*
X172742319Y-58311309D01*
X172742319Y-58311309D02*
X172789938Y-58454166D01*
X172789938Y-58454166D02*
X172885176Y-58549404D01*
X172885176Y-58549404D02*
X172980414Y-58597023D01*
X172980414Y-58597023D02*
X173170890Y-58644642D01*
X173170890Y-58644642D02*
X173313747Y-58644642D01*
X173313747Y-58644642D02*
X173504223Y-58597023D01*
X173504223Y-58597023D02*
X173599461Y-58549404D01*
X173599461Y-58549404D02*
X173694700Y-58454166D01*
X173694700Y-58454166D02*
X173742319Y-58311309D01*
X173742319Y-58311309D02*
X173742319Y-58073214D01*
X172837557Y-59025595D02*
X172789938Y-59073214D01*
X172789938Y-59073214D02*
X172742319Y-59168452D01*
X172742319Y-59168452D02*
X172742319Y-59406547D01*
X172742319Y-59406547D02*
X172789938Y-59501785D01*
X172789938Y-59501785D02*
X172837557Y-59549404D01*
X172837557Y-59549404D02*
X172932795Y-59597023D01*
X172932795Y-59597023D02*
X173028033Y-59597023D01*
X173028033Y-59597023D02*
X173170890Y-59549404D01*
X173170890Y-59549404D02*
X173742319Y-58977976D01*
X173742319Y-58977976D02*
X173742319Y-59597023D01*
X173075652Y-60454166D02*
X173742319Y-60454166D01*
X172694700Y-60216071D02*
X173408985Y-59977976D01*
X173408985Y-59977976D02*
X173408985Y-60597023D01*
X235742319Y-115073214D02*
X234742319Y-115073214D01*
X234742319Y-115073214D02*
X234742319Y-115311309D01*
X234742319Y-115311309D02*
X234789938Y-115454166D01*
X234789938Y-115454166D02*
X234885176Y-115549404D01*
X234885176Y-115549404D02*
X234980414Y-115597023D01*
X234980414Y-115597023D02*
X235170890Y-115644642D01*
X235170890Y-115644642D02*
X235313747Y-115644642D01*
X235313747Y-115644642D02*
X235504223Y-115597023D01*
X235504223Y-115597023D02*
X235599461Y-115549404D01*
X235599461Y-115549404D02*
X235694700Y-115454166D01*
X235694700Y-115454166D02*
X235742319Y-115311309D01*
X235742319Y-115311309D02*
X235742319Y-115073214D01*
X234742319Y-115977976D02*
X234742319Y-116644642D01*
X234742319Y-116644642D02*
X235742319Y-116216071D01*
X234742319Y-117216071D02*
X234742319Y-117311309D01*
X234742319Y-117311309D02*
X234789938Y-117406547D01*
X234789938Y-117406547D02*
X234837557Y-117454166D01*
X234837557Y-117454166D02*
X234932795Y-117501785D01*
X234932795Y-117501785D02*
X235123271Y-117549404D01*
X235123271Y-117549404D02*
X235361366Y-117549404D01*
X235361366Y-117549404D02*
X235551842Y-117501785D01*
X235551842Y-117501785D02*
X235647080Y-117454166D01*
X235647080Y-117454166D02*
X235694700Y-117406547D01*
X235694700Y-117406547D02*
X235742319Y-117311309D01*
X235742319Y-117311309D02*
X235742319Y-117216071D01*
X235742319Y-117216071D02*
X235694700Y-117120833D01*
X235694700Y-117120833D02*
X235647080Y-117073214D01*
X235647080Y-117073214D02*
X235551842Y-117025595D01*
X235551842Y-117025595D02*
X235361366Y-116977976D01*
X235361366Y-116977976D02*
X235123271Y-116977976D01*
X235123271Y-116977976D02*
X234932795Y-117025595D01*
X234932795Y-117025595D02*
X234837557Y-117073214D01*
X234837557Y-117073214D02*
X234789938Y-117120833D01*
X234789938Y-117120833D02*
X234742319Y-117216071D01*
X230742319Y-58073214D02*
X229742319Y-58073214D01*
X229742319Y-58073214D02*
X229742319Y-58311309D01*
X229742319Y-58311309D02*
X229789938Y-58454166D01*
X229789938Y-58454166D02*
X229885176Y-58549404D01*
X229885176Y-58549404D02*
X229980414Y-58597023D01*
X229980414Y-58597023D02*
X230170890Y-58644642D01*
X230170890Y-58644642D02*
X230313747Y-58644642D01*
X230313747Y-58644642D02*
X230504223Y-58597023D01*
X230504223Y-58597023D02*
X230599461Y-58549404D01*
X230599461Y-58549404D02*
X230694700Y-58454166D01*
X230694700Y-58454166D02*
X230742319Y-58311309D01*
X230742319Y-58311309D02*
X230742319Y-58073214D01*
X229837557Y-59025595D02*
X229789938Y-59073214D01*
X229789938Y-59073214D02*
X229742319Y-59168452D01*
X229742319Y-59168452D02*
X229742319Y-59406547D01*
X229742319Y-59406547D02*
X229789938Y-59501785D01*
X229789938Y-59501785D02*
X229837557Y-59549404D01*
X229837557Y-59549404D02*
X229932795Y-59597023D01*
X229932795Y-59597023D02*
X230028033Y-59597023D01*
X230028033Y-59597023D02*
X230170890Y-59549404D01*
X230170890Y-59549404D02*
X230742319Y-58977976D01*
X230742319Y-58977976D02*
X230742319Y-59597023D01*
X229742319Y-59930357D02*
X229742319Y-60597023D01*
X229742319Y-60597023D02*
X230742319Y-60168452D01*
X59742319Y-39549405D02*
X58742319Y-39549405D01*
X58742319Y-39549405D02*
X58742319Y-39787500D01*
X58742319Y-39787500D02*
X58789938Y-39930357D01*
X58789938Y-39930357D02*
X58885176Y-40025595D01*
X58885176Y-40025595D02*
X58980414Y-40073214D01*
X58980414Y-40073214D02*
X59170890Y-40120833D01*
X59170890Y-40120833D02*
X59313747Y-40120833D01*
X59313747Y-40120833D02*
X59504223Y-40073214D01*
X59504223Y-40073214D02*
X59599461Y-40025595D01*
X59599461Y-40025595D02*
X59694700Y-39930357D01*
X59694700Y-39930357D02*
X59742319Y-39787500D01*
X59742319Y-39787500D02*
X59742319Y-39549405D01*
X58837557Y-40501786D02*
X58789938Y-40549405D01*
X58789938Y-40549405D02*
X58742319Y-40644643D01*
X58742319Y-40644643D02*
X58742319Y-40882738D01*
X58742319Y-40882738D02*
X58789938Y-40977976D01*
X58789938Y-40977976D02*
X58837557Y-41025595D01*
X58837557Y-41025595D02*
X58932795Y-41073214D01*
X58932795Y-41073214D02*
X59028033Y-41073214D01*
X59028033Y-41073214D02*
X59170890Y-41025595D01*
X59170890Y-41025595D02*
X59742319Y-40454167D01*
X59742319Y-40454167D02*
X59742319Y-41073214D01*
X135742319Y-58073214D02*
X134742319Y-58073214D01*
X134742319Y-58073214D02*
X134742319Y-58311309D01*
X134742319Y-58311309D02*
X134789938Y-58454166D01*
X134789938Y-58454166D02*
X134885176Y-58549404D01*
X134885176Y-58549404D02*
X134980414Y-58597023D01*
X134980414Y-58597023D02*
X135170890Y-58644642D01*
X135170890Y-58644642D02*
X135313747Y-58644642D01*
X135313747Y-58644642D02*
X135504223Y-58597023D01*
X135504223Y-58597023D02*
X135599461Y-58549404D01*
X135599461Y-58549404D02*
X135694700Y-58454166D01*
X135694700Y-58454166D02*
X135742319Y-58311309D01*
X135742319Y-58311309D02*
X135742319Y-58073214D01*
X134837557Y-59025595D02*
X134789938Y-59073214D01*
X134789938Y-59073214D02*
X134742319Y-59168452D01*
X134742319Y-59168452D02*
X134742319Y-59406547D01*
X134742319Y-59406547D02*
X134789938Y-59501785D01*
X134789938Y-59501785D02*
X134837557Y-59549404D01*
X134837557Y-59549404D02*
X134932795Y-59597023D01*
X134932795Y-59597023D02*
X135028033Y-59597023D01*
X135028033Y-59597023D02*
X135170890Y-59549404D01*
X135170890Y-59549404D02*
X135742319Y-58977976D01*
X135742319Y-58977976D02*
X135742319Y-59597023D01*
X134837557Y-59977976D02*
X134789938Y-60025595D01*
X134789938Y-60025595D02*
X134742319Y-60120833D01*
X134742319Y-60120833D02*
X134742319Y-60358928D01*
X134742319Y-60358928D02*
X134789938Y-60454166D01*
X134789938Y-60454166D02*
X134837557Y-60501785D01*
X134837557Y-60501785D02*
X134932795Y-60549404D01*
X134932795Y-60549404D02*
X135028033Y-60549404D01*
X135028033Y-60549404D02*
X135170890Y-60501785D01*
X135170890Y-60501785D02*
X135742319Y-59930357D01*
X135742319Y-59930357D02*
X135742319Y-60549404D01*
X225742319Y-96073214D02*
X224742319Y-96073214D01*
X224742319Y-96073214D02*
X224742319Y-96311309D01*
X224742319Y-96311309D02*
X224789938Y-96454166D01*
X224789938Y-96454166D02*
X224885176Y-96549404D01*
X224885176Y-96549404D02*
X224980414Y-96597023D01*
X224980414Y-96597023D02*
X225170890Y-96644642D01*
X225170890Y-96644642D02*
X225313747Y-96644642D01*
X225313747Y-96644642D02*
X225504223Y-96597023D01*
X225504223Y-96597023D02*
X225599461Y-96549404D01*
X225599461Y-96549404D02*
X225694700Y-96454166D01*
X225694700Y-96454166D02*
X225742319Y-96311309D01*
X225742319Y-96311309D02*
X225742319Y-96073214D01*
X224742319Y-97549404D02*
X224742319Y-97073214D01*
X224742319Y-97073214D02*
X225218509Y-97025595D01*
X225218509Y-97025595D02*
X225170890Y-97073214D01*
X225170890Y-97073214D02*
X225123271Y-97168452D01*
X225123271Y-97168452D02*
X225123271Y-97406547D01*
X225123271Y-97406547D02*
X225170890Y-97501785D01*
X225170890Y-97501785D02*
X225218509Y-97549404D01*
X225218509Y-97549404D02*
X225313747Y-97597023D01*
X225313747Y-97597023D02*
X225551842Y-97597023D01*
X225551842Y-97597023D02*
X225647080Y-97549404D01*
X225647080Y-97549404D02*
X225694700Y-97501785D01*
X225694700Y-97501785D02*
X225742319Y-97406547D01*
X225742319Y-97406547D02*
X225742319Y-97168452D01*
X225742319Y-97168452D02*
X225694700Y-97073214D01*
X225694700Y-97073214D02*
X225647080Y-97025595D01*
X224742319Y-98454166D02*
X224742319Y-98263690D01*
X224742319Y-98263690D02*
X224789938Y-98168452D01*
X224789938Y-98168452D02*
X224837557Y-98120833D01*
X224837557Y-98120833D02*
X224980414Y-98025595D01*
X224980414Y-98025595D02*
X225170890Y-97977976D01*
X225170890Y-97977976D02*
X225551842Y-97977976D01*
X225551842Y-97977976D02*
X225647080Y-98025595D01*
X225647080Y-98025595D02*
X225694700Y-98073214D01*
X225694700Y-98073214D02*
X225742319Y-98168452D01*
X225742319Y-98168452D02*
X225742319Y-98358928D01*
X225742319Y-98358928D02*
X225694700Y-98454166D01*
X225694700Y-98454166D02*
X225647080Y-98501785D01*
X225647080Y-98501785D02*
X225551842Y-98549404D01*
X225551842Y-98549404D02*
X225313747Y-98549404D01*
X225313747Y-98549404D02*
X225218509Y-98501785D01*
X225218509Y-98501785D02*
X225170890Y-98454166D01*
X225170890Y-98454166D02*
X225123271Y-98358928D01*
X225123271Y-98358928D02*
X225123271Y-98168452D01*
X225123271Y-98168452D02*
X225170890Y-98073214D01*
X225170890Y-98073214D02*
X225218509Y-98025595D01*
X225218509Y-98025595D02*
X225313747Y-97977976D01*
X249742319Y-58073214D02*
X248742319Y-58073214D01*
X248742319Y-58073214D02*
X248742319Y-58311309D01*
X248742319Y-58311309D02*
X248789938Y-58454166D01*
X248789938Y-58454166D02*
X248885176Y-58549404D01*
X248885176Y-58549404D02*
X248980414Y-58597023D01*
X248980414Y-58597023D02*
X249170890Y-58644642D01*
X249170890Y-58644642D02*
X249313747Y-58644642D01*
X249313747Y-58644642D02*
X249504223Y-58597023D01*
X249504223Y-58597023D02*
X249599461Y-58549404D01*
X249599461Y-58549404D02*
X249694700Y-58454166D01*
X249694700Y-58454166D02*
X249742319Y-58311309D01*
X249742319Y-58311309D02*
X249742319Y-58073214D01*
X248837557Y-59025595D02*
X248789938Y-59073214D01*
X248789938Y-59073214D02*
X248742319Y-59168452D01*
X248742319Y-59168452D02*
X248742319Y-59406547D01*
X248742319Y-59406547D02*
X248789938Y-59501785D01*
X248789938Y-59501785D02*
X248837557Y-59549404D01*
X248837557Y-59549404D02*
X248932795Y-59597023D01*
X248932795Y-59597023D02*
X249028033Y-59597023D01*
X249028033Y-59597023D02*
X249170890Y-59549404D01*
X249170890Y-59549404D02*
X249742319Y-58977976D01*
X249742319Y-58977976D02*
X249742319Y-59597023D01*
X249170890Y-60168452D02*
X249123271Y-60073214D01*
X249123271Y-60073214D02*
X249075652Y-60025595D01*
X249075652Y-60025595D02*
X248980414Y-59977976D01*
X248980414Y-59977976D02*
X248932795Y-59977976D01*
X248932795Y-59977976D02*
X248837557Y-60025595D01*
X248837557Y-60025595D02*
X248789938Y-60073214D01*
X248789938Y-60073214D02*
X248742319Y-60168452D01*
X248742319Y-60168452D02*
X248742319Y-60358928D01*
X248742319Y-60358928D02*
X248789938Y-60454166D01*
X248789938Y-60454166D02*
X248837557Y-60501785D01*
X248837557Y-60501785D02*
X248932795Y-60549404D01*
X248932795Y-60549404D02*
X248980414Y-60549404D01*
X248980414Y-60549404D02*
X249075652Y-60501785D01*
X249075652Y-60501785D02*
X249123271Y-60454166D01*
X249123271Y-60454166D02*
X249170890Y-60358928D01*
X249170890Y-60358928D02*
X249170890Y-60168452D01*
X249170890Y-60168452D02*
X249218509Y-60073214D01*
X249218509Y-60073214D02*
X249266128Y-60025595D01*
X249266128Y-60025595D02*
X249361366Y-59977976D01*
X249361366Y-59977976D02*
X249551842Y-59977976D01*
X249551842Y-59977976D02*
X249647080Y-60025595D01*
X249647080Y-60025595D02*
X249694700Y-60073214D01*
X249694700Y-60073214D02*
X249742319Y-60168452D01*
X249742319Y-60168452D02*
X249742319Y-60358928D01*
X249742319Y-60358928D02*
X249694700Y-60454166D01*
X249694700Y-60454166D02*
X249647080Y-60501785D01*
X249647080Y-60501785D02*
X249551842Y-60549404D01*
X249551842Y-60549404D02*
X249361366Y-60549404D01*
X249361366Y-60549404D02*
X249266128Y-60501785D01*
X249266128Y-60501785D02*
X249218509Y-60454166D01*
X249218509Y-60454166D02*
X249170890Y-60358928D01*
X211742319Y-39073214D02*
X210742319Y-39073214D01*
X210742319Y-39073214D02*
X210742319Y-39311309D01*
X210742319Y-39311309D02*
X210789938Y-39454166D01*
X210789938Y-39454166D02*
X210885176Y-39549404D01*
X210885176Y-39549404D02*
X210980414Y-39597023D01*
X210980414Y-39597023D02*
X211170890Y-39644642D01*
X211170890Y-39644642D02*
X211313747Y-39644642D01*
X211313747Y-39644642D02*
X211504223Y-39597023D01*
X211504223Y-39597023D02*
X211599461Y-39549404D01*
X211599461Y-39549404D02*
X211694700Y-39454166D01*
X211694700Y-39454166D02*
X211742319Y-39311309D01*
X211742319Y-39311309D02*
X211742319Y-39073214D01*
X211742319Y-40597023D02*
X211742319Y-40025595D01*
X211742319Y-40311309D02*
X210742319Y-40311309D01*
X210742319Y-40311309D02*
X210885176Y-40216071D01*
X210885176Y-40216071D02*
X210980414Y-40120833D01*
X210980414Y-40120833D02*
X211028033Y-40025595D01*
X210742319Y-41216071D02*
X210742319Y-41311309D01*
X210742319Y-41311309D02*
X210789938Y-41406547D01*
X210789938Y-41406547D02*
X210837557Y-41454166D01*
X210837557Y-41454166D02*
X210932795Y-41501785D01*
X210932795Y-41501785D02*
X211123271Y-41549404D01*
X211123271Y-41549404D02*
X211361366Y-41549404D01*
X211361366Y-41549404D02*
X211551842Y-41501785D01*
X211551842Y-41501785D02*
X211647080Y-41454166D01*
X211647080Y-41454166D02*
X211694700Y-41406547D01*
X211694700Y-41406547D02*
X211742319Y-41311309D01*
X211742319Y-41311309D02*
X211742319Y-41216071D01*
X211742319Y-41216071D02*
X211694700Y-41120833D01*
X211694700Y-41120833D02*
X211647080Y-41073214D01*
X211647080Y-41073214D02*
X211551842Y-41025595D01*
X211551842Y-41025595D02*
X211361366Y-40977976D01*
X211361366Y-40977976D02*
X211123271Y-40977976D01*
X211123271Y-40977976D02*
X210932795Y-41025595D01*
X210932795Y-41025595D02*
X210837557Y-41073214D01*
X210837557Y-41073214D02*
X210789938Y-41120833D01*
X210789938Y-41120833D02*
X210742319Y-41216071D01*
X263742319Y-96073214D02*
X262742319Y-96073214D01*
X262742319Y-96073214D02*
X262742319Y-96311309D01*
X262742319Y-96311309D02*
X262789938Y-96454166D01*
X262789938Y-96454166D02*
X262885176Y-96549404D01*
X262885176Y-96549404D02*
X262980414Y-96597023D01*
X262980414Y-96597023D02*
X263170890Y-96644642D01*
X263170890Y-96644642D02*
X263313747Y-96644642D01*
X263313747Y-96644642D02*
X263504223Y-96597023D01*
X263504223Y-96597023D02*
X263599461Y-96549404D01*
X263599461Y-96549404D02*
X263694700Y-96454166D01*
X263694700Y-96454166D02*
X263742319Y-96311309D01*
X263742319Y-96311309D02*
X263742319Y-96073214D01*
X262742319Y-97549404D02*
X262742319Y-97073214D01*
X262742319Y-97073214D02*
X263218509Y-97025595D01*
X263218509Y-97025595D02*
X263170890Y-97073214D01*
X263170890Y-97073214D02*
X263123271Y-97168452D01*
X263123271Y-97168452D02*
X263123271Y-97406547D01*
X263123271Y-97406547D02*
X263170890Y-97501785D01*
X263170890Y-97501785D02*
X263218509Y-97549404D01*
X263218509Y-97549404D02*
X263313747Y-97597023D01*
X263313747Y-97597023D02*
X263551842Y-97597023D01*
X263551842Y-97597023D02*
X263647080Y-97549404D01*
X263647080Y-97549404D02*
X263694700Y-97501785D01*
X263694700Y-97501785D02*
X263742319Y-97406547D01*
X263742319Y-97406547D02*
X263742319Y-97168452D01*
X263742319Y-97168452D02*
X263694700Y-97073214D01*
X263694700Y-97073214D02*
X263647080Y-97025595D01*
X263170890Y-98168452D02*
X263123271Y-98073214D01*
X263123271Y-98073214D02*
X263075652Y-98025595D01*
X263075652Y-98025595D02*
X262980414Y-97977976D01*
X262980414Y-97977976D02*
X262932795Y-97977976D01*
X262932795Y-97977976D02*
X262837557Y-98025595D01*
X262837557Y-98025595D02*
X262789938Y-98073214D01*
X262789938Y-98073214D02*
X262742319Y-98168452D01*
X262742319Y-98168452D02*
X262742319Y-98358928D01*
X262742319Y-98358928D02*
X262789938Y-98454166D01*
X262789938Y-98454166D02*
X262837557Y-98501785D01*
X262837557Y-98501785D02*
X262932795Y-98549404D01*
X262932795Y-98549404D02*
X262980414Y-98549404D01*
X262980414Y-98549404D02*
X263075652Y-98501785D01*
X263075652Y-98501785D02*
X263123271Y-98454166D01*
X263123271Y-98454166D02*
X263170890Y-98358928D01*
X263170890Y-98358928D02*
X263170890Y-98168452D01*
X263170890Y-98168452D02*
X263218509Y-98073214D01*
X263218509Y-98073214D02*
X263266128Y-98025595D01*
X263266128Y-98025595D02*
X263361366Y-97977976D01*
X263361366Y-97977976D02*
X263551842Y-97977976D01*
X263551842Y-97977976D02*
X263647080Y-98025595D01*
X263647080Y-98025595D02*
X263694700Y-98073214D01*
X263694700Y-98073214D02*
X263742319Y-98168452D01*
X263742319Y-98168452D02*
X263742319Y-98358928D01*
X263742319Y-98358928D02*
X263694700Y-98454166D01*
X263694700Y-98454166D02*
X263647080Y-98501785D01*
X263647080Y-98501785D02*
X263551842Y-98549404D01*
X263551842Y-98549404D02*
X263361366Y-98549404D01*
X263361366Y-98549404D02*
X263266128Y-98501785D01*
X263266128Y-98501785D02*
X263218509Y-98454166D01*
X263218509Y-98454166D02*
X263170890Y-98358928D01*
X120742319Y-115073214D02*
X119742319Y-115073214D01*
X119742319Y-115073214D02*
X119742319Y-115311309D01*
X119742319Y-115311309D02*
X119789938Y-115454166D01*
X119789938Y-115454166D02*
X119885176Y-115549404D01*
X119885176Y-115549404D02*
X119980414Y-115597023D01*
X119980414Y-115597023D02*
X120170890Y-115644642D01*
X120170890Y-115644642D02*
X120313747Y-115644642D01*
X120313747Y-115644642D02*
X120504223Y-115597023D01*
X120504223Y-115597023D02*
X120599461Y-115549404D01*
X120599461Y-115549404D02*
X120694700Y-115454166D01*
X120694700Y-115454166D02*
X120742319Y-115311309D01*
X120742319Y-115311309D02*
X120742319Y-115073214D01*
X119742319Y-116501785D02*
X119742319Y-116311309D01*
X119742319Y-116311309D02*
X119789938Y-116216071D01*
X119789938Y-116216071D02*
X119837557Y-116168452D01*
X119837557Y-116168452D02*
X119980414Y-116073214D01*
X119980414Y-116073214D02*
X120170890Y-116025595D01*
X120170890Y-116025595D02*
X120551842Y-116025595D01*
X120551842Y-116025595D02*
X120647080Y-116073214D01*
X120647080Y-116073214D02*
X120694700Y-116120833D01*
X120694700Y-116120833D02*
X120742319Y-116216071D01*
X120742319Y-116216071D02*
X120742319Y-116406547D01*
X120742319Y-116406547D02*
X120694700Y-116501785D01*
X120694700Y-116501785D02*
X120647080Y-116549404D01*
X120647080Y-116549404D02*
X120551842Y-116597023D01*
X120551842Y-116597023D02*
X120313747Y-116597023D01*
X120313747Y-116597023D02*
X120218509Y-116549404D01*
X120218509Y-116549404D02*
X120170890Y-116501785D01*
X120170890Y-116501785D02*
X120123271Y-116406547D01*
X120123271Y-116406547D02*
X120123271Y-116216071D01*
X120123271Y-116216071D02*
X120170890Y-116120833D01*
X120170890Y-116120833D02*
X120218509Y-116073214D01*
X120218509Y-116073214D02*
X120313747Y-116025595D01*
X120075652Y-117454166D02*
X120742319Y-117454166D01*
X119694700Y-117216071D02*
X120408985Y-116977976D01*
X120408985Y-116977976D02*
X120408985Y-117597023D01*
X230742319Y-39073214D02*
X229742319Y-39073214D01*
X229742319Y-39073214D02*
X229742319Y-39311309D01*
X229742319Y-39311309D02*
X229789938Y-39454166D01*
X229789938Y-39454166D02*
X229885176Y-39549404D01*
X229885176Y-39549404D02*
X229980414Y-39597023D01*
X229980414Y-39597023D02*
X230170890Y-39644642D01*
X230170890Y-39644642D02*
X230313747Y-39644642D01*
X230313747Y-39644642D02*
X230504223Y-39597023D01*
X230504223Y-39597023D02*
X230599461Y-39549404D01*
X230599461Y-39549404D02*
X230694700Y-39454166D01*
X230694700Y-39454166D02*
X230742319Y-39311309D01*
X230742319Y-39311309D02*
X230742319Y-39073214D01*
X230742319Y-40597023D02*
X230742319Y-40025595D01*
X230742319Y-40311309D02*
X229742319Y-40311309D01*
X229742319Y-40311309D02*
X229885176Y-40216071D01*
X229885176Y-40216071D02*
X229980414Y-40120833D01*
X229980414Y-40120833D02*
X230028033Y-40025595D01*
X230742319Y-41549404D02*
X230742319Y-40977976D01*
X230742319Y-41263690D02*
X229742319Y-41263690D01*
X229742319Y-41263690D02*
X229885176Y-41168452D01*
X229885176Y-41168452D02*
X229980414Y-41073214D01*
X229980414Y-41073214D02*
X230028033Y-40977976D01*
X220742319Y-77073214D02*
X219742319Y-77073214D01*
X219742319Y-77073214D02*
X219742319Y-77311309D01*
X219742319Y-77311309D02*
X219789938Y-77454166D01*
X219789938Y-77454166D02*
X219885176Y-77549404D01*
X219885176Y-77549404D02*
X219980414Y-77597023D01*
X219980414Y-77597023D02*
X220170890Y-77644642D01*
X220170890Y-77644642D02*
X220313747Y-77644642D01*
X220313747Y-77644642D02*
X220504223Y-77597023D01*
X220504223Y-77597023D02*
X220599461Y-77549404D01*
X220599461Y-77549404D02*
X220694700Y-77454166D01*
X220694700Y-77454166D02*
X220742319Y-77311309D01*
X220742319Y-77311309D02*
X220742319Y-77073214D01*
X220075652Y-78501785D02*
X220742319Y-78501785D01*
X219694700Y-78263690D02*
X220408985Y-78025595D01*
X220408985Y-78025595D02*
X220408985Y-78644642D01*
X220742319Y-79549404D02*
X220742319Y-78977976D01*
X220742319Y-79263690D02*
X219742319Y-79263690D01*
X219742319Y-79263690D02*
X219885176Y-79168452D01*
X219885176Y-79168452D02*
X219980414Y-79073214D01*
X219980414Y-79073214D02*
X220028033Y-78977976D01*
X82742319Y-115073214D02*
X81742319Y-115073214D01*
X81742319Y-115073214D02*
X81742319Y-115311309D01*
X81742319Y-115311309D02*
X81789938Y-115454166D01*
X81789938Y-115454166D02*
X81885176Y-115549404D01*
X81885176Y-115549404D02*
X81980414Y-115597023D01*
X81980414Y-115597023D02*
X82170890Y-115644642D01*
X82170890Y-115644642D02*
X82313747Y-115644642D01*
X82313747Y-115644642D02*
X82504223Y-115597023D01*
X82504223Y-115597023D02*
X82599461Y-115549404D01*
X82599461Y-115549404D02*
X82694700Y-115454166D01*
X82694700Y-115454166D02*
X82742319Y-115311309D01*
X82742319Y-115311309D02*
X82742319Y-115073214D01*
X81742319Y-116501785D02*
X81742319Y-116311309D01*
X81742319Y-116311309D02*
X81789938Y-116216071D01*
X81789938Y-116216071D02*
X81837557Y-116168452D01*
X81837557Y-116168452D02*
X81980414Y-116073214D01*
X81980414Y-116073214D02*
X82170890Y-116025595D01*
X82170890Y-116025595D02*
X82551842Y-116025595D01*
X82551842Y-116025595D02*
X82647080Y-116073214D01*
X82647080Y-116073214D02*
X82694700Y-116120833D01*
X82694700Y-116120833D02*
X82742319Y-116216071D01*
X82742319Y-116216071D02*
X82742319Y-116406547D01*
X82742319Y-116406547D02*
X82694700Y-116501785D01*
X82694700Y-116501785D02*
X82647080Y-116549404D01*
X82647080Y-116549404D02*
X82551842Y-116597023D01*
X82551842Y-116597023D02*
X82313747Y-116597023D01*
X82313747Y-116597023D02*
X82218509Y-116549404D01*
X82218509Y-116549404D02*
X82170890Y-116501785D01*
X82170890Y-116501785D02*
X82123271Y-116406547D01*
X82123271Y-116406547D02*
X82123271Y-116216071D01*
X82123271Y-116216071D02*
X82170890Y-116120833D01*
X82170890Y-116120833D02*
X82218509Y-116073214D01*
X82218509Y-116073214D02*
X82313747Y-116025595D01*
X81837557Y-116977976D02*
X81789938Y-117025595D01*
X81789938Y-117025595D02*
X81742319Y-117120833D01*
X81742319Y-117120833D02*
X81742319Y-117358928D01*
X81742319Y-117358928D02*
X81789938Y-117454166D01*
X81789938Y-117454166D02*
X81837557Y-117501785D01*
X81837557Y-117501785D02*
X81932795Y-117549404D01*
X81932795Y-117549404D02*
X82028033Y-117549404D01*
X82028033Y-117549404D02*
X82170890Y-117501785D01*
X82170890Y-117501785D02*
X82742319Y-116930357D01*
X82742319Y-116930357D02*
X82742319Y-117549404D01*
X111742319Y-96073214D02*
X110742319Y-96073214D01*
X110742319Y-96073214D02*
X110742319Y-96311309D01*
X110742319Y-96311309D02*
X110789938Y-96454166D01*
X110789938Y-96454166D02*
X110885176Y-96549404D01*
X110885176Y-96549404D02*
X110980414Y-96597023D01*
X110980414Y-96597023D02*
X111170890Y-96644642D01*
X111170890Y-96644642D02*
X111313747Y-96644642D01*
X111313747Y-96644642D02*
X111504223Y-96597023D01*
X111504223Y-96597023D02*
X111599461Y-96549404D01*
X111599461Y-96549404D02*
X111694700Y-96454166D01*
X111694700Y-96454166D02*
X111742319Y-96311309D01*
X111742319Y-96311309D02*
X111742319Y-96073214D01*
X110742319Y-97549404D02*
X110742319Y-97073214D01*
X110742319Y-97073214D02*
X111218509Y-97025595D01*
X111218509Y-97025595D02*
X111170890Y-97073214D01*
X111170890Y-97073214D02*
X111123271Y-97168452D01*
X111123271Y-97168452D02*
X111123271Y-97406547D01*
X111123271Y-97406547D02*
X111170890Y-97501785D01*
X111170890Y-97501785D02*
X111218509Y-97549404D01*
X111218509Y-97549404D02*
X111313747Y-97597023D01*
X111313747Y-97597023D02*
X111551842Y-97597023D01*
X111551842Y-97597023D02*
X111647080Y-97549404D01*
X111647080Y-97549404D02*
X111694700Y-97501785D01*
X111694700Y-97501785D02*
X111742319Y-97406547D01*
X111742319Y-97406547D02*
X111742319Y-97168452D01*
X111742319Y-97168452D02*
X111694700Y-97073214D01*
X111694700Y-97073214D02*
X111647080Y-97025595D01*
X110742319Y-98216071D02*
X110742319Y-98311309D01*
X110742319Y-98311309D02*
X110789938Y-98406547D01*
X110789938Y-98406547D02*
X110837557Y-98454166D01*
X110837557Y-98454166D02*
X110932795Y-98501785D01*
X110932795Y-98501785D02*
X111123271Y-98549404D01*
X111123271Y-98549404D02*
X111361366Y-98549404D01*
X111361366Y-98549404D02*
X111551842Y-98501785D01*
X111551842Y-98501785D02*
X111647080Y-98454166D01*
X111647080Y-98454166D02*
X111694700Y-98406547D01*
X111694700Y-98406547D02*
X111742319Y-98311309D01*
X111742319Y-98311309D02*
X111742319Y-98216071D01*
X111742319Y-98216071D02*
X111694700Y-98120833D01*
X111694700Y-98120833D02*
X111647080Y-98073214D01*
X111647080Y-98073214D02*
X111551842Y-98025595D01*
X111551842Y-98025595D02*
X111361366Y-97977976D01*
X111361366Y-97977976D02*
X111123271Y-97977976D01*
X111123271Y-97977976D02*
X110932795Y-98025595D01*
X110932795Y-98025595D02*
X110837557Y-98073214D01*
X110837557Y-98073214D02*
X110789938Y-98120833D01*
X110789938Y-98120833D02*
X110742319Y-98216071D01*
X230742319Y-134073214D02*
X229742319Y-134073214D01*
X229742319Y-134073214D02*
X229742319Y-134311309D01*
X229742319Y-134311309D02*
X229789938Y-134454166D01*
X229789938Y-134454166D02*
X229885176Y-134549404D01*
X229885176Y-134549404D02*
X229980414Y-134597023D01*
X229980414Y-134597023D02*
X230170890Y-134644642D01*
X230170890Y-134644642D02*
X230313747Y-134644642D01*
X230313747Y-134644642D02*
X230504223Y-134597023D01*
X230504223Y-134597023D02*
X230599461Y-134549404D01*
X230599461Y-134549404D02*
X230694700Y-134454166D01*
X230694700Y-134454166D02*
X230742319Y-134311309D01*
X230742319Y-134311309D02*
X230742319Y-134073214D01*
X229742319Y-134977976D02*
X229742319Y-135644642D01*
X229742319Y-135644642D02*
X230742319Y-135216071D01*
X230742319Y-136073214D02*
X230742319Y-136263690D01*
X230742319Y-136263690D02*
X230694700Y-136358928D01*
X230694700Y-136358928D02*
X230647080Y-136406547D01*
X230647080Y-136406547D02*
X230504223Y-136501785D01*
X230504223Y-136501785D02*
X230313747Y-136549404D01*
X230313747Y-136549404D02*
X229932795Y-136549404D01*
X229932795Y-136549404D02*
X229837557Y-136501785D01*
X229837557Y-136501785D02*
X229789938Y-136454166D01*
X229789938Y-136454166D02*
X229742319Y-136358928D01*
X229742319Y-136358928D02*
X229742319Y-136168452D01*
X229742319Y-136168452D02*
X229789938Y-136073214D01*
X229789938Y-136073214D02*
X229837557Y-136025595D01*
X229837557Y-136025595D02*
X229932795Y-135977976D01*
X229932795Y-135977976D02*
X230170890Y-135977976D01*
X230170890Y-135977976D02*
X230266128Y-136025595D01*
X230266128Y-136025595D02*
X230313747Y-136073214D01*
X230313747Y-136073214D02*
X230361366Y-136168452D01*
X230361366Y-136168452D02*
X230361366Y-136358928D01*
X230361366Y-136358928D02*
X230313747Y-136454166D01*
X230313747Y-136454166D02*
X230266128Y-136501785D01*
X230266128Y-136501785D02*
X230170890Y-136549404D01*
X68742319Y-77073214D02*
X67742319Y-77073214D01*
X67742319Y-77073214D02*
X67742319Y-77311309D01*
X67742319Y-77311309D02*
X67789938Y-77454166D01*
X67789938Y-77454166D02*
X67885176Y-77549404D01*
X67885176Y-77549404D02*
X67980414Y-77597023D01*
X67980414Y-77597023D02*
X68170890Y-77644642D01*
X68170890Y-77644642D02*
X68313747Y-77644642D01*
X68313747Y-77644642D02*
X68504223Y-77597023D01*
X68504223Y-77597023D02*
X68599461Y-77549404D01*
X68599461Y-77549404D02*
X68694700Y-77454166D01*
X68694700Y-77454166D02*
X68742319Y-77311309D01*
X68742319Y-77311309D02*
X68742319Y-77073214D01*
X67742319Y-77977976D02*
X67742319Y-78597023D01*
X67742319Y-78597023D02*
X68123271Y-78263690D01*
X68123271Y-78263690D02*
X68123271Y-78406547D01*
X68123271Y-78406547D02*
X68170890Y-78501785D01*
X68170890Y-78501785D02*
X68218509Y-78549404D01*
X68218509Y-78549404D02*
X68313747Y-78597023D01*
X68313747Y-78597023D02*
X68551842Y-78597023D01*
X68551842Y-78597023D02*
X68647080Y-78549404D01*
X68647080Y-78549404D02*
X68694700Y-78501785D01*
X68694700Y-78501785D02*
X68742319Y-78406547D01*
X68742319Y-78406547D02*
X68742319Y-78120833D01*
X68742319Y-78120833D02*
X68694700Y-78025595D01*
X68694700Y-78025595D02*
X68647080Y-77977976D01*
X67742319Y-78930357D02*
X67742319Y-79549404D01*
X67742319Y-79549404D02*
X68123271Y-79216071D01*
X68123271Y-79216071D02*
X68123271Y-79358928D01*
X68123271Y-79358928D02*
X68170890Y-79454166D01*
X68170890Y-79454166D02*
X68218509Y-79501785D01*
X68218509Y-79501785D02*
X68313747Y-79549404D01*
X68313747Y-79549404D02*
X68551842Y-79549404D01*
X68551842Y-79549404D02*
X68647080Y-79501785D01*
X68647080Y-79501785D02*
X68694700Y-79454166D01*
X68694700Y-79454166D02*
X68742319Y-79358928D01*
X68742319Y-79358928D02*
X68742319Y-79073214D01*
X68742319Y-79073214D02*
X68694700Y-78977976D01*
X68694700Y-78977976D02*
X68647080Y-78930357D01*
X49742319Y-77073214D02*
X48742319Y-77073214D01*
X48742319Y-77073214D02*
X48742319Y-77311309D01*
X48742319Y-77311309D02*
X48789938Y-77454166D01*
X48789938Y-77454166D02*
X48885176Y-77549404D01*
X48885176Y-77549404D02*
X48980414Y-77597023D01*
X48980414Y-77597023D02*
X49170890Y-77644642D01*
X49170890Y-77644642D02*
X49313747Y-77644642D01*
X49313747Y-77644642D02*
X49504223Y-77597023D01*
X49504223Y-77597023D02*
X49599461Y-77549404D01*
X49599461Y-77549404D02*
X49694700Y-77454166D01*
X49694700Y-77454166D02*
X49742319Y-77311309D01*
X49742319Y-77311309D02*
X49742319Y-77073214D01*
X48742319Y-77977976D02*
X48742319Y-78597023D01*
X48742319Y-78597023D02*
X49123271Y-78263690D01*
X49123271Y-78263690D02*
X49123271Y-78406547D01*
X49123271Y-78406547D02*
X49170890Y-78501785D01*
X49170890Y-78501785D02*
X49218509Y-78549404D01*
X49218509Y-78549404D02*
X49313747Y-78597023D01*
X49313747Y-78597023D02*
X49551842Y-78597023D01*
X49551842Y-78597023D02*
X49647080Y-78549404D01*
X49647080Y-78549404D02*
X49694700Y-78501785D01*
X49694700Y-78501785D02*
X49742319Y-78406547D01*
X49742319Y-78406547D02*
X49742319Y-78120833D01*
X49742319Y-78120833D02*
X49694700Y-78025595D01*
X49694700Y-78025595D02*
X49647080Y-77977976D01*
X48837557Y-78977976D02*
X48789938Y-79025595D01*
X48789938Y-79025595D02*
X48742319Y-79120833D01*
X48742319Y-79120833D02*
X48742319Y-79358928D01*
X48742319Y-79358928D02*
X48789938Y-79454166D01*
X48789938Y-79454166D02*
X48837557Y-79501785D01*
X48837557Y-79501785D02*
X48932795Y-79549404D01*
X48932795Y-79549404D02*
X49028033Y-79549404D01*
X49028033Y-79549404D02*
X49170890Y-79501785D01*
X49170890Y-79501785D02*
X49742319Y-78930357D01*
X49742319Y-78930357D02*
X49742319Y-79549404D01*
X325742319Y-58073214D02*
X324742319Y-58073214D01*
X324742319Y-58073214D02*
X324742319Y-58311309D01*
X324742319Y-58311309D02*
X324789938Y-58454166D01*
X324789938Y-58454166D02*
X324885176Y-58549404D01*
X324885176Y-58549404D02*
X324980414Y-58597023D01*
X324980414Y-58597023D02*
X325170890Y-58644642D01*
X325170890Y-58644642D02*
X325313747Y-58644642D01*
X325313747Y-58644642D02*
X325504223Y-58597023D01*
X325504223Y-58597023D02*
X325599461Y-58549404D01*
X325599461Y-58549404D02*
X325694700Y-58454166D01*
X325694700Y-58454166D02*
X325742319Y-58311309D01*
X325742319Y-58311309D02*
X325742319Y-58073214D01*
X324742319Y-58977976D02*
X324742319Y-59597023D01*
X324742319Y-59597023D02*
X325123271Y-59263690D01*
X325123271Y-59263690D02*
X325123271Y-59406547D01*
X325123271Y-59406547D02*
X325170890Y-59501785D01*
X325170890Y-59501785D02*
X325218509Y-59549404D01*
X325218509Y-59549404D02*
X325313747Y-59597023D01*
X325313747Y-59597023D02*
X325551842Y-59597023D01*
X325551842Y-59597023D02*
X325647080Y-59549404D01*
X325647080Y-59549404D02*
X325694700Y-59501785D01*
X325694700Y-59501785D02*
X325742319Y-59406547D01*
X325742319Y-59406547D02*
X325742319Y-59120833D01*
X325742319Y-59120833D02*
X325694700Y-59025595D01*
X325694700Y-59025595D02*
X325647080Y-58977976D01*
X325742319Y-60549404D02*
X325742319Y-59977976D01*
X325742319Y-60263690D02*
X324742319Y-60263690D01*
X324742319Y-60263690D02*
X324885176Y-60168452D01*
X324885176Y-60168452D02*
X324980414Y-60073214D01*
X324980414Y-60073214D02*
X325028033Y-59977976D01*
X78742319Y-39549405D02*
X77742319Y-39549405D01*
X77742319Y-39549405D02*
X77742319Y-39787500D01*
X77742319Y-39787500D02*
X77789938Y-39930357D01*
X77789938Y-39930357D02*
X77885176Y-40025595D01*
X77885176Y-40025595D02*
X77980414Y-40073214D01*
X77980414Y-40073214D02*
X78170890Y-40120833D01*
X78170890Y-40120833D02*
X78313747Y-40120833D01*
X78313747Y-40120833D02*
X78504223Y-40073214D01*
X78504223Y-40073214D02*
X78599461Y-40025595D01*
X78599461Y-40025595D02*
X78694700Y-39930357D01*
X78694700Y-39930357D02*
X78742319Y-39787500D01*
X78742319Y-39787500D02*
X78742319Y-39549405D01*
X77742319Y-40454167D02*
X77742319Y-41073214D01*
X77742319Y-41073214D02*
X78123271Y-40739881D01*
X78123271Y-40739881D02*
X78123271Y-40882738D01*
X78123271Y-40882738D02*
X78170890Y-40977976D01*
X78170890Y-40977976D02*
X78218509Y-41025595D01*
X78218509Y-41025595D02*
X78313747Y-41073214D01*
X78313747Y-41073214D02*
X78551842Y-41073214D01*
X78551842Y-41073214D02*
X78647080Y-41025595D01*
X78647080Y-41025595D02*
X78694700Y-40977976D01*
X78694700Y-40977976D02*
X78742319Y-40882738D01*
X78742319Y-40882738D02*
X78742319Y-40597024D01*
X78742319Y-40597024D02*
X78694700Y-40501786D01*
X78694700Y-40501786D02*
X78647080Y-40454167D01*
X197742319Y-115073214D02*
X196742319Y-115073214D01*
X196742319Y-115073214D02*
X196742319Y-115311309D01*
X196742319Y-115311309D02*
X196789938Y-115454166D01*
X196789938Y-115454166D02*
X196885176Y-115549404D01*
X196885176Y-115549404D02*
X196980414Y-115597023D01*
X196980414Y-115597023D02*
X197170890Y-115644642D01*
X197170890Y-115644642D02*
X197313747Y-115644642D01*
X197313747Y-115644642D02*
X197504223Y-115597023D01*
X197504223Y-115597023D02*
X197599461Y-115549404D01*
X197599461Y-115549404D02*
X197694700Y-115454166D01*
X197694700Y-115454166D02*
X197742319Y-115311309D01*
X197742319Y-115311309D02*
X197742319Y-115073214D01*
X196742319Y-116501785D02*
X196742319Y-116311309D01*
X196742319Y-116311309D02*
X196789938Y-116216071D01*
X196789938Y-116216071D02*
X196837557Y-116168452D01*
X196837557Y-116168452D02*
X196980414Y-116073214D01*
X196980414Y-116073214D02*
X197170890Y-116025595D01*
X197170890Y-116025595D02*
X197551842Y-116025595D01*
X197551842Y-116025595D02*
X197647080Y-116073214D01*
X197647080Y-116073214D02*
X197694700Y-116120833D01*
X197694700Y-116120833D02*
X197742319Y-116216071D01*
X197742319Y-116216071D02*
X197742319Y-116406547D01*
X197742319Y-116406547D02*
X197694700Y-116501785D01*
X197694700Y-116501785D02*
X197647080Y-116549404D01*
X197647080Y-116549404D02*
X197551842Y-116597023D01*
X197551842Y-116597023D02*
X197313747Y-116597023D01*
X197313747Y-116597023D02*
X197218509Y-116549404D01*
X197218509Y-116549404D02*
X197170890Y-116501785D01*
X197170890Y-116501785D02*
X197123271Y-116406547D01*
X197123271Y-116406547D02*
X197123271Y-116216071D01*
X197123271Y-116216071D02*
X197170890Y-116120833D01*
X197170890Y-116120833D02*
X197218509Y-116073214D01*
X197218509Y-116073214D02*
X197313747Y-116025595D01*
X197170890Y-117168452D02*
X197123271Y-117073214D01*
X197123271Y-117073214D02*
X197075652Y-117025595D01*
X197075652Y-117025595D02*
X196980414Y-116977976D01*
X196980414Y-116977976D02*
X196932795Y-116977976D01*
X196932795Y-116977976D02*
X196837557Y-117025595D01*
X196837557Y-117025595D02*
X196789938Y-117073214D01*
X196789938Y-117073214D02*
X196742319Y-117168452D01*
X196742319Y-117168452D02*
X196742319Y-117358928D01*
X196742319Y-117358928D02*
X196789938Y-117454166D01*
X196789938Y-117454166D02*
X196837557Y-117501785D01*
X196837557Y-117501785D02*
X196932795Y-117549404D01*
X196932795Y-117549404D02*
X196980414Y-117549404D01*
X196980414Y-117549404D02*
X197075652Y-117501785D01*
X197075652Y-117501785D02*
X197123271Y-117454166D01*
X197123271Y-117454166D02*
X197170890Y-117358928D01*
X197170890Y-117358928D02*
X197170890Y-117168452D01*
X197170890Y-117168452D02*
X197218509Y-117073214D01*
X197218509Y-117073214D02*
X197266128Y-117025595D01*
X197266128Y-117025595D02*
X197361366Y-116977976D01*
X197361366Y-116977976D02*
X197551842Y-116977976D01*
X197551842Y-116977976D02*
X197647080Y-117025595D01*
X197647080Y-117025595D02*
X197694700Y-117073214D01*
X197694700Y-117073214D02*
X197742319Y-117168452D01*
X197742319Y-117168452D02*
X197742319Y-117358928D01*
X197742319Y-117358928D02*
X197694700Y-117454166D01*
X197694700Y-117454166D02*
X197647080Y-117501785D01*
X197647080Y-117501785D02*
X197551842Y-117549404D01*
X197551842Y-117549404D02*
X197361366Y-117549404D01*
X197361366Y-117549404D02*
X197266128Y-117501785D01*
X197266128Y-117501785D02*
X197218509Y-117454166D01*
X197218509Y-117454166D02*
X197170890Y-117358928D01*
X130742319Y-96723214D02*
X129742319Y-96723214D01*
X129742319Y-96723214D02*
X129742319Y-96961309D01*
X129742319Y-96961309D02*
X129789938Y-97104166D01*
X129789938Y-97104166D02*
X129885176Y-97199404D01*
X129885176Y-97199404D02*
X129980414Y-97247023D01*
X129980414Y-97247023D02*
X130170890Y-97294642D01*
X130170890Y-97294642D02*
X130313747Y-97294642D01*
X130313747Y-97294642D02*
X130504223Y-97247023D01*
X130504223Y-97247023D02*
X130599461Y-97199404D01*
X130599461Y-97199404D02*
X130694700Y-97104166D01*
X130694700Y-97104166D02*
X130742319Y-96961309D01*
X130742319Y-96961309D02*
X130742319Y-96723214D01*
X129742319Y-98199404D02*
X129742319Y-97723214D01*
X129742319Y-97723214D02*
X130218509Y-97675595D01*
X130218509Y-97675595D02*
X130170890Y-97723214D01*
X130170890Y-97723214D02*
X130123271Y-97818452D01*
X130123271Y-97818452D02*
X130123271Y-98056547D01*
X130123271Y-98056547D02*
X130170890Y-98151785D01*
X130170890Y-98151785D02*
X130218509Y-98199404D01*
X130218509Y-98199404D02*
X130313747Y-98247023D01*
X130313747Y-98247023D02*
X130551842Y-98247023D01*
X130551842Y-98247023D02*
X130647080Y-98199404D01*
X130647080Y-98199404D02*
X130694700Y-98151785D01*
X130694700Y-98151785D02*
X130742319Y-98056547D01*
X130742319Y-98056547D02*
X130742319Y-97818452D01*
X130742319Y-97818452D02*
X130694700Y-97723214D01*
X130694700Y-97723214D02*
X130647080Y-97675595D01*
X130742319Y-99199404D02*
X130742319Y-98627976D01*
X130742319Y-98913690D02*
X129742319Y-98913690D01*
X129742319Y-98913690D02*
X129885176Y-98818452D01*
X129885176Y-98818452D02*
X129980414Y-98723214D01*
X129980414Y-98723214D02*
X130028033Y-98627976D01*
X144742319Y-77073214D02*
X143742319Y-77073214D01*
X143742319Y-77073214D02*
X143742319Y-77311309D01*
X143742319Y-77311309D02*
X143789938Y-77454166D01*
X143789938Y-77454166D02*
X143885176Y-77549404D01*
X143885176Y-77549404D02*
X143980414Y-77597023D01*
X143980414Y-77597023D02*
X144170890Y-77644642D01*
X144170890Y-77644642D02*
X144313747Y-77644642D01*
X144313747Y-77644642D02*
X144504223Y-77597023D01*
X144504223Y-77597023D02*
X144599461Y-77549404D01*
X144599461Y-77549404D02*
X144694700Y-77454166D01*
X144694700Y-77454166D02*
X144742319Y-77311309D01*
X144742319Y-77311309D02*
X144742319Y-77073214D01*
X143742319Y-77977976D02*
X143742319Y-78597023D01*
X143742319Y-78597023D02*
X144123271Y-78263690D01*
X144123271Y-78263690D02*
X144123271Y-78406547D01*
X144123271Y-78406547D02*
X144170890Y-78501785D01*
X144170890Y-78501785D02*
X144218509Y-78549404D01*
X144218509Y-78549404D02*
X144313747Y-78597023D01*
X144313747Y-78597023D02*
X144551842Y-78597023D01*
X144551842Y-78597023D02*
X144647080Y-78549404D01*
X144647080Y-78549404D02*
X144694700Y-78501785D01*
X144694700Y-78501785D02*
X144742319Y-78406547D01*
X144742319Y-78406547D02*
X144742319Y-78120833D01*
X144742319Y-78120833D02*
X144694700Y-78025595D01*
X144694700Y-78025595D02*
X144647080Y-77977976D01*
X143742319Y-78930357D02*
X143742319Y-79597023D01*
X143742319Y-79597023D02*
X144742319Y-79168452D01*
X258742319Y-77073214D02*
X257742319Y-77073214D01*
X257742319Y-77073214D02*
X257742319Y-77311309D01*
X257742319Y-77311309D02*
X257789938Y-77454166D01*
X257789938Y-77454166D02*
X257885176Y-77549404D01*
X257885176Y-77549404D02*
X257980414Y-77597023D01*
X257980414Y-77597023D02*
X258170890Y-77644642D01*
X258170890Y-77644642D02*
X258313747Y-77644642D01*
X258313747Y-77644642D02*
X258504223Y-77597023D01*
X258504223Y-77597023D02*
X258599461Y-77549404D01*
X258599461Y-77549404D02*
X258694700Y-77454166D01*
X258694700Y-77454166D02*
X258742319Y-77311309D01*
X258742319Y-77311309D02*
X258742319Y-77073214D01*
X258075652Y-78501785D02*
X258742319Y-78501785D01*
X257694700Y-78263690D02*
X258408985Y-78025595D01*
X258408985Y-78025595D02*
X258408985Y-78644642D01*
X257742319Y-78930357D02*
X257742319Y-79549404D01*
X257742319Y-79549404D02*
X258123271Y-79216071D01*
X258123271Y-79216071D02*
X258123271Y-79358928D01*
X258123271Y-79358928D02*
X258170890Y-79454166D01*
X258170890Y-79454166D02*
X258218509Y-79501785D01*
X258218509Y-79501785D02*
X258313747Y-79549404D01*
X258313747Y-79549404D02*
X258551842Y-79549404D01*
X258551842Y-79549404D02*
X258647080Y-79501785D01*
X258647080Y-79501785D02*
X258694700Y-79454166D01*
X258694700Y-79454166D02*
X258742319Y-79358928D01*
X258742319Y-79358928D02*
X258742319Y-79073214D01*
X258742319Y-79073214D02*
X258694700Y-78977976D01*
X258694700Y-78977976D02*
X258647080Y-78930357D01*
X268742319Y-39073214D02*
X267742319Y-39073214D01*
X267742319Y-39073214D02*
X267742319Y-39311309D01*
X267742319Y-39311309D02*
X267789938Y-39454166D01*
X267789938Y-39454166D02*
X267885176Y-39549404D01*
X267885176Y-39549404D02*
X267980414Y-39597023D01*
X267980414Y-39597023D02*
X268170890Y-39644642D01*
X268170890Y-39644642D02*
X268313747Y-39644642D01*
X268313747Y-39644642D02*
X268504223Y-39597023D01*
X268504223Y-39597023D02*
X268599461Y-39549404D01*
X268599461Y-39549404D02*
X268694700Y-39454166D01*
X268694700Y-39454166D02*
X268742319Y-39311309D01*
X268742319Y-39311309D02*
X268742319Y-39073214D01*
X268742319Y-40597023D02*
X268742319Y-40025595D01*
X268742319Y-40311309D02*
X267742319Y-40311309D01*
X267742319Y-40311309D02*
X267885176Y-40216071D01*
X267885176Y-40216071D02*
X267980414Y-40120833D01*
X267980414Y-40120833D02*
X268028033Y-40025595D01*
X267742319Y-40930357D02*
X267742319Y-41549404D01*
X267742319Y-41549404D02*
X268123271Y-41216071D01*
X268123271Y-41216071D02*
X268123271Y-41358928D01*
X268123271Y-41358928D02*
X268170890Y-41454166D01*
X268170890Y-41454166D02*
X268218509Y-41501785D01*
X268218509Y-41501785D02*
X268313747Y-41549404D01*
X268313747Y-41549404D02*
X268551842Y-41549404D01*
X268551842Y-41549404D02*
X268647080Y-41501785D01*
X268647080Y-41501785D02*
X268694700Y-41454166D01*
X268694700Y-41454166D02*
X268742319Y-41358928D01*
X268742319Y-41358928D02*
X268742319Y-41073214D01*
X268742319Y-41073214D02*
X268694700Y-40977976D01*
X268694700Y-40977976D02*
X268647080Y-40930357D01*
X173742319Y-39549405D02*
X172742319Y-39549405D01*
X172742319Y-39549405D02*
X172742319Y-39787500D01*
X172742319Y-39787500D02*
X172789938Y-39930357D01*
X172789938Y-39930357D02*
X172885176Y-40025595D01*
X172885176Y-40025595D02*
X172980414Y-40073214D01*
X172980414Y-40073214D02*
X173170890Y-40120833D01*
X173170890Y-40120833D02*
X173313747Y-40120833D01*
X173313747Y-40120833D02*
X173504223Y-40073214D01*
X173504223Y-40073214D02*
X173599461Y-40025595D01*
X173599461Y-40025595D02*
X173694700Y-39930357D01*
X173694700Y-39930357D02*
X173742319Y-39787500D01*
X173742319Y-39787500D02*
X173742319Y-39549405D01*
X173170890Y-40692262D02*
X173123271Y-40597024D01*
X173123271Y-40597024D02*
X173075652Y-40549405D01*
X173075652Y-40549405D02*
X172980414Y-40501786D01*
X172980414Y-40501786D02*
X172932795Y-40501786D01*
X172932795Y-40501786D02*
X172837557Y-40549405D01*
X172837557Y-40549405D02*
X172789938Y-40597024D01*
X172789938Y-40597024D02*
X172742319Y-40692262D01*
X172742319Y-40692262D02*
X172742319Y-40882738D01*
X172742319Y-40882738D02*
X172789938Y-40977976D01*
X172789938Y-40977976D02*
X172837557Y-41025595D01*
X172837557Y-41025595D02*
X172932795Y-41073214D01*
X172932795Y-41073214D02*
X172980414Y-41073214D01*
X172980414Y-41073214D02*
X173075652Y-41025595D01*
X173075652Y-41025595D02*
X173123271Y-40977976D01*
X173123271Y-40977976D02*
X173170890Y-40882738D01*
X173170890Y-40882738D02*
X173170890Y-40692262D01*
X173170890Y-40692262D02*
X173218509Y-40597024D01*
X173218509Y-40597024D02*
X173266128Y-40549405D01*
X173266128Y-40549405D02*
X173361366Y-40501786D01*
X173361366Y-40501786D02*
X173551842Y-40501786D01*
X173551842Y-40501786D02*
X173647080Y-40549405D01*
X173647080Y-40549405D02*
X173694700Y-40597024D01*
X173694700Y-40597024D02*
X173742319Y-40692262D01*
X173742319Y-40692262D02*
X173742319Y-40882738D01*
X173742319Y-40882738D02*
X173694700Y-40977976D01*
X173694700Y-40977976D02*
X173647080Y-41025595D01*
X173647080Y-41025595D02*
X173551842Y-41073214D01*
X173551842Y-41073214D02*
X173361366Y-41073214D01*
X173361366Y-41073214D02*
X173266128Y-41025595D01*
X173266128Y-41025595D02*
X173218509Y-40977976D01*
X173218509Y-40977976D02*
X173170890Y-40882738D01*
X325742319Y-115073214D02*
X324742319Y-115073214D01*
X324742319Y-115073214D02*
X324742319Y-115311309D01*
X324742319Y-115311309D02*
X324789938Y-115454166D01*
X324789938Y-115454166D02*
X324885176Y-115549404D01*
X324885176Y-115549404D02*
X324980414Y-115597023D01*
X324980414Y-115597023D02*
X325170890Y-115644642D01*
X325170890Y-115644642D02*
X325313747Y-115644642D01*
X325313747Y-115644642D02*
X325504223Y-115597023D01*
X325504223Y-115597023D02*
X325599461Y-115549404D01*
X325599461Y-115549404D02*
X325694700Y-115454166D01*
X325694700Y-115454166D02*
X325742319Y-115311309D01*
X325742319Y-115311309D02*
X325742319Y-115073214D01*
X324742319Y-115977976D02*
X324742319Y-116644642D01*
X324742319Y-116644642D02*
X325742319Y-116216071D01*
X325075652Y-117454166D02*
X325742319Y-117454166D01*
X324694700Y-117216071D02*
X325408985Y-116977976D01*
X325408985Y-116977976D02*
X325408985Y-117597023D01*
X135742319Y-39549405D02*
X134742319Y-39549405D01*
X134742319Y-39549405D02*
X134742319Y-39787500D01*
X134742319Y-39787500D02*
X134789938Y-39930357D01*
X134789938Y-39930357D02*
X134885176Y-40025595D01*
X134885176Y-40025595D02*
X134980414Y-40073214D01*
X134980414Y-40073214D02*
X135170890Y-40120833D01*
X135170890Y-40120833D02*
X135313747Y-40120833D01*
X135313747Y-40120833D02*
X135504223Y-40073214D01*
X135504223Y-40073214D02*
X135599461Y-40025595D01*
X135599461Y-40025595D02*
X135694700Y-39930357D01*
X135694700Y-39930357D02*
X135742319Y-39787500D01*
X135742319Y-39787500D02*
X135742319Y-39549405D01*
X134742319Y-40977976D02*
X134742319Y-40787500D01*
X134742319Y-40787500D02*
X134789938Y-40692262D01*
X134789938Y-40692262D02*
X134837557Y-40644643D01*
X134837557Y-40644643D02*
X134980414Y-40549405D01*
X134980414Y-40549405D02*
X135170890Y-40501786D01*
X135170890Y-40501786D02*
X135551842Y-40501786D01*
X135551842Y-40501786D02*
X135647080Y-40549405D01*
X135647080Y-40549405D02*
X135694700Y-40597024D01*
X135694700Y-40597024D02*
X135742319Y-40692262D01*
X135742319Y-40692262D02*
X135742319Y-40882738D01*
X135742319Y-40882738D02*
X135694700Y-40977976D01*
X135694700Y-40977976D02*
X135647080Y-41025595D01*
X135647080Y-41025595D02*
X135551842Y-41073214D01*
X135551842Y-41073214D02*
X135313747Y-41073214D01*
X135313747Y-41073214D02*
X135218509Y-41025595D01*
X135218509Y-41025595D02*
X135170890Y-40977976D01*
X135170890Y-40977976D02*
X135123271Y-40882738D01*
X135123271Y-40882738D02*
X135123271Y-40692262D01*
X135123271Y-40692262D02*
X135170890Y-40597024D01*
X135170890Y-40597024D02*
X135218509Y-40549405D01*
X135218509Y-40549405D02*
X135313747Y-40501786D01*
X154092319Y-39549405D02*
X153092319Y-39549405D01*
X153092319Y-39549405D02*
X153092319Y-39787500D01*
X153092319Y-39787500D02*
X153139938Y-39930357D01*
X153139938Y-39930357D02*
X153235176Y-40025595D01*
X153235176Y-40025595D02*
X153330414Y-40073214D01*
X153330414Y-40073214D02*
X153520890Y-40120833D01*
X153520890Y-40120833D02*
X153663747Y-40120833D01*
X153663747Y-40120833D02*
X153854223Y-40073214D01*
X153854223Y-40073214D02*
X153949461Y-40025595D01*
X153949461Y-40025595D02*
X154044700Y-39930357D01*
X154044700Y-39930357D02*
X154092319Y-39787500D01*
X154092319Y-39787500D02*
X154092319Y-39549405D01*
X153092319Y-40454167D02*
X153092319Y-41120833D01*
X153092319Y-41120833D02*
X154092319Y-40692262D01*
X182742319Y-77073214D02*
X181742319Y-77073214D01*
X181742319Y-77073214D02*
X181742319Y-77311309D01*
X181742319Y-77311309D02*
X181789938Y-77454166D01*
X181789938Y-77454166D02*
X181885176Y-77549404D01*
X181885176Y-77549404D02*
X181980414Y-77597023D01*
X181980414Y-77597023D02*
X182170890Y-77644642D01*
X182170890Y-77644642D02*
X182313747Y-77644642D01*
X182313747Y-77644642D02*
X182504223Y-77597023D01*
X182504223Y-77597023D02*
X182599461Y-77549404D01*
X182599461Y-77549404D02*
X182694700Y-77454166D01*
X182694700Y-77454166D02*
X182742319Y-77311309D01*
X182742319Y-77311309D02*
X182742319Y-77073214D01*
X181742319Y-77977976D02*
X181742319Y-78597023D01*
X181742319Y-78597023D02*
X182123271Y-78263690D01*
X182123271Y-78263690D02*
X182123271Y-78406547D01*
X182123271Y-78406547D02*
X182170890Y-78501785D01*
X182170890Y-78501785D02*
X182218509Y-78549404D01*
X182218509Y-78549404D02*
X182313747Y-78597023D01*
X182313747Y-78597023D02*
X182551842Y-78597023D01*
X182551842Y-78597023D02*
X182647080Y-78549404D01*
X182647080Y-78549404D02*
X182694700Y-78501785D01*
X182694700Y-78501785D02*
X182742319Y-78406547D01*
X182742319Y-78406547D02*
X182742319Y-78120833D01*
X182742319Y-78120833D02*
X182694700Y-78025595D01*
X182694700Y-78025595D02*
X182647080Y-77977976D01*
X182742319Y-79073214D02*
X182742319Y-79263690D01*
X182742319Y-79263690D02*
X182694700Y-79358928D01*
X182694700Y-79358928D02*
X182647080Y-79406547D01*
X182647080Y-79406547D02*
X182504223Y-79501785D01*
X182504223Y-79501785D02*
X182313747Y-79549404D01*
X182313747Y-79549404D02*
X181932795Y-79549404D01*
X181932795Y-79549404D02*
X181837557Y-79501785D01*
X181837557Y-79501785D02*
X181789938Y-79454166D01*
X181789938Y-79454166D02*
X181742319Y-79358928D01*
X181742319Y-79358928D02*
X181742319Y-79168452D01*
X181742319Y-79168452D02*
X181789938Y-79073214D01*
X181789938Y-79073214D02*
X181837557Y-79025595D01*
X181837557Y-79025595D02*
X181932795Y-78977976D01*
X181932795Y-78977976D02*
X182170890Y-78977976D01*
X182170890Y-78977976D02*
X182266128Y-79025595D01*
X182266128Y-79025595D02*
X182313747Y-79073214D01*
X182313747Y-79073214D02*
X182361366Y-79168452D01*
X182361366Y-79168452D02*
X182361366Y-79358928D01*
X182361366Y-79358928D02*
X182313747Y-79454166D01*
X182313747Y-79454166D02*
X182266128Y-79501785D01*
X182266128Y-79501785D02*
X182170890Y-79549404D01*
X39742319Y-58073214D02*
X38742319Y-58073214D01*
X38742319Y-58073214D02*
X38742319Y-58311309D01*
X38742319Y-58311309D02*
X38789938Y-58454166D01*
X38789938Y-58454166D02*
X38885176Y-58549404D01*
X38885176Y-58549404D02*
X38980414Y-58597023D01*
X38980414Y-58597023D02*
X39170890Y-58644642D01*
X39170890Y-58644642D02*
X39313747Y-58644642D01*
X39313747Y-58644642D02*
X39504223Y-58597023D01*
X39504223Y-58597023D02*
X39599461Y-58549404D01*
X39599461Y-58549404D02*
X39694700Y-58454166D01*
X39694700Y-58454166D02*
X39742319Y-58311309D01*
X39742319Y-58311309D02*
X39742319Y-58073214D01*
X39742319Y-59597023D02*
X39742319Y-59025595D01*
X39742319Y-59311309D02*
X38742319Y-59311309D01*
X38742319Y-59311309D02*
X38885176Y-59216071D01*
X38885176Y-59216071D02*
X38980414Y-59120833D01*
X38980414Y-59120833D02*
X39028033Y-59025595D01*
X38742319Y-59930357D02*
X38742319Y-60597023D01*
X38742319Y-60597023D02*
X39742319Y-60168452D01*
X249742319Y-39073214D02*
X248742319Y-39073214D01*
X248742319Y-39073214D02*
X248742319Y-39311309D01*
X248742319Y-39311309D02*
X248789938Y-39454166D01*
X248789938Y-39454166D02*
X248885176Y-39549404D01*
X248885176Y-39549404D02*
X248980414Y-39597023D01*
X248980414Y-39597023D02*
X249170890Y-39644642D01*
X249170890Y-39644642D02*
X249313747Y-39644642D01*
X249313747Y-39644642D02*
X249504223Y-39597023D01*
X249504223Y-39597023D02*
X249599461Y-39549404D01*
X249599461Y-39549404D02*
X249694700Y-39454166D01*
X249694700Y-39454166D02*
X249742319Y-39311309D01*
X249742319Y-39311309D02*
X249742319Y-39073214D01*
X249742319Y-40597023D02*
X249742319Y-40025595D01*
X249742319Y-40311309D02*
X248742319Y-40311309D01*
X248742319Y-40311309D02*
X248885176Y-40216071D01*
X248885176Y-40216071D02*
X248980414Y-40120833D01*
X248980414Y-40120833D02*
X249028033Y-40025595D01*
X248837557Y-40977976D02*
X248789938Y-41025595D01*
X248789938Y-41025595D02*
X248742319Y-41120833D01*
X248742319Y-41120833D02*
X248742319Y-41358928D01*
X248742319Y-41358928D02*
X248789938Y-41454166D01*
X248789938Y-41454166D02*
X248837557Y-41501785D01*
X248837557Y-41501785D02*
X248932795Y-41549404D01*
X248932795Y-41549404D02*
X249028033Y-41549404D01*
X249028033Y-41549404D02*
X249170890Y-41501785D01*
X249170890Y-41501785D02*
X249742319Y-40930357D01*
X249742319Y-40930357D02*
X249742319Y-41549404D01*
X268742319Y-58073214D02*
X267742319Y-58073214D01*
X267742319Y-58073214D02*
X267742319Y-58311309D01*
X267742319Y-58311309D02*
X267789938Y-58454166D01*
X267789938Y-58454166D02*
X267885176Y-58549404D01*
X267885176Y-58549404D02*
X267980414Y-58597023D01*
X267980414Y-58597023D02*
X268170890Y-58644642D01*
X268170890Y-58644642D02*
X268313747Y-58644642D01*
X268313747Y-58644642D02*
X268504223Y-58597023D01*
X268504223Y-58597023D02*
X268599461Y-58549404D01*
X268599461Y-58549404D02*
X268694700Y-58454166D01*
X268694700Y-58454166D02*
X268742319Y-58311309D01*
X268742319Y-58311309D02*
X268742319Y-58073214D01*
X267837557Y-59025595D02*
X267789938Y-59073214D01*
X267789938Y-59073214D02*
X267742319Y-59168452D01*
X267742319Y-59168452D02*
X267742319Y-59406547D01*
X267742319Y-59406547D02*
X267789938Y-59501785D01*
X267789938Y-59501785D02*
X267837557Y-59549404D01*
X267837557Y-59549404D02*
X267932795Y-59597023D01*
X267932795Y-59597023D02*
X268028033Y-59597023D01*
X268028033Y-59597023D02*
X268170890Y-59549404D01*
X268170890Y-59549404D02*
X268742319Y-58977976D01*
X268742319Y-58977976D02*
X268742319Y-59597023D01*
X268742319Y-60073214D02*
X268742319Y-60263690D01*
X268742319Y-60263690D02*
X268694700Y-60358928D01*
X268694700Y-60358928D02*
X268647080Y-60406547D01*
X268647080Y-60406547D02*
X268504223Y-60501785D01*
X268504223Y-60501785D02*
X268313747Y-60549404D01*
X268313747Y-60549404D02*
X267932795Y-60549404D01*
X267932795Y-60549404D02*
X267837557Y-60501785D01*
X267837557Y-60501785D02*
X267789938Y-60454166D01*
X267789938Y-60454166D02*
X267742319Y-60358928D01*
X267742319Y-60358928D02*
X267742319Y-60168452D01*
X267742319Y-60168452D02*
X267789938Y-60073214D01*
X267789938Y-60073214D02*
X267837557Y-60025595D01*
X267837557Y-60025595D02*
X267932795Y-59977976D01*
X267932795Y-59977976D02*
X268170890Y-59977976D01*
X268170890Y-59977976D02*
X268266128Y-60025595D01*
X268266128Y-60025595D02*
X268313747Y-60073214D01*
X268313747Y-60073214D02*
X268361366Y-60168452D01*
X268361366Y-60168452D02*
X268361366Y-60358928D01*
X268361366Y-60358928D02*
X268313747Y-60454166D01*
X268313747Y-60454166D02*
X268266128Y-60501785D01*
X268266128Y-60501785D02*
X268170890Y-60549404D01*
X254742319Y-116073214D02*
X253742319Y-116073214D01*
X253742319Y-116073214D02*
X253742319Y-116311309D01*
X253742319Y-116311309D02*
X253789938Y-116454166D01*
X253789938Y-116454166D02*
X253885176Y-116549404D01*
X253885176Y-116549404D02*
X253980414Y-116597023D01*
X253980414Y-116597023D02*
X254170890Y-116644642D01*
X254170890Y-116644642D02*
X254313747Y-116644642D01*
X254313747Y-116644642D02*
X254504223Y-116597023D01*
X254504223Y-116597023D02*
X254599461Y-116549404D01*
X254599461Y-116549404D02*
X254694700Y-116454166D01*
X254694700Y-116454166D02*
X254742319Y-116311309D01*
X254742319Y-116311309D02*
X254742319Y-116073214D01*
X253742319Y-116977976D02*
X253742319Y-117644642D01*
X253742319Y-117644642D02*
X254742319Y-117216071D01*
X254742319Y-118549404D02*
X254742319Y-117977976D01*
X254742319Y-118263690D02*
X253742319Y-118263690D01*
X253742319Y-118263690D02*
X253885176Y-118168452D01*
X253885176Y-118168452D02*
X253980414Y-118073214D01*
X253980414Y-118073214D02*
X254028033Y-117977976D01*
X154742319Y-58073214D02*
X153742319Y-58073214D01*
X153742319Y-58073214D02*
X153742319Y-58311309D01*
X153742319Y-58311309D02*
X153789938Y-58454166D01*
X153789938Y-58454166D02*
X153885176Y-58549404D01*
X153885176Y-58549404D02*
X153980414Y-58597023D01*
X153980414Y-58597023D02*
X154170890Y-58644642D01*
X154170890Y-58644642D02*
X154313747Y-58644642D01*
X154313747Y-58644642D02*
X154504223Y-58597023D01*
X154504223Y-58597023D02*
X154599461Y-58549404D01*
X154599461Y-58549404D02*
X154694700Y-58454166D01*
X154694700Y-58454166D02*
X154742319Y-58311309D01*
X154742319Y-58311309D02*
X154742319Y-58073214D01*
X153837557Y-59025595D02*
X153789938Y-59073214D01*
X153789938Y-59073214D02*
X153742319Y-59168452D01*
X153742319Y-59168452D02*
X153742319Y-59406547D01*
X153742319Y-59406547D02*
X153789938Y-59501785D01*
X153789938Y-59501785D02*
X153837557Y-59549404D01*
X153837557Y-59549404D02*
X153932795Y-59597023D01*
X153932795Y-59597023D02*
X154028033Y-59597023D01*
X154028033Y-59597023D02*
X154170890Y-59549404D01*
X154170890Y-59549404D02*
X154742319Y-58977976D01*
X154742319Y-58977976D02*
X154742319Y-59597023D01*
X153742319Y-59930357D02*
X153742319Y-60549404D01*
X153742319Y-60549404D02*
X154123271Y-60216071D01*
X154123271Y-60216071D02*
X154123271Y-60358928D01*
X154123271Y-60358928D02*
X154170890Y-60454166D01*
X154170890Y-60454166D02*
X154218509Y-60501785D01*
X154218509Y-60501785D02*
X154313747Y-60549404D01*
X154313747Y-60549404D02*
X154551842Y-60549404D01*
X154551842Y-60549404D02*
X154647080Y-60501785D01*
X154647080Y-60501785D02*
X154694700Y-60454166D01*
X154694700Y-60454166D02*
X154742319Y-60358928D01*
X154742319Y-60358928D02*
X154742319Y-60073214D01*
X154742319Y-60073214D02*
X154694700Y-59977976D01*
X154694700Y-59977976D02*
X154647080Y-59930357D01*
X216742319Y-115073214D02*
X215742319Y-115073214D01*
X215742319Y-115073214D02*
X215742319Y-115311309D01*
X215742319Y-115311309D02*
X215789938Y-115454166D01*
X215789938Y-115454166D02*
X215885176Y-115549404D01*
X215885176Y-115549404D02*
X215980414Y-115597023D01*
X215980414Y-115597023D02*
X216170890Y-115644642D01*
X216170890Y-115644642D02*
X216313747Y-115644642D01*
X216313747Y-115644642D02*
X216504223Y-115597023D01*
X216504223Y-115597023D02*
X216599461Y-115549404D01*
X216599461Y-115549404D02*
X216694700Y-115454166D01*
X216694700Y-115454166D02*
X216742319Y-115311309D01*
X216742319Y-115311309D02*
X216742319Y-115073214D01*
X215742319Y-116501785D02*
X215742319Y-116311309D01*
X215742319Y-116311309D02*
X215789938Y-116216071D01*
X215789938Y-116216071D02*
X215837557Y-116168452D01*
X215837557Y-116168452D02*
X215980414Y-116073214D01*
X215980414Y-116073214D02*
X216170890Y-116025595D01*
X216170890Y-116025595D02*
X216551842Y-116025595D01*
X216551842Y-116025595D02*
X216647080Y-116073214D01*
X216647080Y-116073214D02*
X216694700Y-116120833D01*
X216694700Y-116120833D02*
X216742319Y-116216071D01*
X216742319Y-116216071D02*
X216742319Y-116406547D01*
X216742319Y-116406547D02*
X216694700Y-116501785D01*
X216694700Y-116501785D02*
X216647080Y-116549404D01*
X216647080Y-116549404D02*
X216551842Y-116597023D01*
X216551842Y-116597023D02*
X216313747Y-116597023D01*
X216313747Y-116597023D02*
X216218509Y-116549404D01*
X216218509Y-116549404D02*
X216170890Y-116501785D01*
X216170890Y-116501785D02*
X216123271Y-116406547D01*
X216123271Y-116406547D02*
X216123271Y-116216071D01*
X216123271Y-116216071D02*
X216170890Y-116120833D01*
X216170890Y-116120833D02*
X216218509Y-116073214D01*
X216218509Y-116073214D02*
X216313747Y-116025595D01*
X216742319Y-117073214D02*
X216742319Y-117263690D01*
X216742319Y-117263690D02*
X216694700Y-117358928D01*
X216694700Y-117358928D02*
X216647080Y-117406547D01*
X216647080Y-117406547D02*
X216504223Y-117501785D01*
X216504223Y-117501785D02*
X216313747Y-117549404D01*
X216313747Y-117549404D02*
X215932795Y-117549404D01*
X215932795Y-117549404D02*
X215837557Y-117501785D01*
X215837557Y-117501785D02*
X215789938Y-117454166D01*
X215789938Y-117454166D02*
X215742319Y-117358928D01*
X215742319Y-117358928D02*
X215742319Y-117168452D01*
X215742319Y-117168452D02*
X215789938Y-117073214D01*
X215789938Y-117073214D02*
X215837557Y-117025595D01*
X215837557Y-117025595D02*
X215932795Y-116977976D01*
X215932795Y-116977976D02*
X216170890Y-116977976D01*
X216170890Y-116977976D02*
X216266128Y-117025595D01*
X216266128Y-117025595D02*
X216313747Y-117073214D01*
X216313747Y-117073214D02*
X216361366Y-117168452D01*
X216361366Y-117168452D02*
X216361366Y-117358928D01*
X216361366Y-117358928D02*
X216313747Y-117454166D01*
X216313747Y-117454166D02*
X216266128Y-117501785D01*
X216266128Y-117501785D02*
X216170890Y-117549404D01*
X58742319Y-58073214D02*
X57742319Y-58073214D01*
X57742319Y-58073214D02*
X57742319Y-58311309D01*
X57742319Y-58311309D02*
X57789938Y-58454166D01*
X57789938Y-58454166D02*
X57885176Y-58549404D01*
X57885176Y-58549404D02*
X57980414Y-58597023D01*
X57980414Y-58597023D02*
X58170890Y-58644642D01*
X58170890Y-58644642D02*
X58313747Y-58644642D01*
X58313747Y-58644642D02*
X58504223Y-58597023D01*
X58504223Y-58597023D02*
X58599461Y-58549404D01*
X58599461Y-58549404D02*
X58694700Y-58454166D01*
X58694700Y-58454166D02*
X58742319Y-58311309D01*
X58742319Y-58311309D02*
X58742319Y-58073214D01*
X58742319Y-59597023D02*
X58742319Y-59025595D01*
X58742319Y-59311309D02*
X57742319Y-59311309D01*
X57742319Y-59311309D02*
X57885176Y-59216071D01*
X57885176Y-59216071D02*
X57980414Y-59120833D01*
X57980414Y-59120833D02*
X58028033Y-59025595D01*
X58170890Y-60168452D02*
X58123271Y-60073214D01*
X58123271Y-60073214D02*
X58075652Y-60025595D01*
X58075652Y-60025595D02*
X57980414Y-59977976D01*
X57980414Y-59977976D02*
X57932795Y-59977976D01*
X57932795Y-59977976D02*
X57837557Y-60025595D01*
X57837557Y-60025595D02*
X57789938Y-60073214D01*
X57789938Y-60073214D02*
X57742319Y-60168452D01*
X57742319Y-60168452D02*
X57742319Y-60358928D01*
X57742319Y-60358928D02*
X57789938Y-60454166D01*
X57789938Y-60454166D02*
X57837557Y-60501785D01*
X57837557Y-60501785D02*
X57932795Y-60549404D01*
X57932795Y-60549404D02*
X57980414Y-60549404D01*
X57980414Y-60549404D02*
X58075652Y-60501785D01*
X58075652Y-60501785D02*
X58123271Y-60454166D01*
X58123271Y-60454166D02*
X58170890Y-60358928D01*
X58170890Y-60358928D02*
X58170890Y-60168452D01*
X58170890Y-60168452D02*
X58218509Y-60073214D01*
X58218509Y-60073214D02*
X58266128Y-60025595D01*
X58266128Y-60025595D02*
X58361366Y-59977976D01*
X58361366Y-59977976D02*
X58551842Y-59977976D01*
X58551842Y-59977976D02*
X58647080Y-60025595D01*
X58647080Y-60025595D02*
X58694700Y-60073214D01*
X58694700Y-60073214D02*
X58742319Y-60168452D01*
X58742319Y-60168452D02*
X58742319Y-60358928D01*
X58742319Y-60358928D02*
X58694700Y-60454166D01*
X58694700Y-60454166D02*
X58647080Y-60501785D01*
X58647080Y-60501785D02*
X58551842Y-60549404D01*
X58551842Y-60549404D02*
X58361366Y-60549404D01*
X58361366Y-60549404D02*
X58266128Y-60501785D01*
X58266128Y-60501785D02*
X58218509Y-60454166D01*
X58218509Y-60454166D02*
X58170890Y-60358928D01*
X211742319Y-134073214D02*
X210742319Y-134073214D01*
X210742319Y-134073214D02*
X210742319Y-134311309D01*
X210742319Y-134311309D02*
X210789938Y-134454166D01*
X210789938Y-134454166D02*
X210885176Y-134549404D01*
X210885176Y-134549404D02*
X210980414Y-134597023D01*
X210980414Y-134597023D02*
X211170890Y-134644642D01*
X211170890Y-134644642D02*
X211313747Y-134644642D01*
X211313747Y-134644642D02*
X211504223Y-134597023D01*
X211504223Y-134597023D02*
X211599461Y-134549404D01*
X211599461Y-134549404D02*
X211694700Y-134454166D01*
X211694700Y-134454166D02*
X211742319Y-134311309D01*
X211742319Y-134311309D02*
X211742319Y-134073214D01*
X210742319Y-134977976D02*
X210742319Y-135644642D01*
X210742319Y-135644642D02*
X211742319Y-135216071D01*
X211170890Y-136168452D02*
X211123271Y-136073214D01*
X211123271Y-136073214D02*
X211075652Y-136025595D01*
X211075652Y-136025595D02*
X210980414Y-135977976D01*
X210980414Y-135977976D02*
X210932795Y-135977976D01*
X210932795Y-135977976D02*
X210837557Y-136025595D01*
X210837557Y-136025595D02*
X210789938Y-136073214D01*
X210789938Y-136073214D02*
X210742319Y-136168452D01*
X210742319Y-136168452D02*
X210742319Y-136358928D01*
X210742319Y-136358928D02*
X210789938Y-136454166D01*
X210789938Y-136454166D02*
X210837557Y-136501785D01*
X210837557Y-136501785D02*
X210932795Y-136549404D01*
X210932795Y-136549404D02*
X210980414Y-136549404D01*
X210980414Y-136549404D02*
X211075652Y-136501785D01*
X211075652Y-136501785D02*
X211123271Y-136454166D01*
X211123271Y-136454166D02*
X211170890Y-136358928D01*
X211170890Y-136358928D02*
X211170890Y-136168452D01*
X211170890Y-136168452D02*
X211218509Y-136073214D01*
X211218509Y-136073214D02*
X211266128Y-136025595D01*
X211266128Y-136025595D02*
X211361366Y-135977976D01*
X211361366Y-135977976D02*
X211551842Y-135977976D01*
X211551842Y-135977976D02*
X211647080Y-136025595D01*
X211647080Y-136025595D02*
X211694700Y-136073214D01*
X211694700Y-136073214D02*
X211742319Y-136168452D01*
X211742319Y-136168452D02*
X211742319Y-136358928D01*
X211742319Y-136358928D02*
X211694700Y-136454166D01*
X211694700Y-136454166D02*
X211647080Y-136501785D01*
X211647080Y-136501785D02*
X211551842Y-136549404D01*
X211551842Y-136549404D02*
X211361366Y-136549404D01*
X211361366Y-136549404D02*
X211266128Y-136501785D01*
X211266128Y-136501785D02*
X211218509Y-136454166D01*
X211218509Y-136454166D02*
X211170890Y-136358928D01*
X325742319Y-77073214D02*
X324742319Y-77073214D01*
X324742319Y-77073214D02*
X324742319Y-77311309D01*
X324742319Y-77311309D02*
X324789938Y-77454166D01*
X324789938Y-77454166D02*
X324885176Y-77549404D01*
X324885176Y-77549404D02*
X324980414Y-77597023D01*
X324980414Y-77597023D02*
X325170890Y-77644642D01*
X325170890Y-77644642D02*
X325313747Y-77644642D01*
X325313747Y-77644642D02*
X325504223Y-77597023D01*
X325504223Y-77597023D02*
X325599461Y-77549404D01*
X325599461Y-77549404D02*
X325694700Y-77454166D01*
X325694700Y-77454166D02*
X325742319Y-77311309D01*
X325742319Y-77311309D02*
X325742319Y-77073214D01*
X325075652Y-78501785D02*
X325742319Y-78501785D01*
X324694700Y-78263690D02*
X325408985Y-78025595D01*
X325408985Y-78025595D02*
X325408985Y-78644642D01*
X324742319Y-79454166D02*
X324742319Y-79263690D01*
X324742319Y-79263690D02*
X324789938Y-79168452D01*
X324789938Y-79168452D02*
X324837557Y-79120833D01*
X324837557Y-79120833D02*
X324980414Y-79025595D01*
X324980414Y-79025595D02*
X325170890Y-78977976D01*
X325170890Y-78977976D02*
X325551842Y-78977976D01*
X325551842Y-78977976D02*
X325647080Y-79025595D01*
X325647080Y-79025595D02*
X325694700Y-79073214D01*
X325694700Y-79073214D02*
X325742319Y-79168452D01*
X325742319Y-79168452D02*
X325742319Y-79358928D01*
X325742319Y-79358928D02*
X325694700Y-79454166D01*
X325694700Y-79454166D02*
X325647080Y-79501785D01*
X325647080Y-79501785D02*
X325551842Y-79549404D01*
X325551842Y-79549404D02*
X325313747Y-79549404D01*
X325313747Y-79549404D02*
X325218509Y-79501785D01*
X325218509Y-79501785D02*
X325170890Y-79454166D01*
X325170890Y-79454166D02*
X325123271Y-79358928D01*
X325123271Y-79358928D02*
X325123271Y-79168452D01*
X325123271Y-79168452D02*
X325170890Y-79073214D01*
X325170890Y-79073214D02*
X325218509Y-79025595D01*
X325218509Y-79025595D02*
X325313747Y-78977976D01*
X306742319Y-39073214D02*
X305742319Y-39073214D01*
X305742319Y-39073214D02*
X305742319Y-39311309D01*
X305742319Y-39311309D02*
X305789938Y-39454166D01*
X305789938Y-39454166D02*
X305885176Y-39549404D01*
X305885176Y-39549404D02*
X305980414Y-39597023D01*
X305980414Y-39597023D02*
X306170890Y-39644642D01*
X306170890Y-39644642D02*
X306313747Y-39644642D01*
X306313747Y-39644642D02*
X306504223Y-39597023D01*
X306504223Y-39597023D02*
X306599461Y-39549404D01*
X306599461Y-39549404D02*
X306694700Y-39454166D01*
X306694700Y-39454166D02*
X306742319Y-39311309D01*
X306742319Y-39311309D02*
X306742319Y-39073214D01*
X306742319Y-40597023D02*
X306742319Y-40025595D01*
X306742319Y-40311309D02*
X305742319Y-40311309D01*
X305742319Y-40311309D02*
X305885176Y-40216071D01*
X305885176Y-40216071D02*
X305980414Y-40120833D01*
X305980414Y-40120833D02*
X306028033Y-40025595D01*
X305742319Y-41501785D02*
X305742319Y-41025595D01*
X305742319Y-41025595D02*
X306218509Y-40977976D01*
X306218509Y-40977976D02*
X306170890Y-41025595D01*
X306170890Y-41025595D02*
X306123271Y-41120833D01*
X306123271Y-41120833D02*
X306123271Y-41358928D01*
X306123271Y-41358928D02*
X306170890Y-41454166D01*
X306170890Y-41454166D02*
X306218509Y-41501785D01*
X306218509Y-41501785D02*
X306313747Y-41549404D01*
X306313747Y-41549404D02*
X306551842Y-41549404D01*
X306551842Y-41549404D02*
X306647080Y-41501785D01*
X306647080Y-41501785D02*
X306694700Y-41454166D01*
X306694700Y-41454166D02*
X306742319Y-41358928D01*
X306742319Y-41358928D02*
X306742319Y-41120833D01*
X306742319Y-41120833D02*
X306694700Y-41025595D01*
X306694700Y-41025595D02*
X306647080Y-40977976D01*
D12*
%TO.C,D9*%
X193287500Y-37927500D02*
X193287500Y-41937500D01*
X193287500Y-37927500D02*
X195287500Y-37927500D01*
X195287500Y-37927500D02*
X195287500Y-41937500D01*
%TO.C,D1*%
X41287500Y-37927500D02*
X41287500Y-41937500D01*
X41287500Y-37927500D02*
X43287500Y-37927500D01*
X43287500Y-37927500D02*
X43287500Y-41937500D01*
%TO.C,D83*%
X307287500Y-132927500D02*
X307287500Y-136937500D01*
X307287500Y-132927500D02*
X309287500Y-132927500D01*
X309287500Y-132927500D02*
X309287500Y-136937500D01*
%TO.C,D75*%
X46287500Y-133927500D02*
X46287500Y-137937500D01*
X46287500Y-133927500D02*
X48287500Y-133927500D01*
X48287500Y-133927500D02*
X48287500Y-137937500D01*
%TO.C,D57*%
X245287500Y-94927500D02*
X245287500Y-98937500D01*
X245287500Y-94927500D02*
X247287500Y-94927500D01*
X247287500Y-94927500D02*
X247287500Y-98937500D01*
%TO.C,D19*%
X79287500Y-56927500D02*
X79287500Y-60937500D01*
X79287500Y-56927500D02*
X81287500Y-56927500D01*
X81287500Y-56927500D02*
X81287500Y-60937500D01*
%TO.C,D67*%
X179287500Y-113927500D02*
X179287500Y-117937500D01*
X179287500Y-113927500D02*
X181287500Y-113927500D01*
X181287500Y-113927500D02*
X181287500Y-117937500D01*
%TO.C,D40*%
X202287500Y-75927500D02*
X202287500Y-79937500D01*
X202287500Y-75927500D02*
X204287500Y-75927500D01*
X204287500Y-75927500D02*
X204287500Y-79937500D01*
%TO.C,D61*%
X64287500Y-113927500D02*
X64287500Y-117937500D01*
X64287500Y-113927500D02*
X66287500Y-113927500D01*
X66287500Y-113927500D02*
X66287500Y-117937500D01*
%TO.C,D60*%
X326287500Y-94927500D02*
X326287500Y-98937500D01*
X326287500Y-94927500D02*
X328287500Y-94927500D01*
X328287500Y-94927500D02*
X328287500Y-98937500D01*
%TO.C,D44*%
X278287500Y-75927500D02*
X278287500Y-79937500D01*
X278287500Y-75927500D02*
X280287500Y-75927500D01*
X280287500Y-75927500D02*
X280287500Y-79937500D01*
%TO.C,D47*%
X55287500Y-94927500D02*
X55287500Y-98937500D01*
X55287500Y-94927500D02*
X57287500Y-94927500D01*
X57287500Y-94927500D02*
X57287500Y-98937500D01*
%TO.C,D54*%
X188287500Y-94927500D02*
X188287500Y-98937500D01*
X188287500Y-94927500D02*
X190287500Y-94927500D01*
X190287500Y-94927500D02*
X190287500Y-98937500D01*
%TO.C,D21*%
X117287500Y-56927500D02*
X117287500Y-60937500D01*
X117287500Y-56927500D02*
X119287500Y-56927500D01*
X119287500Y-56927500D02*
X119287500Y-60937500D01*
%TO.C,D4*%
X98287500Y-37927500D02*
X98287500Y-41937500D01*
X98287500Y-37927500D02*
X100287500Y-37927500D01*
X100287500Y-37927500D02*
X100287500Y-41937500D01*
%TO.C,D16*%
X326287500Y-37927500D02*
X326287500Y-41937500D01*
X326287500Y-37927500D02*
X328287500Y-37927500D01*
X328287500Y-37927500D02*
X328287500Y-41937500D01*
%TO.C,D81*%
X269287500Y-132927500D02*
X269287500Y-136937500D01*
X269287500Y-132927500D02*
X271287500Y-132927500D01*
X271287500Y-132927500D02*
X271287500Y-136937500D01*
%TO.C,D34*%
X88287500Y-75927500D02*
X88287500Y-79937500D01*
X88287500Y-75927500D02*
X90287500Y-75927500D01*
X90287500Y-75927500D02*
X90287500Y-79937500D01*
%TO.C,D35*%
X107287500Y-75927500D02*
X107287500Y-79937500D01*
X107287500Y-75927500D02*
X109287500Y-75927500D01*
X109287500Y-75927500D02*
X109287500Y-79937500D01*
%TO.C,D42*%
X240287500Y-75927500D02*
X240287500Y-79937500D01*
X240287500Y-75927500D02*
X242287500Y-75927500D01*
X242287500Y-75927500D02*
X242287500Y-79937500D01*
%TO.C,D14*%
X288287500Y-37927500D02*
X288287500Y-41937500D01*
X288287500Y-37927500D02*
X290287500Y-37927500D01*
X290287500Y-37927500D02*
X290287500Y-41937500D01*
%TO.C,D26*%
X212287500Y-56927500D02*
X212287500Y-60937500D01*
X212287500Y-56927500D02*
X214287500Y-56927500D01*
X214287500Y-56927500D02*
X214287500Y-60937500D01*
%TO.C,D65*%
X141287500Y-113927500D02*
X141287500Y-117937500D01*
X141287500Y-113927500D02*
X143287500Y-113927500D01*
X143287500Y-113927500D02*
X143287500Y-117937500D01*
%TO.C,D5*%
X117287500Y-37927500D02*
X117287500Y-41937500D01*
X117287500Y-37927500D02*
X119287500Y-37927500D01*
X119287500Y-37927500D02*
X119287500Y-41937500D01*
%TO.C,D20*%
X98287500Y-56927500D02*
X98287500Y-60937500D01*
X98287500Y-56927500D02*
X100287500Y-56927500D01*
X100287500Y-56927500D02*
X100287500Y-60937500D01*
%TO.C,D84*%
X326287500Y-132927500D02*
X326287500Y-136937500D01*
X326287500Y-132927500D02*
X328287500Y-132927500D01*
X328287500Y-132927500D02*
X328287500Y-136937500D01*
%TO.C,D63*%
X102287500Y-114321200D02*
X102287500Y-118331200D01*
X102287500Y-114321200D02*
X104287500Y-114321200D01*
X104287500Y-114321200D02*
X104287500Y-118331200D01*
%TO.C,D30*%
X307287500Y-56927500D02*
X307287500Y-60937500D01*
X307287500Y-56927500D02*
X309287500Y-56927500D01*
X309287500Y-56927500D02*
X309287500Y-60937500D01*
%TO.C,D45*%
X307287500Y-75927500D02*
X307287500Y-79937500D01*
X307287500Y-75927500D02*
X309287500Y-75927500D01*
X309287500Y-75927500D02*
X309287500Y-79937500D01*
%TO.C,D82*%
X288287500Y-132927500D02*
X288287500Y-136937500D01*
X288287500Y-132927500D02*
X290287500Y-132927500D01*
X290287500Y-132927500D02*
X290287500Y-136937500D01*
%TO.C,D66*%
X160287500Y-113927500D02*
X160287500Y-117937500D01*
X160287500Y-113927500D02*
X162287500Y-113927500D01*
X162287500Y-113927500D02*
X162287500Y-117937500D01*
%TO.C,D52*%
X150287500Y-94927500D02*
X150287500Y-98937500D01*
X150287500Y-94927500D02*
X152287500Y-94927500D01*
X152287500Y-94927500D02*
X152287500Y-98937500D01*
%TO.C,D55*%
X207287500Y-96577500D02*
X207287500Y-100587500D01*
X207287500Y-96577500D02*
X209287500Y-96577500D01*
X209287500Y-96577500D02*
X209287500Y-100587500D01*
%TO.C,D77*%
X93287500Y-133927500D02*
X93287500Y-137937500D01*
X93287500Y-133927500D02*
X95287500Y-133927500D01*
X95287500Y-133927500D02*
X95287500Y-137937500D01*
%TO.C,D49*%
X93287500Y-94927500D02*
X93287500Y-98937500D01*
X93287500Y-94927500D02*
X95287500Y-94927500D01*
X95287500Y-94927500D02*
X95287500Y-98937500D01*
%TO.C,D36*%
X126287500Y-75927500D02*
X126287500Y-79937500D01*
X126287500Y-75927500D02*
X128287500Y-75927500D01*
X128287500Y-75927500D02*
X128287500Y-79937500D01*
%TO.C,D38*%
X164287500Y-76577500D02*
X164287500Y-80587500D01*
X164287500Y-76577500D02*
X166287500Y-76577500D01*
X166287500Y-76577500D02*
X166287500Y-80587500D01*
%TO.C,D80*%
X250287500Y-132927500D02*
X250287500Y-136937500D01*
X250287500Y-132927500D02*
X252287500Y-132927500D01*
X252287500Y-132927500D02*
X252287500Y-136937500D01*
%TO.C,D76*%
X69287500Y-133927500D02*
X69287500Y-137937500D01*
X69287500Y-133927500D02*
X71287500Y-133927500D01*
X71287500Y-133927500D02*
X71287500Y-137937500D01*
%TO.C,D48*%
X74287500Y-94927500D02*
X74287500Y-98937500D01*
X74287500Y-94927500D02*
X76287500Y-94927500D01*
X76287500Y-94927500D02*
X76287500Y-98937500D01*
%TO.C,D72*%
X288287500Y-115577500D02*
X288287500Y-119587500D01*
X288287500Y-115577500D02*
X290287500Y-115577500D01*
X290287500Y-115577500D02*
X290287500Y-119587500D01*
%TO.C,D53*%
X169287500Y-94927500D02*
X169287500Y-98937500D01*
X169287500Y-94927500D02*
X171287500Y-94927500D01*
X171287500Y-94927500D02*
X171287500Y-98937500D01*
%TO.C,D73*%
X307287500Y-114927500D02*
X307287500Y-118937500D01*
X307287500Y-114927500D02*
X309287500Y-114927500D01*
X309287500Y-114927500D02*
X309287500Y-118937500D01*
%TO.C,D25*%
X193287500Y-56927500D02*
X193287500Y-60937500D01*
X193287500Y-56927500D02*
X195287500Y-56927500D01*
X195287500Y-56927500D02*
X195287500Y-60937500D01*
%TO.C,D59*%
X307287500Y-94927500D02*
X307287500Y-98937500D01*
X307287500Y-94927500D02*
X309287500Y-94927500D01*
X309287500Y-94927500D02*
X309287500Y-98937500D01*
%TO.C,D24*%
X174287500Y-56927500D02*
X174287500Y-60937500D01*
X174287500Y-56927500D02*
X176287500Y-56927500D01*
X176287500Y-56927500D02*
X176287500Y-60937500D01*
%TO.C,D70*%
X236287500Y-113927500D02*
X236287500Y-117937500D01*
X236287500Y-113927500D02*
X238287500Y-113927500D01*
X238287500Y-113927500D02*
X238287500Y-117937500D01*
%TO.C,D27*%
X231287500Y-56927500D02*
X231287500Y-60937500D01*
X231287500Y-56927500D02*
X233287500Y-56927500D01*
X233287500Y-56927500D02*
X233287500Y-60937500D01*
%TO.C,D2*%
X60287500Y-37927500D02*
X60287500Y-41937500D01*
X60287500Y-37927500D02*
X62287500Y-37927500D01*
X62287500Y-37927500D02*
X62287500Y-41937500D01*
%TO.C,D22*%
X136287500Y-56927500D02*
X136287500Y-60937500D01*
X136287500Y-56927500D02*
X138287500Y-56927500D01*
X138287500Y-56927500D02*
X138287500Y-60937500D01*
%TO.C,D56*%
X226287500Y-94927500D02*
X226287500Y-98937500D01*
X226287500Y-94927500D02*
X228287500Y-94927500D01*
X228287500Y-94927500D02*
X228287500Y-98937500D01*
%TO.C,D28*%
X250287500Y-56927500D02*
X250287500Y-60937500D01*
X250287500Y-56927500D02*
X252287500Y-56927500D01*
X252287500Y-56927500D02*
X252287500Y-60937500D01*
%TO.C,D10*%
X212287500Y-37927500D02*
X212287500Y-41937500D01*
X212287500Y-37927500D02*
X214287500Y-37927500D01*
X214287500Y-37927500D02*
X214287500Y-41937500D01*
%TO.C,D58*%
X264287500Y-94927500D02*
X264287500Y-98937500D01*
X264287500Y-94927500D02*
X266287500Y-94927500D01*
X266287500Y-94927500D02*
X266287500Y-98937500D01*
%TO.C,D64*%
X121287500Y-113927500D02*
X121287500Y-117937500D01*
X121287500Y-113927500D02*
X123287500Y-113927500D01*
X123287500Y-113927500D02*
X123287500Y-117937500D01*
%TO.C,D11*%
X231287500Y-37927500D02*
X231287500Y-41937500D01*
X231287500Y-37927500D02*
X233287500Y-37927500D01*
X233287500Y-37927500D02*
X233287500Y-41937500D01*
%TO.C,D41*%
X221287500Y-75927500D02*
X221287500Y-79937500D01*
X221287500Y-75927500D02*
X223287500Y-75927500D01*
X223287500Y-75927500D02*
X223287500Y-79937500D01*
%TO.C,D62*%
X83287500Y-113927500D02*
X83287500Y-117937500D01*
X83287500Y-113927500D02*
X85287500Y-113927500D01*
X85287500Y-113927500D02*
X85287500Y-117937500D01*
%TO.C,D50*%
X112287500Y-94927500D02*
X112287500Y-98937500D01*
X112287500Y-94927500D02*
X114287500Y-94927500D01*
X114287500Y-94927500D02*
X114287500Y-98937500D01*
%TO.C,D79*%
X231287500Y-132927500D02*
X231287500Y-136937500D01*
X231287500Y-132927500D02*
X233287500Y-132927500D01*
X233287500Y-132927500D02*
X233287500Y-136937500D01*
%TO.C,D33*%
X69287500Y-75927500D02*
X69287500Y-79937500D01*
X69287500Y-75927500D02*
X71287500Y-75927500D01*
X71287500Y-75927500D02*
X71287500Y-79937500D01*
%TO.C,D32*%
X50287500Y-75927500D02*
X50287500Y-79937500D01*
X50287500Y-75927500D02*
X52287500Y-75927500D01*
X52287500Y-75927500D02*
X52287500Y-79937500D01*
%TO.C,D31*%
X326287500Y-56927500D02*
X326287500Y-60937500D01*
X326287500Y-56927500D02*
X328287500Y-56927500D01*
X328287500Y-56927500D02*
X328287500Y-60937500D01*
%TO.C,D3*%
X79287500Y-37927500D02*
X79287500Y-41937500D01*
X79287500Y-37927500D02*
X81287500Y-37927500D01*
X81287500Y-37927500D02*
X81287500Y-41937500D01*
%TO.C,D68*%
X198287500Y-113927500D02*
X198287500Y-117937500D01*
X198287500Y-113927500D02*
X200287500Y-113927500D01*
X200287500Y-113927500D02*
X200287500Y-117937500D01*
%TO.C,D51*%
X131287500Y-95577500D02*
X131287500Y-99587500D01*
X131287500Y-95577500D02*
X133287500Y-95577500D01*
X133287500Y-95577500D02*
X133287500Y-99587500D01*
%TO.C,D37*%
X145287500Y-75927500D02*
X145287500Y-79937500D01*
X145287500Y-75927500D02*
X147287500Y-75927500D01*
X147287500Y-75927500D02*
X147287500Y-79937500D01*
%TO.C,D43*%
X259287500Y-75927500D02*
X259287500Y-79937500D01*
X259287500Y-75927500D02*
X261287500Y-75927500D01*
X261287500Y-75927500D02*
X261287500Y-79937500D01*
%TO.C,D13*%
X269287500Y-37927500D02*
X269287500Y-41937500D01*
X269287500Y-37927500D02*
X271287500Y-37927500D01*
X271287500Y-37927500D02*
X271287500Y-41937500D01*
%TO.C,D8*%
X174287500Y-37927500D02*
X174287500Y-41937500D01*
X174287500Y-37927500D02*
X176287500Y-37927500D01*
X176287500Y-37927500D02*
X176287500Y-41937500D01*
%TO.C,D74*%
X326287500Y-113927500D02*
X326287500Y-117937500D01*
X326287500Y-113927500D02*
X328287500Y-113927500D01*
X328287500Y-113927500D02*
X328287500Y-117937500D01*
%TO.C,D6*%
X136287500Y-37927500D02*
X136287500Y-41937500D01*
X136287500Y-37927500D02*
X138287500Y-37927500D01*
X138287500Y-37927500D02*
X138287500Y-41937500D01*
%TO.C,D7*%
X154637500Y-37927500D02*
X154637500Y-41937500D01*
X154637500Y-37927500D02*
X156637500Y-37927500D01*
X156637500Y-37927500D02*
X156637500Y-41937500D01*
%TO.C,D39*%
X183287500Y-75927500D02*
X183287500Y-79937500D01*
X183287500Y-75927500D02*
X185287500Y-75927500D01*
X185287500Y-75927500D02*
X185287500Y-79937500D01*
%TO.C,D17*%
X40287500Y-56927500D02*
X40287500Y-60937500D01*
X40287500Y-56927500D02*
X42287500Y-56927500D01*
X42287500Y-56927500D02*
X42287500Y-60937500D01*
%TO.C,D12*%
X250287500Y-37927500D02*
X250287500Y-41937500D01*
X250287500Y-37927500D02*
X252287500Y-37927500D01*
X252287500Y-37927500D02*
X252287500Y-41937500D01*
%TO.C,D29*%
X269287500Y-56927500D02*
X269287500Y-60937500D01*
X269287500Y-56927500D02*
X271287500Y-56927500D01*
X271287500Y-56927500D02*
X271287500Y-60937500D01*
%TO.C,D71*%
X255287500Y-114927500D02*
X255287500Y-118937500D01*
X255287500Y-114927500D02*
X257287500Y-114927500D01*
X257287500Y-114927500D02*
X257287500Y-118937500D01*
%TO.C,D23*%
X155287500Y-56927500D02*
X155287500Y-60937500D01*
X155287500Y-56927500D02*
X157287500Y-56927500D01*
X157287500Y-56927500D02*
X157287500Y-60937500D01*
%TO.C,D69*%
X217287500Y-113927500D02*
X217287500Y-117937500D01*
X217287500Y-113927500D02*
X219287500Y-113927500D01*
X219287500Y-113927500D02*
X219287500Y-117937500D01*
%TO.C,D18*%
X59287500Y-56927500D02*
X59287500Y-60937500D01*
X59287500Y-56927500D02*
X61287500Y-56927500D01*
X61287500Y-56927500D02*
X61287500Y-60937500D01*
%TO.C,D78*%
X212287500Y-132927500D02*
X212287500Y-136937500D01*
X212287500Y-132927500D02*
X214287500Y-132927500D01*
X214287500Y-132927500D02*
X214287500Y-136937500D01*
%TO.C,D46*%
X326287500Y-75927500D02*
X326287500Y-79937500D01*
X326287500Y-75927500D02*
X328287500Y-75927500D01*
X328287500Y-75927500D02*
X328287500Y-79937500D01*
%TO.C,D15*%
X307287500Y-37927500D02*
X307287500Y-41937500D01*
X307287500Y-37927500D02*
X309287500Y-37927500D01*
X309287500Y-37927500D02*
X309287500Y-41937500D01*
%TD*%
M02*
