%TF.GenerationSoftware,KiCad,Pcbnew,9.0.7*%
%TF.CreationDate,2026-03-06T20:18:46-08:00*%
%TF.ProjectId,75keyboard,37356b65-7962-46f6-9172-642e6b696361,rev?*%
%TF.SameCoordinates,Original*%
%TF.FileFunction,Soldermask,Top*%
%TF.FilePolarity,Negative*%
%FSLAX46Y46*%
G04 Gerber Fmt 4.6, Leading zero omitted, Abs format (unit mm)*
G04 Created by KiCad (PCBNEW 9.0.7) date 2026-03-06 20:18:46*
%MOMM*%
%LPD*%
G01*
G04 APERTURE LIST*
%ADD10C,1.701800*%
%ADD11C,3.987800*%
%ADD12C,3.048000*%
%ADD13O,2.500000X1.500000*%
%ADD14O,1.500000X2.500000*%
G04 APERTURE END LIST*
D10*
%TO.C,SW82*%
X274955000Y-135731200D03*
D11*
X280035000Y-135731200D03*
D10*
X285115000Y-135731200D03*
%TD*%
%TO.C,SW75*%
X29805000Y-135731200D03*
D11*
X34885000Y-135731200D03*
D10*
X39965000Y-135731200D03*
%TD*%
%TO.C,SW5*%
X103505000Y-40481200D03*
D11*
X108585000Y-40481200D03*
D10*
X113665000Y-40481200D03*
%TD*%
%TO.C,SW81*%
X255905000Y-135731200D03*
D11*
X260985000Y-135731200D03*
D10*
X266065000Y-135731200D03*
%TD*%
%TO.C,SW42*%
X227330000Y-78581200D03*
D11*
X232410000Y-78581200D03*
D10*
X237490000Y-78581200D03*
%TD*%
%TO.C,SW13*%
X255905000Y-40481200D03*
D11*
X260985000Y-40481200D03*
D10*
X266065000Y-40481200D03*
%TD*%
%TO.C,SW28*%
X236855000Y-59531200D03*
D11*
X241935000Y-59531200D03*
D10*
X247015000Y-59531200D03*
%TD*%
%TO.C,SW66*%
X146367500Y-116681200D03*
D11*
X151447500Y-116681200D03*
D10*
X156527500Y-116681200D03*
%TD*%
%TO.C,SW14*%
X274955000Y-40481200D03*
D11*
X280035000Y-40481200D03*
D10*
X285115000Y-40481200D03*
%TD*%
%TO.C,SW76*%
X53617500Y-135731200D03*
D11*
X58697500Y-135731200D03*
D10*
X63777500Y-135731200D03*
%TD*%
%TO.C,SW39*%
X170180000Y-78581200D03*
D11*
X175260000Y-78581200D03*
D10*
X180340000Y-78581200D03*
%TD*%
%TO.C,SW23*%
X141605000Y-59531200D03*
D11*
X146685000Y-59531200D03*
D10*
X151765000Y-59531200D03*
%TD*%
%TO.C,SW12*%
X236855000Y-40481200D03*
D11*
X241935000Y-40481200D03*
D10*
X247015000Y-40481200D03*
%TD*%
%TO.C,SW49*%
X79692500Y-97631200D03*
D11*
X84772500Y-97631200D03*
D10*
X89852500Y-97631200D03*
%TD*%
%TO.C,SW36*%
X113030000Y-78581200D03*
D11*
X118110000Y-78581200D03*
D10*
X123190000Y-78581200D03*
%TD*%
%TO.C,SW3*%
X65405000Y-40481200D03*
D11*
X70485000Y-40481200D03*
D10*
X75565000Y-40481200D03*
%TD*%
%TO.C,SW6*%
X122555000Y-40481200D03*
D11*
X127635000Y-40481200D03*
D10*
X132715000Y-40481200D03*
%TD*%
%TO.C,SW22*%
X122555000Y-59531200D03*
D11*
X127635000Y-59531200D03*
D10*
X132715000Y-59531200D03*
%TD*%
%TO.C,SW38*%
X151130000Y-78581200D03*
D11*
X156210000Y-78581200D03*
D10*
X161290000Y-78581200D03*
%TD*%
%TO.C,SW32*%
X32067500Y-78581200D03*
D11*
X37147500Y-78581200D03*
D10*
X42227500Y-78581200D03*
%TD*%
%TO.C,SW69*%
X203517500Y-116681200D03*
D11*
X208597500Y-116681200D03*
D10*
X213677500Y-116681200D03*
%TD*%
%TO.C,SW60*%
X313055000Y-97631200D03*
D11*
X318135000Y-97631200D03*
D10*
X323215000Y-97631200D03*
%TD*%
%TO.C,SW11*%
X217805000Y-40481200D03*
D11*
X222885000Y-40481200D03*
D10*
X227965000Y-40481200D03*
%TD*%
%TO.C,SW16*%
X313055000Y-40481200D03*
D11*
X318135000Y-40481200D03*
D10*
X323215000Y-40481200D03*
%TD*%
%TO.C,SW9*%
X179705000Y-40481200D03*
D11*
X184785000Y-40481200D03*
D10*
X189865000Y-40481200D03*
%TD*%
%TO.C,SW71*%
X241617500Y-116681200D03*
D11*
X246697500Y-116681200D03*
D10*
X251777500Y-116681200D03*
%TD*%
%TO.C,SW31*%
X313055000Y-59531200D03*
D11*
X318135000Y-59531200D03*
D10*
X323215000Y-59531200D03*
%TD*%
%TO.C,SW25*%
X179705000Y-59531200D03*
D11*
X184785000Y-59531200D03*
D10*
X189865000Y-59531200D03*
%TD*%
%TO.C,SW55*%
X193992500Y-97631200D03*
D11*
X199072500Y-97631200D03*
D10*
X204152500Y-97631200D03*
%TD*%
%TO.C,SW2*%
X46355000Y-40481200D03*
D11*
X51435000Y-40481200D03*
D10*
X56515000Y-40481200D03*
%TD*%
%TO.C,SW50*%
X98742500Y-97631200D03*
D11*
X103822500Y-97631200D03*
D10*
X108902500Y-97631200D03*
%TD*%
D12*
%TO.C,SW59*%
X275240800Y-90646200D03*
D11*
X275240800Y-105886200D03*
D10*
X282098800Y-97631200D03*
D11*
X287178800Y-97631200D03*
D10*
X292258800Y-97631200D03*
D12*
X299116800Y-90646200D03*
D11*
X299116800Y-105886200D03*
%TD*%
D10*
%TO.C,SW7*%
X141605000Y-40481200D03*
D11*
X146685000Y-40481200D03*
D10*
X151765000Y-40481200D03*
%TD*%
%TO.C,SW57*%
X232092500Y-97631200D03*
D11*
X237172500Y-97631200D03*
D10*
X242252500Y-97631200D03*
%TD*%
%TO.C,SW68*%
X184467500Y-116681200D03*
D11*
X189547500Y-116681200D03*
D10*
X194627500Y-116681200D03*
%TD*%
%TO.C,SW52*%
X136842500Y-97631200D03*
D11*
X141922500Y-97631200D03*
D10*
X147002500Y-97631200D03*
%TD*%
%TO.C,SW35*%
X93980000Y-78581200D03*
D11*
X99060000Y-78581200D03*
D10*
X104140000Y-78581200D03*
%TD*%
%TO.C,SW65*%
X127317500Y-116681200D03*
D11*
X132397500Y-116681200D03*
D10*
X137477500Y-116681200D03*
%TD*%
D12*
%TO.C,SW61*%
X32353300Y-109696200D03*
D11*
X32353300Y-124936200D03*
D10*
X39211300Y-116681200D03*
D11*
X44291300Y-116681200D03*
D10*
X49371300Y-116681200D03*
D12*
X56229300Y-109696200D03*
D11*
X56229300Y-124936200D03*
%TD*%
D10*
%TO.C,SW15*%
X294005000Y-40481200D03*
D11*
X299085000Y-40481200D03*
D10*
X304165000Y-40481200D03*
%TD*%
%TO.C,SW34*%
X74930000Y-78581200D03*
D11*
X80010000Y-78581200D03*
D10*
X85090000Y-78581200D03*
%TD*%
%TO.C,SW74*%
X313055000Y-116681200D03*
D11*
X318135000Y-116681200D03*
D10*
X323215000Y-116681200D03*
%TD*%
%TO.C,SW17*%
X27305000Y-59531200D03*
D11*
X32385000Y-59531200D03*
D10*
X37465000Y-59531200D03*
%TD*%
%TO.C,SW67*%
X165417500Y-116681200D03*
D11*
X170497500Y-116681200D03*
D10*
X175577500Y-116681200D03*
%TD*%
%TO.C,SW4*%
X84455000Y-40481200D03*
D11*
X89535000Y-40481200D03*
D10*
X94615000Y-40481200D03*
%TD*%
%TO.C,SW80*%
X236855000Y-135731200D03*
D11*
X241935000Y-135731200D03*
D10*
X247015000Y-135731200D03*
%TD*%
%TO.C,SW56*%
X213042500Y-97631200D03*
D11*
X218122500Y-97631200D03*
D10*
X223202500Y-97631200D03*
%TD*%
%TO.C,SW47*%
X34448800Y-97631200D03*
D11*
X39528800Y-97631200D03*
D10*
X44608800Y-97631200D03*
%TD*%
%TO.C,SW48*%
X60642500Y-97631200D03*
D11*
X65722500Y-97631200D03*
D10*
X70802500Y-97631200D03*
%TD*%
D13*
%TO.C,U1*%
X357407500Y-40127500D03*
X357407500Y-42667500D03*
X357407500Y-45207500D03*
X357407500Y-47747500D03*
X357407500Y-50287500D03*
X357407500Y-52827500D03*
X357407500Y-55367500D03*
X357407500Y-57907500D03*
X357407500Y-60447500D03*
D14*
X354367500Y-60947500D03*
X351827500Y-60947500D03*
X349287500Y-60947500D03*
X346747500Y-60947500D03*
X344207500Y-60947500D03*
D13*
X341167500Y-60447500D03*
X341167500Y-57907500D03*
X341167500Y-55367500D03*
X341167500Y-52827500D03*
X341167500Y-50287500D03*
X341167500Y-47747500D03*
X341167500Y-45207500D03*
X341167500Y-42667500D03*
X341167500Y-40127500D03*
%TD*%
D10*
%TO.C,SW26*%
X198755000Y-59531200D03*
D11*
X203835000Y-59531200D03*
D10*
X208915000Y-59531200D03*
%TD*%
%TO.C,SW73*%
X294005000Y-116681200D03*
D11*
X299085000Y-116681200D03*
D10*
X304165000Y-116681200D03*
%TD*%
%TO.C,SW40*%
X189230000Y-78581200D03*
D11*
X194310000Y-78581200D03*
D10*
X199390000Y-78581200D03*
%TD*%
%TO.C,SW21*%
X103505000Y-59531200D03*
D11*
X108585000Y-59531200D03*
D10*
X113665000Y-59531200D03*
%TD*%
%TO.C,SW72*%
X267811300Y-116681200D03*
D11*
X272891300Y-116681200D03*
D10*
X277971300Y-116681200D03*
%TD*%
%TO.C,SW84*%
X313055000Y-135731200D03*
D11*
X318135000Y-135731200D03*
D10*
X323215000Y-135731200D03*
%TD*%
%TO.C,SW10*%
X198755000Y-40481200D03*
D11*
X203835000Y-40481200D03*
D10*
X208915000Y-40481200D03*
%TD*%
%TO.C,SW27*%
X217805000Y-59531200D03*
D11*
X222885000Y-59531200D03*
D10*
X227965000Y-59531200D03*
%TD*%
%TO.C,SW53*%
X155892500Y-97631200D03*
D11*
X160972500Y-97631200D03*
D10*
X166052500Y-97631200D03*
%TD*%
%TO.C,SW44*%
X265430000Y-78581200D03*
D11*
X270510000Y-78581200D03*
D10*
X275590000Y-78581200D03*
%TD*%
%TO.C,SW29*%
X255905000Y-59531200D03*
D11*
X260985000Y-59531200D03*
D10*
X266065000Y-59531200D03*
%TD*%
%TO.C,SW43*%
X246380000Y-78581200D03*
D11*
X251460000Y-78581200D03*
D10*
X256540000Y-78581200D03*
%TD*%
D12*
%TO.C,SW30*%
X277622000Y-52546200D03*
D11*
X277622000Y-67786200D03*
D10*
X284480000Y-59531200D03*
D11*
X289560000Y-59531200D03*
D10*
X294640000Y-59531200D03*
D12*
X301498000Y-52546200D03*
D11*
X301498000Y-67786200D03*
%TD*%
D10*
%TO.C,SW18*%
X46355000Y-59531200D03*
D11*
X51435000Y-59531200D03*
D10*
X56515000Y-59531200D03*
%TD*%
%TO.C,SW20*%
X84455000Y-59531200D03*
D11*
X89535000Y-59531200D03*
D10*
X94615000Y-59531200D03*
%TD*%
%TO.C,SW70*%
X222567500Y-116681200D03*
D11*
X227647500Y-116681200D03*
D10*
X232727500Y-116681200D03*
%TD*%
%TO.C,SW45*%
X289242500Y-78581200D03*
D11*
X294322500Y-78581200D03*
D10*
X299402500Y-78581200D03*
%TD*%
%TO.C,SW62*%
X70167500Y-116681200D03*
D11*
X75247500Y-116681200D03*
D10*
X80327500Y-116681200D03*
%TD*%
%TO.C,SW51*%
X117792500Y-97631200D03*
D11*
X122872500Y-97631200D03*
D10*
X127952500Y-97631200D03*
%TD*%
%TO.C,SW64*%
X108267500Y-116681200D03*
D11*
X113347500Y-116681200D03*
D10*
X118427500Y-116681200D03*
%TD*%
%TO.C,SW1*%
X27305000Y-40481200D03*
D11*
X32385000Y-40481200D03*
D10*
X37465000Y-40481200D03*
%TD*%
%TO.C,SW37*%
X132080000Y-78581200D03*
D11*
X137160000Y-78581200D03*
D10*
X142240000Y-78581200D03*
%TD*%
%TO.C,SW24*%
X160655000Y-59531200D03*
D11*
X165735000Y-59531200D03*
D10*
X170815000Y-59531200D03*
%TD*%
%TO.C,SW77*%
X77311300Y-135731200D03*
D11*
X82391300Y-135731200D03*
D10*
X87471300Y-135731200D03*
%TD*%
%TO.C,SW54*%
X174942500Y-97631200D03*
D11*
X180022500Y-97631200D03*
D10*
X185102500Y-97631200D03*
%TD*%
%TO.C,SW8*%
X160655000Y-40481200D03*
D11*
X165735000Y-40481200D03*
D10*
X170815000Y-40481200D03*
%TD*%
%TO.C,SW46*%
X313055000Y-78581200D03*
D11*
X318135000Y-78581200D03*
D10*
X323215000Y-78581200D03*
%TD*%
%TO.C,SW79*%
X217805000Y-135731200D03*
D11*
X222885000Y-135731200D03*
D10*
X227965000Y-135731200D03*
%TD*%
D12*
%TO.C,SW78*%
X103828800Y-128746200D03*
D11*
X103828800Y-143986200D03*
D10*
X148748800Y-135731200D03*
D11*
X153828800Y-135731200D03*
D10*
X158908800Y-135731200D03*
D12*
X203828800Y-128746200D03*
D11*
X203828800Y-143986200D03*
%TD*%
D10*
%TO.C,SW19*%
X65405000Y-59531200D03*
D11*
X70485000Y-59531200D03*
D10*
X75565000Y-59531200D03*
%TD*%
%TO.C,SW83*%
X294005000Y-135731200D03*
D11*
X299085000Y-135731200D03*
D10*
X304165000Y-135731200D03*
%TD*%
%TO.C,SW33*%
X55880000Y-78581200D03*
D11*
X60960000Y-78581200D03*
D10*
X66040000Y-78581200D03*
%TD*%
%TO.C,SW41*%
X208280000Y-78581200D03*
D11*
X213360000Y-78581200D03*
D10*
X218440000Y-78581200D03*
%TD*%
%TO.C,SW58*%
X251142500Y-97631200D03*
D11*
X256222500Y-97631200D03*
D10*
X261302500Y-97631200D03*
%TD*%
%TO.C,SW63*%
X89217500Y-116681200D03*
D11*
X94297500Y-116681200D03*
D10*
X99377500Y-116681200D03*
%TD*%
M02*
