%TF.GenerationSoftware,KiCad,Pcbnew,9.0.7*%
%TF.CreationDate,2026-03-06T20:18:46-08:00*%
%TF.ProjectId,75keyboard,37356b65-7962-46f6-9172-642e6b696361,rev?*%
%TF.SameCoordinates,Original*%
%TF.FileFunction,Soldermask,Bot*%
%TF.FilePolarity,Negative*%
%FSLAX46Y46*%
G04 Gerber Fmt 4.6, Leading zero omitted, Abs format (unit mm)*
G04 Created by KiCad (PCBNEW 9.0.7) date 2026-03-06 20:18:46*
%MOMM*%
%LPD*%
G01*
G04 APERTURE LIST*
G04 Aperture macros list*
%AMRoundRect*
0 Rectangle with rounded corners*
0 $1 Rounding radius*
0 $2 $3 $4 $5 $6 $7 $8 $9 X,Y pos of 4 corners*
0 Add a 4 corners polygon primitive as box body*
4,1,4,$2,$3,$4,$5,$6,$7,$8,$9,$2,$3,0*
0 Add four circle primitives for the rounded corners*
1,1,$1+$1,$2,$3*
1,1,$1+$1,$4,$5*
1,1,$1+$1,$6,$7*
1,1,$1+$1,$8,$9*
0 Add four rect primitives between the rounded corners*
20,1,$1+$1,$2,$3,$4,$5,0*
20,1,$1+$1,$4,$5,$6,$7,0*
20,1,$1+$1,$6,$7,$8,$9,0*
20,1,$1+$1,$8,$9,$2,$3,0*%
G04 Aperture macros list end*
%ADD10C,1.701800*%
%ADD11C,3.987800*%
%ADD12C,2.300000*%
%ADD13C,3.048000*%
%ADD14O,2.500000X1.500000*%
%ADD15O,1.500000X2.500000*%
%ADD16RoundRect,0.225000X-0.375000X0.225000X-0.375000X-0.225000X0.375000X-0.225000X0.375000X0.225000X0*%
G04 APERTURE END LIST*
D10*
%TO.C,SW82*%
X274955000Y-135731200D03*
D11*
X280035000Y-135731200D03*
D10*
X285115000Y-135731200D03*
D12*
X276225000Y-133191200D03*
X282575000Y-130651200D03*
%TD*%
D10*
%TO.C,SW75*%
X29805000Y-135731200D03*
D11*
X34885000Y-135731200D03*
D10*
X39965000Y-135731200D03*
D12*
X31075000Y-133191200D03*
X37425000Y-130651200D03*
%TD*%
D10*
%TO.C,SW5*%
X103505000Y-40481200D03*
D11*
X108585000Y-40481200D03*
D10*
X113665000Y-40481200D03*
D12*
X104775000Y-37941200D03*
X111125000Y-35401200D03*
%TD*%
D10*
%TO.C,SW81*%
X255905000Y-135731200D03*
D11*
X260985000Y-135731200D03*
D10*
X266065000Y-135731200D03*
D12*
X257175000Y-133191200D03*
X263525000Y-130651200D03*
%TD*%
D10*
%TO.C,SW42*%
X227330000Y-78581200D03*
D11*
X232410000Y-78581200D03*
D10*
X237490000Y-78581200D03*
D12*
X228600000Y-76041200D03*
X234950000Y-73501200D03*
%TD*%
D10*
%TO.C,SW13*%
X255905000Y-40481200D03*
D11*
X260985000Y-40481200D03*
D10*
X266065000Y-40481200D03*
D12*
X257175000Y-37941200D03*
X263525000Y-35401200D03*
%TD*%
D10*
%TO.C,SW28*%
X236855000Y-59531200D03*
D11*
X241935000Y-59531200D03*
D10*
X247015000Y-59531200D03*
D12*
X238125000Y-56991200D03*
X244475000Y-54451200D03*
%TD*%
D10*
%TO.C,SW66*%
X146367500Y-116681200D03*
D11*
X151447500Y-116681200D03*
D10*
X156527500Y-116681200D03*
D12*
X147637500Y-114141200D03*
X153987500Y-111601200D03*
%TD*%
D10*
%TO.C,SW14*%
X274955000Y-40481200D03*
D11*
X280035000Y-40481200D03*
D10*
X285115000Y-40481200D03*
D12*
X276225000Y-37941200D03*
X282575000Y-35401200D03*
%TD*%
D10*
%TO.C,SW76*%
X53617500Y-135731200D03*
D11*
X58697500Y-135731200D03*
D10*
X63777500Y-135731200D03*
D12*
X54887500Y-133191200D03*
X61237500Y-130651200D03*
%TD*%
D10*
%TO.C,SW39*%
X170180000Y-78581200D03*
D11*
X175260000Y-78581200D03*
D10*
X180340000Y-78581200D03*
D12*
X171450000Y-76041200D03*
X177800000Y-73501200D03*
%TD*%
D10*
%TO.C,SW23*%
X141605000Y-59531200D03*
D11*
X146685000Y-59531200D03*
D10*
X151765000Y-59531200D03*
D12*
X142875000Y-56991200D03*
X149225000Y-54451200D03*
%TD*%
D10*
%TO.C,SW12*%
X236855000Y-40481200D03*
D11*
X241935000Y-40481200D03*
D10*
X247015000Y-40481200D03*
D12*
X238125000Y-37941200D03*
X244475000Y-35401200D03*
%TD*%
D10*
%TO.C,SW49*%
X79692500Y-97631200D03*
D11*
X84772500Y-97631200D03*
D10*
X89852500Y-97631200D03*
D12*
X80962500Y-95091200D03*
X87312500Y-92551200D03*
%TD*%
D10*
%TO.C,SW36*%
X113030000Y-78581200D03*
D11*
X118110000Y-78581200D03*
D10*
X123190000Y-78581200D03*
D12*
X114300000Y-76041200D03*
X120650000Y-73501200D03*
%TD*%
D10*
%TO.C,SW3*%
X65405000Y-40481200D03*
D11*
X70485000Y-40481200D03*
D10*
X75565000Y-40481200D03*
D12*
X66675000Y-37941200D03*
X73025000Y-35401200D03*
%TD*%
D10*
%TO.C,SW6*%
X122555000Y-40481200D03*
D11*
X127635000Y-40481200D03*
D10*
X132715000Y-40481200D03*
D12*
X123825000Y-37941200D03*
X130175000Y-35401200D03*
%TD*%
D10*
%TO.C,SW22*%
X122555000Y-59531200D03*
D11*
X127635000Y-59531200D03*
D10*
X132715000Y-59531200D03*
D12*
X123825000Y-56991200D03*
X130175000Y-54451200D03*
%TD*%
D10*
%TO.C,SW38*%
X151130000Y-78581200D03*
D11*
X156210000Y-78581200D03*
D10*
X161290000Y-78581200D03*
D12*
X152400000Y-76041200D03*
X158750000Y-73501200D03*
%TD*%
D10*
%TO.C,SW32*%
X32067500Y-78581200D03*
D11*
X37147500Y-78581200D03*
D10*
X42227500Y-78581200D03*
D12*
X33337500Y-76041200D03*
X39687500Y-73501200D03*
%TD*%
D10*
%TO.C,SW69*%
X203517500Y-116681200D03*
D11*
X208597500Y-116681200D03*
D10*
X213677500Y-116681200D03*
D12*
X204787500Y-114141200D03*
X211137500Y-111601200D03*
%TD*%
D10*
%TO.C,SW60*%
X313055000Y-97631200D03*
D11*
X318135000Y-97631200D03*
D10*
X323215000Y-97631200D03*
D12*
X314325000Y-95091200D03*
X320675000Y-92551200D03*
%TD*%
D10*
%TO.C,SW11*%
X217805000Y-40481200D03*
D11*
X222885000Y-40481200D03*
D10*
X227965000Y-40481200D03*
D12*
X219075000Y-37941200D03*
X225425000Y-35401200D03*
%TD*%
D10*
%TO.C,SW16*%
X313055000Y-40481200D03*
D11*
X318135000Y-40481200D03*
D10*
X323215000Y-40481200D03*
D12*
X314325000Y-37941200D03*
X320675000Y-35401200D03*
%TD*%
D10*
%TO.C,SW9*%
X179705000Y-40481200D03*
D11*
X184785000Y-40481200D03*
D10*
X189865000Y-40481200D03*
D12*
X180975000Y-37941200D03*
X187325000Y-35401200D03*
%TD*%
D10*
%TO.C,SW71*%
X241617500Y-116681200D03*
D11*
X246697500Y-116681200D03*
D10*
X251777500Y-116681200D03*
D12*
X242887500Y-114141200D03*
X249237500Y-111601200D03*
%TD*%
D10*
%TO.C,SW31*%
X313055000Y-59531200D03*
D11*
X318135000Y-59531200D03*
D10*
X323215000Y-59531200D03*
D12*
X314325000Y-56991200D03*
X320675000Y-54451200D03*
%TD*%
D10*
%TO.C,SW25*%
X179705000Y-59531200D03*
D11*
X184785000Y-59531200D03*
D10*
X189865000Y-59531200D03*
D12*
X180975000Y-56991200D03*
X187325000Y-54451200D03*
%TD*%
D10*
%TO.C,SW55*%
X193992500Y-97631200D03*
D11*
X199072500Y-97631200D03*
D10*
X204152500Y-97631200D03*
D12*
X195262500Y-95091200D03*
X201612500Y-92551200D03*
%TD*%
D10*
%TO.C,SW2*%
X46355000Y-40481200D03*
D11*
X51435000Y-40481200D03*
D10*
X56515000Y-40481200D03*
D12*
X47625000Y-37941200D03*
X53975000Y-35401200D03*
%TD*%
D10*
%TO.C,SW50*%
X98742500Y-97631200D03*
D11*
X103822500Y-97631200D03*
D10*
X108902500Y-97631200D03*
D12*
X100012500Y-95091200D03*
X106362500Y-92551200D03*
%TD*%
D13*
%TO.C,SW59*%
X275240800Y-90646200D03*
D11*
X275240800Y-105886200D03*
D10*
X282098800Y-97631200D03*
D11*
X287178800Y-97631200D03*
D10*
X292258800Y-97631200D03*
D13*
X299116800Y-90646200D03*
D11*
X299116800Y-105886200D03*
D12*
X283368800Y-95091200D03*
X289718800Y-92551200D03*
%TD*%
D10*
%TO.C,SW7*%
X141605000Y-40481200D03*
D11*
X146685000Y-40481200D03*
D10*
X151765000Y-40481200D03*
D12*
X142875000Y-37941200D03*
X149225000Y-35401200D03*
%TD*%
D10*
%TO.C,SW57*%
X232092500Y-97631200D03*
D11*
X237172500Y-97631200D03*
D10*
X242252500Y-97631200D03*
D12*
X233362500Y-95091200D03*
X239712500Y-92551200D03*
%TD*%
D10*
%TO.C,SW68*%
X184467500Y-116681200D03*
D11*
X189547500Y-116681200D03*
D10*
X194627500Y-116681200D03*
D12*
X185737500Y-114141200D03*
X192087500Y-111601200D03*
%TD*%
D10*
%TO.C,SW52*%
X136842500Y-97631200D03*
D11*
X141922500Y-97631200D03*
D10*
X147002500Y-97631200D03*
D12*
X138112500Y-95091200D03*
X144462500Y-92551200D03*
%TD*%
D10*
%TO.C,SW35*%
X93980000Y-78581200D03*
D11*
X99060000Y-78581200D03*
D10*
X104140000Y-78581200D03*
D12*
X95250000Y-76041200D03*
X101600000Y-73501200D03*
%TD*%
D10*
%TO.C,SW65*%
X127317500Y-116681200D03*
D11*
X132397500Y-116681200D03*
D10*
X137477500Y-116681200D03*
D12*
X128587500Y-114141200D03*
X134937500Y-111601200D03*
%TD*%
D13*
%TO.C,SW61*%
X32353300Y-109696200D03*
D11*
X32353300Y-124936200D03*
D10*
X39211300Y-116681200D03*
D11*
X44291300Y-116681200D03*
D10*
X49371300Y-116681200D03*
D13*
X56229300Y-109696200D03*
D11*
X56229300Y-124936200D03*
D12*
X40481300Y-114141200D03*
X46831300Y-111601200D03*
%TD*%
D10*
%TO.C,SW15*%
X294005000Y-40481200D03*
D11*
X299085000Y-40481200D03*
D10*
X304165000Y-40481200D03*
D12*
X295275000Y-37941200D03*
X301625000Y-35401200D03*
%TD*%
D10*
%TO.C,SW34*%
X74930000Y-78581200D03*
D11*
X80010000Y-78581200D03*
D10*
X85090000Y-78581200D03*
D12*
X76200000Y-76041200D03*
X82550000Y-73501200D03*
%TD*%
D10*
%TO.C,SW74*%
X313055000Y-116681200D03*
D11*
X318135000Y-116681200D03*
D10*
X323215000Y-116681200D03*
D12*
X314325000Y-114141200D03*
X320675000Y-111601200D03*
%TD*%
D10*
%TO.C,SW17*%
X27305000Y-59531200D03*
D11*
X32385000Y-59531200D03*
D10*
X37465000Y-59531200D03*
D12*
X28575000Y-56991200D03*
X34925000Y-54451200D03*
%TD*%
D10*
%TO.C,SW67*%
X165417500Y-116681200D03*
D11*
X170497500Y-116681200D03*
D10*
X175577500Y-116681200D03*
D12*
X166687500Y-114141200D03*
X173037500Y-111601200D03*
%TD*%
D10*
%TO.C,SW4*%
X84455000Y-40481200D03*
D11*
X89535000Y-40481200D03*
D10*
X94615000Y-40481200D03*
D12*
X85725000Y-37941200D03*
X92075000Y-35401200D03*
%TD*%
D10*
%TO.C,SW80*%
X236855000Y-135731200D03*
D11*
X241935000Y-135731200D03*
D10*
X247015000Y-135731200D03*
D12*
X238125000Y-133191200D03*
X244475000Y-130651200D03*
%TD*%
D10*
%TO.C,SW56*%
X213042500Y-97631200D03*
D11*
X218122500Y-97631200D03*
D10*
X223202500Y-97631200D03*
D12*
X214312500Y-95091200D03*
X220662500Y-92551200D03*
%TD*%
D10*
%TO.C,SW47*%
X34448800Y-97631200D03*
D11*
X39528800Y-97631200D03*
D10*
X44608800Y-97631200D03*
D12*
X35718800Y-95091200D03*
X42068800Y-92551200D03*
%TD*%
D10*
%TO.C,SW48*%
X60642500Y-97631200D03*
D11*
X65722500Y-97631200D03*
D10*
X70802500Y-97631200D03*
D12*
X61912500Y-95091200D03*
X68262500Y-92551200D03*
%TD*%
D14*
%TO.C,U1*%
X357407500Y-40127500D03*
X357407500Y-42667500D03*
X357407500Y-45207500D03*
X357407500Y-47747500D03*
X357407500Y-50287500D03*
X357407500Y-52827500D03*
X357407500Y-55367500D03*
X357407500Y-57907500D03*
X357407500Y-60447500D03*
D15*
X354367500Y-60947500D03*
X351827500Y-60947500D03*
X349287500Y-60947500D03*
X346747500Y-60947500D03*
X344207500Y-60947500D03*
D14*
X341167500Y-60447500D03*
X341167500Y-57907500D03*
X341167500Y-55367500D03*
X341167500Y-52827500D03*
X341167500Y-50287500D03*
X341167500Y-47747500D03*
X341167500Y-45207500D03*
X341167500Y-42667500D03*
X341167500Y-40127500D03*
%TD*%
D10*
%TO.C,SW26*%
X198755000Y-59531200D03*
D11*
X203835000Y-59531200D03*
D10*
X208915000Y-59531200D03*
D12*
X200025000Y-56991200D03*
X206375000Y-54451200D03*
%TD*%
D10*
%TO.C,SW73*%
X294005000Y-116681200D03*
D11*
X299085000Y-116681200D03*
D10*
X304165000Y-116681200D03*
D12*
X295275000Y-114141200D03*
X301625000Y-111601200D03*
%TD*%
D10*
%TO.C,SW40*%
X189230000Y-78581200D03*
D11*
X194310000Y-78581200D03*
D10*
X199390000Y-78581200D03*
D12*
X190500000Y-76041200D03*
X196850000Y-73501200D03*
%TD*%
D10*
%TO.C,SW21*%
X103505000Y-59531200D03*
D11*
X108585000Y-59531200D03*
D10*
X113665000Y-59531200D03*
D12*
X104775000Y-56991200D03*
X111125000Y-54451200D03*
%TD*%
D10*
%TO.C,SW72*%
X267811300Y-116681200D03*
D11*
X272891300Y-116681200D03*
D10*
X277971300Y-116681200D03*
D12*
X269081300Y-114141200D03*
X275431300Y-111601200D03*
%TD*%
D10*
%TO.C,SW84*%
X313055000Y-135731200D03*
D11*
X318135000Y-135731200D03*
D10*
X323215000Y-135731200D03*
D12*
X314325000Y-133191200D03*
X320675000Y-130651200D03*
%TD*%
D10*
%TO.C,SW10*%
X198755000Y-40481200D03*
D11*
X203835000Y-40481200D03*
D10*
X208915000Y-40481200D03*
D12*
X200025000Y-37941200D03*
X206375000Y-35401200D03*
%TD*%
D10*
%TO.C,SW27*%
X217805000Y-59531200D03*
D11*
X222885000Y-59531200D03*
D10*
X227965000Y-59531200D03*
D12*
X219075000Y-56991200D03*
X225425000Y-54451200D03*
%TD*%
D10*
%TO.C,SW53*%
X155892500Y-97631200D03*
D11*
X160972500Y-97631200D03*
D10*
X166052500Y-97631200D03*
D12*
X157162500Y-95091200D03*
X163512500Y-92551200D03*
%TD*%
D10*
%TO.C,SW44*%
X265430000Y-78581200D03*
D11*
X270510000Y-78581200D03*
D10*
X275590000Y-78581200D03*
D12*
X266700000Y-76041200D03*
X273050000Y-73501200D03*
%TD*%
D10*
%TO.C,SW29*%
X255905000Y-59531200D03*
D11*
X260985000Y-59531200D03*
D10*
X266065000Y-59531200D03*
D12*
X257175000Y-56991200D03*
X263525000Y-54451200D03*
%TD*%
D10*
%TO.C,SW43*%
X246380000Y-78581200D03*
D11*
X251460000Y-78581200D03*
D10*
X256540000Y-78581200D03*
D12*
X247650000Y-76041200D03*
X254000000Y-73501200D03*
%TD*%
D13*
%TO.C,SW30*%
X277622000Y-52546200D03*
D11*
X277622000Y-67786200D03*
D10*
X284480000Y-59531200D03*
D11*
X289560000Y-59531200D03*
D10*
X294640000Y-59531200D03*
D13*
X301498000Y-52546200D03*
D11*
X301498000Y-67786200D03*
D12*
X285750000Y-56991200D03*
X292100000Y-54451200D03*
%TD*%
D10*
%TO.C,SW18*%
X46355000Y-59531200D03*
D11*
X51435000Y-59531200D03*
D10*
X56515000Y-59531200D03*
D12*
X47625000Y-56991200D03*
X53975000Y-54451200D03*
%TD*%
D10*
%TO.C,SW20*%
X84455000Y-59531200D03*
D11*
X89535000Y-59531200D03*
D10*
X94615000Y-59531200D03*
D12*
X85725000Y-56991200D03*
X92075000Y-54451200D03*
%TD*%
D10*
%TO.C,SW70*%
X222567500Y-116681200D03*
D11*
X227647500Y-116681200D03*
D10*
X232727500Y-116681200D03*
D12*
X223837500Y-114141200D03*
X230187500Y-111601200D03*
%TD*%
D10*
%TO.C,SW45*%
X289242500Y-78581200D03*
D11*
X294322500Y-78581200D03*
D10*
X299402500Y-78581200D03*
D12*
X290512500Y-76041200D03*
X296862500Y-73501200D03*
%TD*%
D10*
%TO.C,SW62*%
X70167500Y-116681200D03*
D11*
X75247500Y-116681200D03*
D10*
X80327500Y-116681200D03*
D12*
X71437500Y-114141200D03*
X77787500Y-111601200D03*
%TD*%
D10*
%TO.C,SW51*%
X117792500Y-97631200D03*
D11*
X122872500Y-97631200D03*
D10*
X127952500Y-97631200D03*
D12*
X119062500Y-95091200D03*
X125412500Y-92551200D03*
%TD*%
D10*
%TO.C,SW64*%
X108267500Y-116681200D03*
D11*
X113347500Y-116681200D03*
D10*
X118427500Y-116681200D03*
D12*
X109537500Y-114141200D03*
X115887500Y-111601200D03*
%TD*%
D10*
%TO.C,SW1*%
X27305000Y-40481200D03*
D11*
X32385000Y-40481200D03*
D10*
X37465000Y-40481200D03*
D12*
X28575000Y-37941200D03*
X34925000Y-35401200D03*
%TD*%
D10*
%TO.C,SW37*%
X132080000Y-78581200D03*
D11*
X137160000Y-78581200D03*
D10*
X142240000Y-78581200D03*
D12*
X133350000Y-76041200D03*
X139700000Y-73501200D03*
%TD*%
D10*
%TO.C,SW24*%
X160655000Y-59531200D03*
D11*
X165735000Y-59531200D03*
D10*
X170815000Y-59531200D03*
D12*
X161925000Y-56991200D03*
X168275000Y-54451200D03*
%TD*%
D10*
%TO.C,SW77*%
X77311300Y-135731200D03*
D11*
X82391300Y-135731200D03*
D10*
X87471300Y-135731200D03*
D12*
X78581300Y-133191200D03*
X84931300Y-130651200D03*
%TD*%
D10*
%TO.C,SW54*%
X174942500Y-97631200D03*
D11*
X180022500Y-97631200D03*
D10*
X185102500Y-97631200D03*
D12*
X176212500Y-95091200D03*
X182562500Y-92551200D03*
%TD*%
D10*
%TO.C,SW8*%
X160655000Y-40481200D03*
D11*
X165735000Y-40481200D03*
D10*
X170815000Y-40481200D03*
D12*
X161925000Y-37941200D03*
X168275000Y-35401200D03*
%TD*%
D10*
%TO.C,SW46*%
X313055000Y-78581200D03*
D11*
X318135000Y-78581200D03*
D10*
X323215000Y-78581200D03*
D12*
X314325000Y-76041200D03*
X320675000Y-73501200D03*
%TD*%
D10*
%TO.C,SW79*%
X217805000Y-135731200D03*
D11*
X222885000Y-135731200D03*
D10*
X227965000Y-135731200D03*
D12*
X219075000Y-133191200D03*
X225425000Y-130651200D03*
%TD*%
D13*
%TO.C,SW78*%
X103828800Y-128746200D03*
D11*
X103828800Y-143986200D03*
D10*
X148748800Y-135731200D03*
D11*
X153828800Y-135731200D03*
D10*
X158908800Y-135731200D03*
D13*
X203828800Y-128746200D03*
D11*
X203828800Y-143986200D03*
D12*
X150018800Y-133191200D03*
X156368800Y-130651200D03*
%TD*%
D10*
%TO.C,SW19*%
X65405000Y-59531200D03*
D11*
X70485000Y-59531200D03*
D10*
X75565000Y-59531200D03*
D12*
X66675000Y-56991200D03*
X73025000Y-54451200D03*
%TD*%
D10*
%TO.C,SW83*%
X294005000Y-135731200D03*
D11*
X299085000Y-135731200D03*
D10*
X304165000Y-135731200D03*
D12*
X295275000Y-133191200D03*
X301625000Y-130651200D03*
%TD*%
D10*
%TO.C,SW33*%
X55880000Y-78581200D03*
D11*
X60960000Y-78581200D03*
D10*
X66040000Y-78581200D03*
D12*
X57150000Y-76041200D03*
X63500000Y-73501200D03*
%TD*%
D10*
%TO.C,SW41*%
X208280000Y-78581200D03*
D11*
X213360000Y-78581200D03*
D10*
X218440000Y-78581200D03*
D12*
X209550000Y-76041200D03*
X215900000Y-73501200D03*
%TD*%
D10*
%TO.C,SW58*%
X251142500Y-97631200D03*
D11*
X256222500Y-97631200D03*
D10*
X261302500Y-97631200D03*
D12*
X252412500Y-95091200D03*
X258762500Y-92551200D03*
%TD*%
D10*
%TO.C,SW63*%
X89217500Y-116681200D03*
D11*
X94297500Y-116681200D03*
D10*
X99377500Y-116681200D03*
D12*
X90487500Y-114141200D03*
X96837500Y-111601200D03*
%TD*%
D16*
%TO.C,D9*%
X194287500Y-38637500D03*
X194287500Y-41937500D03*
%TD*%
%TO.C,D1*%
X42287500Y-38637500D03*
X42287500Y-41937500D03*
%TD*%
%TO.C,D83*%
X308287500Y-133637500D03*
X308287500Y-136937500D03*
%TD*%
%TO.C,D75*%
X47287500Y-134637500D03*
X47287500Y-137937500D03*
%TD*%
%TO.C,D57*%
X246287500Y-95637500D03*
X246287500Y-98937500D03*
%TD*%
%TO.C,D19*%
X80287500Y-57637500D03*
X80287500Y-60937500D03*
%TD*%
%TO.C,D67*%
X180287500Y-114637500D03*
X180287500Y-117937500D03*
%TD*%
%TO.C,D40*%
X203287500Y-76637500D03*
X203287500Y-79937500D03*
%TD*%
%TO.C,D61*%
X65287500Y-114637500D03*
X65287500Y-117937500D03*
%TD*%
%TO.C,D60*%
X327287500Y-95637500D03*
X327287500Y-98937500D03*
%TD*%
%TO.C,D44*%
X279287500Y-76637500D03*
X279287500Y-79937500D03*
%TD*%
%TO.C,D47*%
X56287500Y-95637500D03*
X56287500Y-98937500D03*
%TD*%
%TO.C,D54*%
X189287500Y-95637500D03*
X189287500Y-98937500D03*
%TD*%
%TO.C,D21*%
X118287500Y-57637500D03*
X118287500Y-60937500D03*
%TD*%
%TO.C,D4*%
X99287500Y-38637500D03*
X99287500Y-41937500D03*
%TD*%
%TO.C,D16*%
X327287500Y-38637500D03*
X327287500Y-41937500D03*
%TD*%
%TO.C,D81*%
X270287500Y-133637500D03*
X270287500Y-136937500D03*
%TD*%
%TO.C,D34*%
X89287500Y-76637500D03*
X89287500Y-79937500D03*
%TD*%
%TO.C,D35*%
X108287500Y-76637500D03*
X108287500Y-79937500D03*
%TD*%
%TO.C,D42*%
X241287500Y-76637500D03*
X241287500Y-79937500D03*
%TD*%
%TO.C,D14*%
X289287500Y-38637500D03*
X289287500Y-41937500D03*
%TD*%
%TO.C,D26*%
X213287500Y-57637500D03*
X213287500Y-60937500D03*
%TD*%
%TO.C,D65*%
X142287500Y-114637500D03*
X142287500Y-117937500D03*
%TD*%
%TO.C,D5*%
X118287500Y-38637500D03*
X118287500Y-41937500D03*
%TD*%
%TO.C,D20*%
X99287500Y-57637500D03*
X99287500Y-60937500D03*
%TD*%
%TO.C,D84*%
X327287500Y-133637500D03*
X327287500Y-136937500D03*
%TD*%
%TO.C,D63*%
X103287500Y-115031200D03*
X103287500Y-118331200D03*
%TD*%
%TO.C,D30*%
X308287500Y-57637500D03*
X308287500Y-60937500D03*
%TD*%
%TO.C,D45*%
X308287500Y-76637500D03*
X308287500Y-79937500D03*
%TD*%
%TO.C,D82*%
X289287500Y-133637500D03*
X289287500Y-136937500D03*
%TD*%
%TO.C,D66*%
X161287500Y-114637500D03*
X161287500Y-117937500D03*
%TD*%
%TO.C,D52*%
X151287500Y-95637500D03*
X151287500Y-98937500D03*
%TD*%
%TO.C,D55*%
X208287500Y-97287500D03*
X208287500Y-100587500D03*
%TD*%
%TO.C,D77*%
X94287500Y-134637500D03*
X94287500Y-137937500D03*
%TD*%
%TO.C,D49*%
X94287500Y-95637500D03*
X94287500Y-98937500D03*
%TD*%
%TO.C,D36*%
X127287500Y-76637500D03*
X127287500Y-79937500D03*
%TD*%
%TO.C,D38*%
X165287500Y-77287500D03*
X165287500Y-80587500D03*
%TD*%
%TO.C,D80*%
X251287500Y-133637500D03*
X251287500Y-136937500D03*
%TD*%
%TO.C,D76*%
X70287500Y-134637500D03*
X70287500Y-137937500D03*
%TD*%
%TO.C,D48*%
X75287500Y-95637500D03*
X75287500Y-98937500D03*
%TD*%
%TO.C,D72*%
X289287500Y-116287500D03*
X289287500Y-119587500D03*
%TD*%
%TO.C,D53*%
X170287500Y-95637500D03*
X170287500Y-98937500D03*
%TD*%
%TO.C,D73*%
X308287500Y-115637500D03*
X308287500Y-118937500D03*
%TD*%
%TO.C,D25*%
X194287500Y-57637500D03*
X194287500Y-60937500D03*
%TD*%
%TO.C,D59*%
X308287500Y-95637500D03*
X308287500Y-98937500D03*
%TD*%
%TO.C,D24*%
X175287500Y-57637500D03*
X175287500Y-60937500D03*
%TD*%
%TO.C,D70*%
X237287500Y-114637500D03*
X237287500Y-117937500D03*
%TD*%
%TO.C,D27*%
X232287500Y-57637500D03*
X232287500Y-60937500D03*
%TD*%
%TO.C,D2*%
X61287500Y-38637500D03*
X61287500Y-41937500D03*
%TD*%
%TO.C,D22*%
X137287500Y-57637500D03*
X137287500Y-60937500D03*
%TD*%
%TO.C,D56*%
X227287500Y-95637500D03*
X227287500Y-98937500D03*
%TD*%
%TO.C,D28*%
X251287500Y-57637500D03*
X251287500Y-60937500D03*
%TD*%
%TO.C,D10*%
X213287500Y-38637500D03*
X213287500Y-41937500D03*
%TD*%
%TO.C,D58*%
X265287500Y-95637500D03*
X265287500Y-98937500D03*
%TD*%
%TO.C,D64*%
X122287500Y-114637500D03*
X122287500Y-117937500D03*
%TD*%
%TO.C,D11*%
X232287500Y-38637500D03*
X232287500Y-41937500D03*
%TD*%
%TO.C,D41*%
X222287500Y-76637500D03*
X222287500Y-79937500D03*
%TD*%
%TO.C,D62*%
X84287500Y-114637500D03*
X84287500Y-117937500D03*
%TD*%
%TO.C,D50*%
X113287500Y-95637500D03*
X113287500Y-98937500D03*
%TD*%
%TO.C,D79*%
X232287500Y-133637500D03*
X232287500Y-136937500D03*
%TD*%
%TO.C,D33*%
X70287500Y-76637500D03*
X70287500Y-79937500D03*
%TD*%
%TO.C,D32*%
X51287500Y-76637500D03*
X51287500Y-79937500D03*
%TD*%
%TO.C,D31*%
X327287500Y-57637500D03*
X327287500Y-60937500D03*
%TD*%
%TO.C,D3*%
X80287500Y-38637500D03*
X80287500Y-41937500D03*
%TD*%
%TO.C,D68*%
X199287500Y-114637500D03*
X199287500Y-117937500D03*
%TD*%
%TO.C,D51*%
X132287500Y-96287500D03*
X132287500Y-99587500D03*
%TD*%
%TO.C,D37*%
X146287500Y-76637500D03*
X146287500Y-79937500D03*
%TD*%
%TO.C,D43*%
X260287500Y-76637500D03*
X260287500Y-79937500D03*
%TD*%
%TO.C,D13*%
X270287500Y-38637500D03*
X270287500Y-41937500D03*
%TD*%
%TO.C,D8*%
X175287500Y-38637500D03*
X175287500Y-41937500D03*
%TD*%
%TO.C,D74*%
X327287500Y-114637500D03*
X327287500Y-117937500D03*
%TD*%
%TO.C,D6*%
X137287500Y-38637500D03*
X137287500Y-41937500D03*
%TD*%
%TO.C,D7*%
X155637500Y-38637500D03*
X155637500Y-41937500D03*
%TD*%
%TO.C,D39*%
X184287500Y-76637500D03*
X184287500Y-79937500D03*
%TD*%
%TO.C,D17*%
X41287500Y-57637500D03*
X41287500Y-60937500D03*
%TD*%
%TO.C,D12*%
X251287500Y-38637500D03*
X251287500Y-41937500D03*
%TD*%
%TO.C,D29*%
X270287500Y-57637500D03*
X270287500Y-60937500D03*
%TD*%
%TO.C,D71*%
X256287500Y-115637500D03*
X256287500Y-118937500D03*
%TD*%
%TO.C,D23*%
X156287500Y-57637500D03*
X156287500Y-60937500D03*
%TD*%
%TO.C,D69*%
X218287500Y-114637500D03*
X218287500Y-117937500D03*
%TD*%
%TO.C,D18*%
X60287500Y-57637500D03*
X60287500Y-60937500D03*
%TD*%
%TO.C,D78*%
X213287500Y-133637500D03*
X213287500Y-136937500D03*
%TD*%
%TO.C,D46*%
X327287500Y-76637500D03*
X327287500Y-79937500D03*
%TD*%
%TO.C,D15*%
X308287500Y-38637500D03*
X308287500Y-41937500D03*
%TD*%
M02*
