M48
; DRILL file {KiCad 9.0.7} date 2026-03-06T20:28:12-0800
; FORMAT={-:-/ absolute / metric / decimal}
; #@! TF.CreationDate,2026-03-06T20:28:12-08:00
; #@! TF.GenerationSoftware,Kicad,Pcbnew,9.0.7
; #@! TF.FileFunction,NonPlated,1,2,NPTH
FMAT,2
METRIC
; #@! TA.AperFunction,NonPlated,NPTH,ComponentDrill
T1C1.702
; #@! TA.AperFunction,NonPlated,NPTH,ComponentDrill
T2C3.048
; #@! TA.AperFunction,NonPlated,NPTH,ComponentDrill
T3C3.988
%
G90
G05
T1
X27.305Y-40.481
X27.305Y-59.531
X29.805Y-135.731
X32.067Y-78.581
X34.449Y-97.631
X37.465Y-40.481
X37.465Y-59.531
X39.211Y-116.681
X39.965Y-135.731
X42.227Y-78.581
X44.609Y-97.631
X46.355Y-40.481
X46.355Y-59.531
X49.371Y-116.681
X53.617Y-135.731
X55.88Y-78.581
X56.515Y-40.481
X56.515Y-59.531
X60.642Y-97.631
X63.777Y-135.731
X65.405Y-40.481
X65.405Y-59.531
X66.04Y-78.581
X70.167Y-116.681
X70.802Y-97.631
X74.93Y-78.581
X75.565Y-40.481
X75.565Y-59.531
X77.311Y-135.731
X79.692Y-97.631
X80.328Y-116.681
X84.455Y-40.481
X84.455Y-59.531
X85.09Y-78.581
X87.471Y-135.731
X89.218Y-116.681
X89.852Y-97.631
X93.98Y-78.581
X94.615Y-40.481
X94.615Y-59.531
X98.742Y-97.631
X99.377Y-116.681
X103.505Y-40.481
X103.505Y-59.531
X104.14Y-78.581
X108.267Y-116.681
X108.902Y-97.631
X113.03Y-78.581
X113.665Y-40.481
X113.665Y-59.531
X117.792Y-97.631
X118.427Y-116.681
X122.555Y-40.481
X122.555Y-59.531
X123.19Y-78.581
X127.317Y-116.681
X127.953Y-97.631
X132.08Y-78.581
X132.715Y-40.481
X132.715Y-59.531
X136.843Y-97.631
X137.477Y-116.681
X141.605Y-40.481
X141.605Y-59.531
X142.24Y-78.581
X146.368Y-116.681
X147.002Y-97.631
X148.749Y-135.731
X151.13Y-78.581
X151.765Y-40.481
X151.765Y-59.531
X155.892Y-97.631
X156.528Y-116.681
X158.909Y-135.731
X160.655Y-40.481
X160.655Y-59.531
X161.29Y-78.581
X165.417Y-116.681
X166.052Y-97.631
X170.18Y-78.581
X170.815Y-40.481
X170.815Y-59.531
X174.942Y-97.631
X175.577Y-116.681
X179.705Y-40.481
X179.705Y-59.531
X180.34Y-78.581
X184.468Y-116.681
X185.102Y-97.631
X189.23Y-78.581
X189.865Y-40.481
X189.865Y-59.531
X193.992Y-97.631
X194.627Y-116.681
X198.755Y-40.481
X198.755Y-59.531
X199.39Y-78.581
X203.517Y-116.681
X204.153Y-97.631
X208.28Y-78.581
X208.915Y-40.481
X208.915Y-59.531
X213.042Y-97.631
X213.677Y-116.681
X217.805Y-40.481
X217.805Y-59.531
X217.805Y-135.731
X218.44Y-78.581
X222.567Y-116.681
X223.202Y-97.631
X227.33Y-78.581
X227.965Y-40.481
X227.965Y-59.531
X227.965Y-135.731
X232.093Y-97.631
X232.727Y-116.681
X236.855Y-40.481
X236.855Y-59.531
X236.855Y-135.731
X237.49Y-78.581
X241.617Y-116.681
X242.252Y-97.631
X246.38Y-78.581
X247.015Y-40.481
X247.015Y-59.531
X247.015Y-135.731
X251.142Y-97.631
X251.777Y-116.681
X255.905Y-40.481
X255.905Y-59.531
X255.905Y-135.731
X256.54Y-78.581
X261.303Y-97.631
X265.43Y-78.581
X266.065Y-40.481
X266.065Y-59.531
X266.065Y-135.731
X267.811Y-116.681
X274.955Y-40.481
X274.955Y-135.731
X275.59Y-78.581
X277.971Y-116.681
X282.099Y-97.631
X284.48Y-59.531
X285.115Y-40.481
X285.115Y-135.731
X289.243Y-78.581
X292.259Y-97.631
X294.005Y-40.481
X294.005Y-116.681
X294.005Y-135.731
X294.64Y-59.531
X299.402Y-78.581
X304.165Y-40.481
X304.165Y-116.681
X304.165Y-135.731
X313.055Y-40.481
X313.055Y-59.531
X313.055Y-78.581
X313.055Y-97.631
X313.055Y-116.681
X313.055Y-135.731
X323.215Y-40.481
X323.215Y-59.531
X323.215Y-78.581
X323.215Y-97.631
X323.215Y-116.681
X323.215Y-135.731
T2
X32.353Y-109.696
X56.229Y-109.696
X103.829Y-128.746
X203.829Y-128.746
X275.241Y-90.646
X277.622Y-52.546
X299.117Y-90.646
X301.498Y-52.546
T3
X32.353Y-124.936
X32.385Y-40.481
X32.385Y-59.531
X34.885Y-135.731
X37.148Y-78.581
X39.529Y-97.631
X44.291Y-116.681
X51.435Y-40.481
X51.435Y-59.531
X56.229Y-124.936
X58.697Y-135.731
X60.96Y-78.581
X65.722Y-97.631
X70.485Y-40.481
X70.485Y-59.531
X75.248Y-116.681
X80.01Y-78.581
X82.391Y-135.731
X84.772Y-97.631
X89.535Y-40.481
X89.535Y-59.531
X94.297Y-116.681
X99.06Y-78.581
X103.822Y-97.631
X103.829Y-143.986
X108.585Y-40.481
X108.585Y-59.531
X113.347Y-116.681
X118.11Y-78.581
X122.872Y-97.631
X127.635Y-40.481
X127.635Y-59.531
X132.398Y-116.681
X137.16Y-78.581
X141.922Y-97.631
X146.685Y-40.481
X146.685Y-59.531
X151.447Y-116.681
X153.829Y-135.731
X156.21Y-78.581
X160.972Y-97.631
X165.735Y-40.481
X165.735Y-59.531
X170.498Y-116.681
X175.26Y-78.581
X180.022Y-97.631
X184.785Y-40.481
X184.785Y-59.531
X189.547Y-116.681
X194.31Y-78.581
X199.072Y-97.631
X203.829Y-143.986
X203.835Y-40.481
X203.835Y-59.531
X208.597Y-116.681
X213.36Y-78.581
X218.123Y-97.631
X222.885Y-40.481
X222.885Y-59.531
X222.885Y-135.731
X227.647Y-116.681
X232.41Y-78.581
X237.172Y-97.631
X241.935Y-40.481
X241.935Y-59.531
X241.935Y-135.731
X246.697Y-116.681
X251.46Y-78.581
X256.222Y-97.631
X260.985Y-40.481
X260.985Y-59.531
X260.985Y-135.731
X270.51Y-78.581
X272.891Y-116.681
X275.241Y-105.886
X277.622Y-67.786
X280.035Y-40.481
X280.035Y-135.731
X287.179Y-97.631
X289.56Y-59.531
X294.322Y-78.581
X299.085Y-40.481
X299.085Y-116.681
X299.085Y-135.731
X299.117Y-105.886
X301.498Y-67.786
X318.135Y-40.481
X318.135Y-59.531
X318.135Y-78.581
X318.135Y-97.631
X318.135Y-116.681
X318.135Y-135.731
M30
