%TF.GenerationSoftware,KiCad,Pcbnew,9.0.7*%
%TF.CreationDate,2026-03-06T20:18:46-08:00*%
%TF.ProjectId,75keyboard,37356b65-7962-46f6-9172-642e6b696361,rev?*%
%TF.SameCoordinates,Original*%
%TF.FileFunction,Paste,Bot*%
%TF.FilePolarity,Positive*%
%FSLAX46Y46*%
G04 Gerber Fmt 4.6, Leading zero omitted, Abs format (unit mm)*
G04 Created by KiCad (PCBNEW 9.0.7) date 2026-03-06 20:18:46*
%MOMM*%
%LPD*%
G01*
G04 APERTURE LIST*
G04 Aperture macros list*
%AMRoundRect*
0 Rectangle with rounded corners*
0 $1 Rounding radius*
0 $2 $3 $4 $5 $6 $7 $8 $9 X,Y pos of 4 corners*
0 Add a 4 corners polygon primitive as box body*
4,1,4,$2,$3,$4,$5,$6,$7,$8,$9,$2,$3,0*
0 Add four circle primitives for the rounded corners*
1,1,$1+$1,$2,$3*
1,1,$1+$1,$4,$5*
1,1,$1+$1,$6,$7*
1,1,$1+$1,$8,$9*
0 Add four rect primitives between the rounded corners*
20,1,$1+$1,$2,$3,$4,$5,0*
20,1,$1+$1,$4,$5,$6,$7,0*
20,1,$1+$1,$6,$7,$8,$9,0*
20,1,$1+$1,$8,$9,$2,$3,0*%
G04 Aperture macros list end*
%ADD10RoundRect,0.225000X-0.375000X0.225000X-0.375000X-0.225000X0.375000X-0.225000X0.375000X0.225000X0*%
G04 APERTURE END LIST*
D10*
%TO.C,D9*%
X194287500Y-38637500D03*
X194287500Y-41937500D03*
%TD*%
%TO.C,D1*%
X42287500Y-38637500D03*
X42287500Y-41937500D03*
%TD*%
%TO.C,D83*%
X308287500Y-133637500D03*
X308287500Y-136937500D03*
%TD*%
%TO.C,D75*%
X47287500Y-134637500D03*
X47287500Y-137937500D03*
%TD*%
%TO.C,D57*%
X246287500Y-95637500D03*
X246287500Y-98937500D03*
%TD*%
%TO.C,D19*%
X80287500Y-57637500D03*
X80287500Y-60937500D03*
%TD*%
%TO.C,D67*%
X180287500Y-114637500D03*
X180287500Y-117937500D03*
%TD*%
%TO.C,D40*%
X203287500Y-76637500D03*
X203287500Y-79937500D03*
%TD*%
%TO.C,D61*%
X65287500Y-114637500D03*
X65287500Y-117937500D03*
%TD*%
%TO.C,D60*%
X327287500Y-95637500D03*
X327287500Y-98937500D03*
%TD*%
%TO.C,D44*%
X279287500Y-76637500D03*
X279287500Y-79937500D03*
%TD*%
%TO.C,D47*%
X56287500Y-95637500D03*
X56287500Y-98937500D03*
%TD*%
%TO.C,D54*%
X189287500Y-95637500D03*
X189287500Y-98937500D03*
%TD*%
%TO.C,D21*%
X118287500Y-57637500D03*
X118287500Y-60937500D03*
%TD*%
%TO.C,D4*%
X99287500Y-38637500D03*
X99287500Y-41937500D03*
%TD*%
%TO.C,D16*%
X327287500Y-38637500D03*
X327287500Y-41937500D03*
%TD*%
%TO.C,D81*%
X270287500Y-133637500D03*
X270287500Y-136937500D03*
%TD*%
%TO.C,D34*%
X89287500Y-76637500D03*
X89287500Y-79937500D03*
%TD*%
%TO.C,D35*%
X108287500Y-76637500D03*
X108287500Y-79937500D03*
%TD*%
%TO.C,D42*%
X241287500Y-76637500D03*
X241287500Y-79937500D03*
%TD*%
%TO.C,D14*%
X289287500Y-38637500D03*
X289287500Y-41937500D03*
%TD*%
%TO.C,D26*%
X213287500Y-57637500D03*
X213287500Y-60937500D03*
%TD*%
%TO.C,D65*%
X142287500Y-114637500D03*
X142287500Y-117937500D03*
%TD*%
%TO.C,D5*%
X118287500Y-38637500D03*
X118287500Y-41937500D03*
%TD*%
%TO.C,D20*%
X99287500Y-57637500D03*
X99287500Y-60937500D03*
%TD*%
%TO.C,D84*%
X327287500Y-133637500D03*
X327287500Y-136937500D03*
%TD*%
%TO.C,D63*%
X103287500Y-115031200D03*
X103287500Y-118331200D03*
%TD*%
%TO.C,D30*%
X308287500Y-57637500D03*
X308287500Y-60937500D03*
%TD*%
%TO.C,D45*%
X308287500Y-76637500D03*
X308287500Y-79937500D03*
%TD*%
%TO.C,D82*%
X289287500Y-133637500D03*
X289287500Y-136937500D03*
%TD*%
%TO.C,D66*%
X161287500Y-114637500D03*
X161287500Y-117937500D03*
%TD*%
%TO.C,D52*%
X151287500Y-95637500D03*
X151287500Y-98937500D03*
%TD*%
%TO.C,D55*%
X208287500Y-97287500D03*
X208287500Y-100587500D03*
%TD*%
%TO.C,D77*%
X94287500Y-134637500D03*
X94287500Y-137937500D03*
%TD*%
%TO.C,D49*%
X94287500Y-95637500D03*
X94287500Y-98937500D03*
%TD*%
%TO.C,D36*%
X127287500Y-76637500D03*
X127287500Y-79937500D03*
%TD*%
%TO.C,D38*%
X165287500Y-77287500D03*
X165287500Y-80587500D03*
%TD*%
%TO.C,D80*%
X251287500Y-133637500D03*
X251287500Y-136937500D03*
%TD*%
%TO.C,D76*%
X70287500Y-134637500D03*
X70287500Y-137937500D03*
%TD*%
%TO.C,D48*%
X75287500Y-95637500D03*
X75287500Y-98937500D03*
%TD*%
%TO.C,D72*%
X289287500Y-116287500D03*
X289287500Y-119587500D03*
%TD*%
%TO.C,D53*%
X170287500Y-95637500D03*
X170287500Y-98937500D03*
%TD*%
%TO.C,D73*%
X308287500Y-115637500D03*
X308287500Y-118937500D03*
%TD*%
%TO.C,D25*%
X194287500Y-57637500D03*
X194287500Y-60937500D03*
%TD*%
%TO.C,D59*%
X308287500Y-95637500D03*
X308287500Y-98937500D03*
%TD*%
%TO.C,D24*%
X175287500Y-57637500D03*
X175287500Y-60937500D03*
%TD*%
%TO.C,D70*%
X237287500Y-114637500D03*
X237287500Y-117937500D03*
%TD*%
%TO.C,D27*%
X232287500Y-57637500D03*
X232287500Y-60937500D03*
%TD*%
%TO.C,D2*%
X61287500Y-38637500D03*
X61287500Y-41937500D03*
%TD*%
%TO.C,D22*%
X137287500Y-57637500D03*
X137287500Y-60937500D03*
%TD*%
%TO.C,D56*%
X227287500Y-95637500D03*
X227287500Y-98937500D03*
%TD*%
%TO.C,D28*%
X251287500Y-57637500D03*
X251287500Y-60937500D03*
%TD*%
%TO.C,D10*%
X213287500Y-38637500D03*
X213287500Y-41937500D03*
%TD*%
%TO.C,D58*%
X265287500Y-95637500D03*
X265287500Y-98937500D03*
%TD*%
%TO.C,D64*%
X122287500Y-114637500D03*
X122287500Y-117937500D03*
%TD*%
%TO.C,D11*%
X232287500Y-38637500D03*
X232287500Y-41937500D03*
%TD*%
%TO.C,D41*%
X222287500Y-76637500D03*
X222287500Y-79937500D03*
%TD*%
%TO.C,D62*%
X84287500Y-114637500D03*
X84287500Y-117937500D03*
%TD*%
%TO.C,D50*%
X113287500Y-95637500D03*
X113287500Y-98937500D03*
%TD*%
%TO.C,D79*%
X232287500Y-133637500D03*
X232287500Y-136937500D03*
%TD*%
%TO.C,D33*%
X70287500Y-76637500D03*
X70287500Y-79937500D03*
%TD*%
%TO.C,D32*%
X51287500Y-76637500D03*
X51287500Y-79937500D03*
%TD*%
%TO.C,D31*%
X327287500Y-57637500D03*
X327287500Y-60937500D03*
%TD*%
%TO.C,D3*%
X80287500Y-38637500D03*
X80287500Y-41937500D03*
%TD*%
%TO.C,D68*%
X199287500Y-114637500D03*
X199287500Y-117937500D03*
%TD*%
%TO.C,D51*%
X132287500Y-96287500D03*
X132287500Y-99587500D03*
%TD*%
%TO.C,D37*%
X146287500Y-76637500D03*
X146287500Y-79937500D03*
%TD*%
%TO.C,D43*%
X260287500Y-76637500D03*
X260287500Y-79937500D03*
%TD*%
%TO.C,D13*%
X270287500Y-38637500D03*
X270287500Y-41937500D03*
%TD*%
%TO.C,D8*%
X175287500Y-38637500D03*
X175287500Y-41937500D03*
%TD*%
%TO.C,D74*%
X327287500Y-114637500D03*
X327287500Y-117937500D03*
%TD*%
%TO.C,D6*%
X137287500Y-38637500D03*
X137287500Y-41937500D03*
%TD*%
%TO.C,D7*%
X155637500Y-38637500D03*
X155637500Y-41937500D03*
%TD*%
%TO.C,D39*%
X184287500Y-76637500D03*
X184287500Y-79937500D03*
%TD*%
%TO.C,D17*%
X41287500Y-57637500D03*
X41287500Y-60937500D03*
%TD*%
%TO.C,D12*%
X251287500Y-38637500D03*
X251287500Y-41937500D03*
%TD*%
%TO.C,D29*%
X270287500Y-57637500D03*
X270287500Y-60937500D03*
%TD*%
%TO.C,D71*%
X256287500Y-115637500D03*
X256287500Y-118937500D03*
%TD*%
%TO.C,D23*%
X156287500Y-57637500D03*
X156287500Y-60937500D03*
%TD*%
%TO.C,D69*%
X218287500Y-114637500D03*
X218287500Y-117937500D03*
%TD*%
%TO.C,D18*%
X60287500Y-57637500D03*
X60287500Y-60937500D03*
%TD*%
%TO.C,D78*%
X213287500Y-133637500D03*
X213287500Y-136937500D03*
%TD*%
%TO.C,D46*%
X327287500Y-76637500D03*
X327287500Y-79937500D03*
%TD*%
%TO.C,D15*%
X308287500Y-38637500D03*
X308287500Y-41937500D03*
%TD*%
M02*
