M48
; DRILL file {KiCad 9.0.7} date 2026-03-06T20:28:12-0800
; FORMAT={-:-/ absolute / metric / decimal}
; #@! TF.CreationDate,2026-03-06T20:28:12-08:00
; #@! TF.GenerationSoftware,Kicad,Pcbnew,9.0.7
; #@! TF.FileFunction,Plated,1,2,PTH
FMAT,2
METRIC
; #@! TA.AperFunction,Plated,PTH,ViaDrill
T1C0.300
; #@! TA.AperFunction,Plated,PTH,ComponentDrill
T2C1.000
; #@! TA.AperFunction,Plated,PTH,ComponentDrill
T3C1.524
%
G90
G05
T1
X41.55Y-76.811
X43.462Y-62.452
X48.287Y-107.288
X49.537Y-77.496
X49.645Y-92.267
X55.368Y-62.452
X58.344Y-89.286
X58.344Y-104.193
X61.287Y-38.637
X61.32Y-112.844
X65.287Y-107.288
X70.249Y-106.436
X70.858Y-46.621
X72.572Y-56.246
X76.202Y-104.193
X78.287Y-47.287
X78.512Y-81.127
X79.508Y-53.489
X84.287Y-108.288
X85.131Y-50.526
X92.287Y-107.288
X94.287Y-89.287
X100.012Y-59.287
X100.806Y-61.482
X104.228Y-104.193
X105.965Y-101.289
X108.941Y-86.304
X112.288Y-107.288
X113.288Y-90.287
X114.775Y-106.01
X114.894Y-65.434
X115.453Y-107.175
X117.74Y-55.945
X127.539Y-81.06
X132.323Y-62.161
X132.751Y-97.938
X133.288Y-88.287
X135.727Y-83.324
X137.037Y-59.268
X137.486Y-40.789
X138.704Y-63.285
X141.68Y-107.175
X142.991Y-76.988
X144.288Y-89.287
X146.266Y-77.969
X146.288Y-69.287
X148.89Y-79.082
X152.814Y-86.304
X153.63Y-84.118
X155.453Y-40.741
X156.562Y-63.285
X163.288Y-88.287
X165.288Y-75.441
X170.167Y-73.689
X171.443Y-65.434
X171.443Y-104.193
X173.616Y-58.525
X175.098Y-58.609
X177.396Y-49.611
X180.288Y-68.287
X183.349Y-101.212
X184.353Y-77.944
X185.276Y-62.48
X188.547Y-74.512
X191.288Y-69.287
X191.921Y-80.836
X194.288Y-51.287
X195.254Y-49.273
X198.23Y-116.287
X204.183Y-81.564
X206.139Y-81.364
X208.233Y-98.73
X212.288Y-74.287
X213.288Y-56.287
X213.471Y-131.027
X214.662Y-66.229
X219.064Y-107.175
X222.04Y-122.082
X223.932Y-63.431
X227.829Y-86.344
X230.584Y-62.154
X234.843Y-63.126
X236.922Y-112.844
X239.898Y-83.323
X241.103Y-77.969
X242.874Y-65.434
X245.851Y-100.593
X248.834Y-99.279
X251.215Y-47.545
X251.803Y-49.611
X251.803Y-122.082
X257.288Y-50.287
X259.259Y-119.53
X261.202Y-81.062
X263.709Y-104.193
X264.503Y-112.844
X266.661Y-94.399
X272.637Y-63.431
X276.212Y-113.47
X277.288Y-50.287
X278.59Y-77.969
X289.288Y-38.637
X289.382Y-115.233
X299.424Y-76.811
X303.288Y-50.287
X305.404Y-77.496
X305.404Y-92.267
X306.625Y-58.437
X307.288Y-54.287
X308.09Y-83.323
X308.236Y-65.316
X308.353Y-122.082
X309.415Y-82.527
X309.415Y-95.795
X311.667Y-35.579
X311.939Y-118.414
X315.288Y-119.288
X319.962Y-44.425
X322.288Y-42.288
X323.555Y-74.378
X323.733Y-94.442
X323.922Y-54.2
X326.211Y-81.551
X326.211Y-86.304
X327.288Y-114.741
X328.205Y-112.844
X328.456Y-67.681
X328.943Y-65.434
X329.444Y-83.323
X329.997Y-81.169
X330.029Y-82.427
X331.599Y-64.754
X331.671Y-58.797
X332.051Y-60.045
X353.778Y-38.365
X359.288Y-60.287
X359.288Y-115.288
X360.288Y-58.287
X360.288Y-115.288
X361.288Y-54.287
X361.288Y-105.288
X362.288Y-56.287
X362.288Y-111.288
T2
X341.667Y-40.127
X341.667Y-42.667
X341.667Y-45.207
X341.667Y-47.747
X341.667Y-50.287
X341.667Y-52.828
X341.667Y-55.367
X341.667Y-57.907
X341.667Y-60.447
X344.207Y-60.447
X346.748Y-60.447
X349.287Y-60.447
X351.827Y-60.447
X354.368Y-60.447
X356.907Y-40.127
X356.907Y-42.667
X356.907Y-45.207
X356.907Y-47.747
X356.907Y-50.287
X356.907Y-52.828
X356.907Y-55.367
X356.907Y-57.907
X356.907Y-60.447
T3
X28.575Y-37.941
X28.575Y-56.991
X31.075Y-133.191
X33.337Y-76.041
X34.925Y-35.401
X34.925Y-54.451
X35.719Y-95.091
X37.425Y-130.651
X39.688Y-73.501
X40.481Y-114.141
X42.069Y-92.551
X46.831Y-111.601
X47.625Y-37.941
X47.625Y-56.991
X53.975Y-35.401
X53.975Y-54.451
X54.887Y-133.191
X57.15Y-76.041
X61.237Y-130.651
X61.912Y-95.091
X63.5Y-73.501
X66.675Y-37.941
X66.675Y-56.991
X68.263Y-92.551
X71.438Y-114.141
X73.025Y-35.401
X73.025Y-54.451
X76.2Y-76.041
X77.787Y-111.601
X78.581Y-133.191
X80.962Y-95.091
X82.55Y-73.501
X84.931Y-130.651
X85.725Y-37.941
X85.725Y-56.991
X87.312Y-92.551
X90.487Y-114.141
X92.075Y-35.401
X92.075Y-54.451
X95.25Y-76.041
X96.837Y-111.601
X100.012Y-95.091
X101.6Y-73.501
X104.775Y-37.941
X104.775Y-56.991
X106.362Y-92.551
X109.537Y-114.141
X111.125Y-35.401
X111.125Y-54.451
X114.3Y-76.041
X115.887Y-111.601
X119.062Y-95.091
X120.65Y-73.501
X123.825Y-37.941
X123.825Y-56.991
X125.412Y-92.551
X128.588Y-114.141
X130.175Y-35.401
X130.175Y-54.451
X133.35Y-76.041
X134.938Y-111.601
X138.112Y-95.091
X139.7Y-73.501
X142.875Y-37.941
X142.875Y-56.991
X144.463Y-92.551
X147.637Y-114.141
X149.225Y-35.401
X149.225Y-54.451
X150.019Y-133.191
X152.4Y-76.041
X153.987Y-111.601
X156.369Y-130.651
X157.162Y-95.091
X158.75Y-73.501
X161.925Y-37.941
X161.925Y-56.991
X163.512Y-92.551
X166.688Y-114.141
X168.275Y-35.401
X168.275Y-54.451
X171.45Y-76.041
X173.037Y-111.601
X176.213Y-95.091
X177.8Y-73.501
X180.975Y-37.941
X180.975Y-56.991
X182.562Y-92.551
X185.737Y-114.141
X187.325Y-35.401
X187.325Y-54.451
X190.5Y-76.041
X192.087Y-111.601
X195.262Y-95.091
X196.85Y-73.501
X200.025Y-37.941
X200.025Y-56.991
X201.612Y-92.551
X204.787Y-114.141
X206.375Y-35.401
X206.375Y-54.451
X209.55Y-76.041
X211.137Y-111.601
X214.312Y-95.091
X215.9Y-73.501
X219.075Y-37.941
X219.075Y-56.991
X219.075Y-133.191
X220.662Y-92.551
X223.837Y-114.141
X225.425Y-35.401
X225.425Y-54.451
X225.425Y-130.651
X228.6Y-76.041
X230.188Y-111.601
X233.362Y-95.091
X234.95Y-73.501
X238.125Y-37.941
X238.125Y-56.991
X238.125Y-133.191
X239.712Y-92.551
X242.887Y-114.141
X244.475Y-35.401
X244.475Y-54.451
X244.475Y-130.651
X247.65Y-76.041
X249.237Y-111.601
X252.412Y-95.091
X254.0Y-73.501
X257.175Y-37.941
X257.175Y-56.991
X257.175Y-133.191
X258.762Y-92.551
X263.525Y-35.401
X263.525Y-54.451
X263.525Y-130.651
X266.7Y-76.041
X269.081Y-114.141
X273.05Y-73.501
X275.431Y-111.601
X276.225Y-37.941
X276.225Y-133.191
X282.575Y-35.401
X282.575Y-130.651
X283.369Y-95.091
X285.75Y-56.991
X289.719Y-92.551
X290.512Y-76.041
X292.1Y-54.451
X295.275Y-37.941
X295.275Y-114.141
X295.275Y-133.191
X296.863Y-73.501
X301.625Y-35.401
X301.625Y-111.601
X301.625Y-130.651
X314.325Y-37.941
X314.325Y-56.991
X314.325Y-76.041
X314.325Y-95.091
X314.325Y-114.141
X314.325Y-133.191
X320.675Y-35.401
X320.675Y-54.451
X320.675Y-73.501
X320.675Y-92.551
X320.675Y-111.601
X320.675Y-130.651
M30
