%TF.GenerationSoftware,KiCad,Pcbnew,9.0.7*%
%TF.CreationDate,2026-03-06T20:18:46-08:00*%
%TF.ProjectId,75keyboard,37356b65-7962-46f6-9172-642e6b696361,rev?*%
%TF.SameCoordinates,Original*%
%TF.FileFunction,Copper,L1,Top*%
%TF.FilePolarity,Positive*%
%FSLAX46Y46*%
G04 Gerber Fmt 4.6, Leading zero omitted, Abs format (unit mm)*
G04 Created by KiCad (PCBNEW 9.0.7) date 2026-03-06 20:18:46*
%MOMM*%
%LPD*%
G01*
G04 APERTURE LIST*
%TA.AperFunction,ComponentPad*%
%ADD10C,2.300000*%
%TD*%
%TA.AperFunction,ComponentPad*%
%ADD11O,2.500000X1.500000*%
%TD*%
%TA.AperFunction,ComponentPad*%
%ADD12O,1.500000X2.500000*%
%TD*%
%TA.AperFunction,ViaPad*%
%ADD13C,0.600000*%
%TD*%
%TA.AperFunction,Conductor*%
%ADD14C,0.200000*%
%TD*%
G04 APERTURE END LIST*
D10*
%TO.P,SW82,1,1*%
%TO.N,ROW6*%
X276225000Y-133191200D03*
%TO.P,SW82,2,2*%
%TO.N,Net-(D82-A)*%
X282575000Y-130651200D03*
%TD*%
%TO.P,SW75,1,1*%
%TO.N,ROW6*%
X31075000Y-133191200D03*
%TO.P,SW75,2,2*%
%TO.N,Net-(D75-A)*%
X37425000Y-130651200D03*
%TD*%
%TO.P,SW5,1,1*%
%TO.N,ROW0*%
X104775000Y-37941200D03*
%TO.P,SW5,2,2*%
%TO.N,Net-(D5-A)*%
X111125000Y-35401200D03*
%TD*%
%TO.P,SW81,1,1*%
%TO.N,ROW6*%
X257175000Y-133191200D03*
%TO.P,SW81,2,2*%
%TO.N,Net-(D81-A)*%
X263525000Y-130651200D03*
%TD*%
%TO.P,SW42,1,1*%
%TO.N,ROW3*%
X228600000Y-76041200D03*
%TO.P,SW42,2,2*%
%TO.N,Net-(D42-A)*%
X234950000Y-73501200D03*
%TD*%
%TO.P,SW13,1,1*%
%TO.N,ROW1*%
X257175000Y-37941200D03*
%TO.P,SW13,2,2*%
%TO.N,Net-(D13-A)*%
X263525000Y-35401200D03*
%TD*%
%TO.P,SW28,1,1*%
%TO.N,ROW2*%
X238125000Y-56991200D03*
%TO.P,SW28,2,2*%
%TO.N,Net-(D28-A)*%
X244475000Y-54451200D03*
%TD*%
%TO.P,SW66,1,1*%
%TO.N,ROW5*%
X147637500Y-114141200D03*
%TO.P,SW66,2,2*%
%TO.N,Net-(D66-A)*%
X153987500Y-111601200D03*
%TD*%
%TO.P,SW14,1,1*%
%TO.N,ROW1*%
X276225000Y-37941200D03*
%TO.P,SW14,2,2*%
%TO.N,Net-(D14-A)*%
X282575000Y-35401200D03*
%TD*%
%TO.P,SW76,1,1*%
%TO.N,ROW6*%
X54887500Y-133191200D03*
%TO.P,SW76,2,2*%
%TO.N,Net-(D76-A)*%
X61237500Y-130651200D03*
%TD*%
%TO.P,SW39,1,1*%
%TO.N,ROW3*%
X171450000Y-76041200D03*
%TO.P,SW39,2,2*%
%TO.N,Net-(D39-A)*%
X177800000Y-73501200D03*
%TD*%
%TO.P,SW23,1,1*%
%TO.N,ROW1*%
X142875000Y-56991200D03*
%TO.P,SW23,2,2*%
%TO.N,Net-(D23-A)*%
X149225000Y-54451200D03*
%TD*%
%TO.P,SW12,1,1*%
%TO.N,ROW0*%
X238125000Y-37941200D03*
%TO.P,SW12,2,2*%
%TO.N,Net-(D12-A)*%
X244475000Y-35401200D03*
%TD*%
%TO.P,SW49,1,1*%
%TO.N,ROW4*%
X80962500Y-95091200D03*
%TO.P,SW49,2,2*%
%TO.N,Net-(D49-A)*%
X87312500Y-92551200D03*
%TD*%
%TO.P,SW36,1,1*%
%TO.N,ROW2*%
X114300000Y-76041200D03*
%TO.P,SW36,2,2*%
%TO.N,Net-(D36-A)*%
X120650000Y-73501200D03*
%TD*%
%TO.P,SW3,1,1*%
%TO.N,ROW0*%
X66675000Y-37941200D03*
%TO.P,SW3,2,2*%
%TO.N,Net-(D3-A)*%
X73025000Y-35401200D03*
%TD*%
%TO.P,SW6,1,1*%
%TO.N,ROW0*%
X123825000Y-37941200D03*
%TO.P,SW6,2,2*%
%TO.N,Net-(D6-A)*%
X130175000Y-35401200D03*
%TD*%
%TO.P,SW22,1,1*%
%TO.N,ROW1*%
X123825000Y-56991200D03*
%TO.P,SW22,2,2*%
%TO.N,Net-(D22-A)*%
X130175000Y-54451200D03*
%TD*%
%TO.P,SW38,1,1*%
%TO.N,ROW3*%
X152400000Y-76041200D03*
%TO.P,SW38,2,2*%
%TO.N,Net-(D38-A)*%
X158750000Y-73501200D03*
%TD*%
%TO.P,SW32,1,1*%
%TO.N,ROW2*%
X33337500Y-76041200D03*
%TO.P,SW32,2,2*%
%TO.N,Net-(D32-A)*%
X39687500Y-73501200D03*
%TD*%
%TO.P,SW69,1,1*%
%TO.N,ROW5*%
X204787500Y-114141200D03*
%TO.P,SW69,2,2*%
%TO.N,Net-(D69-A)*%
X211137500Y-111601200D03*
%TD*%
%TO.P,SW60,1,1*%
%TO.N,ROW4*%
X314325000Y-95091200D03*
%TO.P,SW60,2,2*%
%TO.N,Net-(D60-A)*%
X320675000Y-92551200D03*
%TD*%
%TO.P,SW11,1,1*%
%TO.N,ROW0*%
X219075000Y-37941200D03*
%TO.P,SW11,2,2*%
%TO.N,Net-(D11-A)*%
X225425000Y-35401200D03*
%TD*%
%TO.P,SW16,1,1*%
%TO.N,ROW1*%
X314325000Y-37941200D03*
%TO.P,SW16,2,2*%
%TO.N,Net-(D16-A)*%
X320675000Y-35401200D03*
%TD*%
%TO.P,SW9,1,1*%
%TO.N,ROW0*%
X180975000Y-37941200D03*
%TO.P,SW9,2,2*%
%TO.N,Net-(D9-A)*%
X187325000Y-35401200D03*
%TD*%
%TO.P,SW71,1,1*%
%TO.N,ROW5*%
X242887500Y-114141200D03*
%TO.P,SW71,2,2*%
%TO.N,Net-(D71-A)*%
X249237500Y-111601200D03*
%TD*%
%TO.P,SW31,1,1*%
%TO.N,ROW2*%
X314325000Y-56991200D03*
%TO.P,SW31,2,2*%
%TO.N,Net-(D31-A)*%
X320675000Y-54451200D03*
%TD*%
%TO.P,SW25,1,1*%
%TO.N,ROW2*%
X180975000Y-56991200D03*
%TO.P,SW25,2,2*%
%TO.N,Net-(D25-A)*%
X187325000Y-54451200D03*
%TD*%
%TO.P,SW55,1,1*%
%TO.N,ROW4*%
X195262500Y-95091200D03*
%TO.P,SW55,2,2*%
%TO.N,Net-(D55-A)*%
X201612500Y-92551200D03*
%TD*%
%TO.P,SW2,1,1*%
%TO.N,ROW0*%
X47625000Y-37941200D03*
%TO.P,SW2,2,2*%
%TO.N,Net-(D2-A)*%
X53975000Y-35401200D03*
%TD*%
%TO.P,SW50,1,1*%
%TO.N,ROW4*%
X100012500Y-95091200D03*
%TO.P,SW50,2,2*%
%TO.N,Net-(D50-A)*%
X106362500Y-92551200D03*
%TD*%
%TO.P,SW59,1,1*%
%TO.N,ROW4*%
X283368800Y-95091200D03*
%TO.P,SW59,2,2*%
%TO.N,Net-(D59-A)*%
X289718800Y-92551200D03*
%TD*%
%TO.P,SW7,1,1*%
%TO.N,ROW0*%
X142875000Y-37941200D03*
%TO.P,SW7,2,2*%
%TO.N,Net-(D7-A)*%
X149225000Y-35401200D03*
%TD*%
%TO.P,SW57,1,1*%
%TO.N,ROW4*%
X233362500Y-95091200D03*
%TO.P,SW57,2,2*%
%TO.N,Net-(D57-A)*%
X239712500Y-92551200D03*
%TD*%
%TO.P,SW68,1,1*%
%TO.N,ROW5*%
X185737500Y-114141200D03*
%TO.P,SW68,2,2*%
%TO.N,Net-(D68-A)*%
X192087500Y-111601200D03*
%TD*%
%TO.P,SW52,1,1*%
%TO.N,ROW4*%
X138112500Y-95091200D03*
%TO.P,SW52,2,2*%
%TO.N,Net-(D52-A)*%
X144462500Y-92551200D03*
%TD*%
%TO.P,SW35,1,1*%
%TO.N,ROW2*%
X95250000Y-76041200D03*
%TO.P,SW35,2,2*%
%TO.N,Net-(D35-A)*%
X101600000Y-73501200D03*
%TD*%
%TO.P,SW65,1,1*%
%TO.N,ROW5*%
X128587500Y-114141200D03*
%TO.P,SW65,2,2*%
%TO.N,Net-(D65-A)*%
X134937500Y-111601200D03*
%TD*%
%TO.P,SW61,1,1*%
%TO.N,ROW5*%
X40481300Y-114141200D03*
%TO.P,SW61,2,2*%
%TO.N,Net-(D61-A)*%
X46831300Y-111601200D03*
%TD*%
%TO.P,SW15,1,1*%
%TO.N,ROW1*%
X295275000Y-37941200D03*
%TO.P,SW15,2,2*%
%TO.N,Net-(D15-A)*%
X301625000Y-35401200D03*
%TD*%
%TO.P,SW34,1,1*%
%TO.N,ROW2*%
X76200000Y-76041200D03*
%TO.P,SW34,2,2*%
%TO.N,Net-(D34-A)*%
X82550000Y-73501200D03*
%TD*%
%TO.P,SW74,1,1*%
%TO.N,ROW6*%
X314325000Y-114141200D03*
%TO.P,SW74,2,2*%
%TO.N,Net-(D74-A)*%
X320675000Y-111601200D03*
%TD*%
%TO.P,SW17,1,1*%
%TO.N,ROW1*%
X28575000Y-56991200D03*
%TO.P,SW17,2,2*%
%TO.N,Net-(D17-A)*%
X34925000Y-54451200D03*
%TD*%
%TO.P,SW67,1,1*%
%TO.N,ROW5*%
X166687500Y-114141200D03*
%TO.P,SW67,2,2*%
%TO.N,Net-(D67-A)*%
X173037500Y-111601200D03*
%TD*%
%TO.P,SW4,1,1*%
%TO.N,ROW0*%
X85725000Y-37941200D03*
%TO.P,SW4,2,2*%
%TO.N,Net-(D4-A)*%
X92075000Y-35401200D03*
%TD*%
%TO.P,SW80,1,1*%
%TO.N,ROW6*%
X238125000Y-133191200D03*
%TO.P,SW80,2,2*%
%TO.N,Net-(D80-A)*%
X244475000Y-130651200D03*
%TD*%
%TO.P,SW56,1,1*%
%TO.N,ROW4*%
X214312500Y-95091200D03*
%TO.P,SW56,2,2*%
%TO.N,Net-(D56-A)*%
X220662500Y-92551200D03*
%TD*%
%TO.P,SW47,1,1*%
%TO.N,ROW3*%
X35718800Y-95091200D03*
%TO.P,SW47,2,2*%
%TO.N,Net-(D47-A)*%
X42068800Y-92551200D03*
%TD*%
%TO.P,SW48,1,1*%
%TO.N,ROW3*%
X61912500Y-95091200D03*
%TO.P,SW48,2,2*%
%TO.N,Net-(D48-A)*%
X68262500Y-92551200D03*
%TD*%
D11*
%TO.P,U1,1,0*%
%TO.N,ROW0*%
X357407500Y-40127500D03*
%TO.P,U1,2,1*%
%TO.N,ROW1*%
X357407500Y-42667500D03*
%TO.P,U1,3,2*%
%TO.N,ROW2*%
X357407500Y-45207500D03*
%TO.P,U1,4,3*%
%TO.N,ROW3*%
X357407500Y-47747500D03*
%TO.P,U1,5,4*%
%TO.N,ROW4*%
X357407500Y-50287500D03*
%TO.P,U1,6,5*%
%TO.N,ROW5*%
X357407500Y-52827500D03*
%TO.P,U1,7,6*%
%TO.N,ROW6*%
X357407500Y-55367500D03*
%TO.P,U1,8,7*%
%TO.N,COL0*%
X357407500Y-57907500D03*
%TO.P,U1,9,8*%
%TO.N,COL1*%
X357407500Y-60447500D03*
D12*
%TO.P,U1,10,9*%
%TO.N,COL2*%
X354367500Y-60947500D03*
%TO.P,U1,11,10*%
%TO.N,COL3*%
X351827500Y-60947500D03*
%TO.P,U1,12,11*%
%TO.N,COL4*%
X349287500Y-60947500D03*
%TO.P,U1,13,12*%
%TO.N,COL5*%
X346747500Y-60947500D03*
%TO.P,U1,14,13*%
%TO.N,COL6*%
X344207500Y-60947500D03*
D11*
%TO.P,U1,15,14*%
%TO.N,COL7*%
X341167500Y-60447500D03*
%TO.P,U1,16,15*%
%TO.N,COL8*%
X341167500Y-57907500D03*
%TO.P,U1,17,26*%
%TO.N,COL9*%
X341167500Y-55367500D03*
%TO.P,U1,18,27*%
%TO.N,COL10*%
X341167500Y-52827500D03*
%TO.P,U1,19,28*%
%TO.N,COL11*%
X341167500Y-50287500D03*
%TO.P,U1,20,29*%
%TO.N,unconnected-(U1-29-Pad20)*%
X341167500Y-47747500D03*
%TO.P,U1,21,3V3*%
%TO.N,unconnected-(U1-3V3-Pad21)*%
X341167500Y-45207500D03*
%TO.P,U1,22,GND*%
%TO.N,unconnected-(U1-GND-Pad22)*%
X341167500Y-42667500D03*
%TO.P,U1,23,5V*%
%TO.N,unconnected-(U1-5V-Pad23)*%
X341167500Y-40127500D03*
%TD*%
D10*
%TO.P,SW26,1,1*%
%TO.N,ROW2*%
X200025000Y-56991200D03*
%TO.P,SW26,2,2*%
%TO.N,Net-(D26-A)*%
X206375000Y-54451200D03*
%TD*%
%TO.P,SW73,1,1*%
%TO.N,ROW6*%
X295275000Y-114141200D03*
%TO.P,SW73,2,2*%
%TO.N,Net-(D73-A)*%
X301625000Y-111601200D03*
%TD*%
%TO.P,SW40,1,1*%
%TO.N,ROW3*%
X190500000Y-76041200D03*
%TO.P,SW40,2,2*%
%TO.N,Net-(D40-A)*%
X196850000Y-73501200D03*
%TD*%
%TO.P,SW21,1,1*%
%TO.N,ROW1*%
X104775000Y-56991200D03*
%TO.P,SW21,2,2*%
%TO.N,Net-(D21-A)*%
X111125000Y-54451200D03*
%TD*%
%TO.P,SW72,1,1*%
%TO.N,ROW5*%
X269081300Y-114141200D03*
%TO.P,SW72,2,2*%
%TO.N,Net-(D72-A)*%
X275431300Y-111601200D03*
%TD*%
%TO.P,SW84,1,1*%
%TO.N,ROW6*%
X314325000Y-133191200D03*
%TO.P,SW84,2,2*%
%TO.N,Net-(D84-A)*%
X320675000Y-130651200D03*
%TD*%
%TO.P,SW10,1,1*%
%TO.N,ROW0*%
X200025000Y-37941200D03*
%TO.P,SW10,2,2*%
%TO.N,Net-(D10-A)*%
X206375000Y-35401200D03*
%TD*%
%TO.P,SW27,1,1*%
%TO.N,ROW2*%
X219075000Y-56991200D03*
%TO.P,SW27,2,2*%
%TO.N,Net-(D27-A)*%
X225425000Y-54451200D03*
%TD*%
%TO.P,SW53,1,1*%
%TO.N,ROW4*%
X157162500Y-95091200D03*
%TO.P,SW53,2,2*%
%TO.N,Net-(D53-A)*%
X163512500Y-92551200D03*
%TD*%
%TO.P,SW44,1,1*%
%TO.N,ROW3*%
X266700000Y-76041200D03*
%TO.P,SW44,2,2*%
%TO.N,Net-(D44-A)*%
X273050000Y-73501200D03*
%TD*%
%TO.P,SW29,1,1*%
%TO.N,ROW2*%
X257175000Y-56991200D03*
%TO.P,SW29,2,2*%
%TO.N,Net-(D29-A)*%
X263525000Y-54451200D03*
%TD*%
%TO.P,SW43,1,1*%
%TO.N,ROW3*%
X247650000Y-76041200D03*
%TO.P,SW43,2,2*%
%TO.N,Net-(D43-A)*%
X254000000Y-73501200D03*
%TD*%
%TO.P,SW30,1,1*%
%TO.N,ROW2*%
X285750000Y-56991200D03*
%TO.P,SW30,2,2*%
%TO.N,Net-(D30-A)*%
X292100000Y-54451200D03*
%TD*%
%TO.P,SW18,1,1*%
%TO.N,ROW1*%
X47625000Y-56991200D03*
%TO.P,SW18,2,2*%
%TO.N,Net-(D18-A)*%
X53975000Y-54451200D03*
%TD*%
%TO.P,SW20,1,1*%
%TO.N,ROW1*%
X85725000Y-56991200D03*
%TO.P,SW20,2,2*%
%TO.N,Net-(D20-A)*%
X92075000Y-54451200D03*
%TD*%
%TO.P,SW70,1,1*%
%TO.N,ROW5*%
X223837500Y-114141200D03*
%TO.P,SW70,2,2*%
%TO.N,Net-(D70-A)*%
X230187500Y-111601200D03*
%TD*%
%TO.P,SW45,1,1*%
%TO.N,ROW3*%
X290512500Y-76041200D03*
%TO.P,SW45,2,2*%
%TO.N,Net-(D45-A)*%
X296862500Y-73501200D03*
%TD*%
%TO.P,SW62,1,1*%
%TO.N,ROW5*%
X71437500Y-114141200D03*
%TO.P,SW62,2,2*%
%TO.N,Net-(D62-A)*%
X77787500Y-111601200D03*
%TD*%
%TO.P,SW51,1,1*%
%TO.N,ROW4*%
X119062500Y-95091200D03*
%TO.P,SW51,2,2*%
%TO.N,Net-(D51-A)*%
X125412500Y-92551200D03*
%TD*%
%TO.P,SW64,1,1*%
%TO.N,ROW5*%
X109537500Y-114141200D03*
%TO.P,SW64,2,2*%
%TO.N,Net-(D64-A)*%
X115887500Y-111601200D03*
%TD*%
%TO.P,SW1,1,1*%
%TO.N,ROW0*%
X28575000Y-37941200D03*
%TO.P,SW1,2,2*%
%TO.N,Net-(D1-A)*%
X34925000Y-35401200D03*
%TD*%
%TO.P,SW37,1,1*%
%TO.N,ROW3*%
X133350000Y-76041200D03*
%TO.P,SW37,2,2*%
%TO.N,Net-(D37-A)*%
X139700000Y-73501200D03*
%TD*%
%TO.P,SW24,1,1*%
%TO.N,ROW1*%
X161925000Y-56991200D03*
%TO.P,SW24,2,2*%
%TO.N,Net-(D24-A)*%
X168275000Y-54451200D03*
%TD*%
%TO.P,SW77,1,1*%
%TO.N,ROW6*%
X78581300Y-133191200D03*
%TO.P,SW77,2,2*%
%TO.N,Net-(D77-A)*%
X84931300Y-130651200D03*
%TD*%
%TO.P,SW54,1,1*%
%TO.N,ROW4*%
X176212500Y-95091200D03*
%TO.P,SW54,2,2*%
%TO.N,Net-(D54-A)*%
X182562500Y-92551200D03*
%TD*%
%TO.P,SW8,1,1*%
%TO.N,ROW0*%
X161925000Y-37941200D03*
%TO.P,SW8,2,2*%
%TO.N,Net-(D8-A)*%
X168275000Y-35401200D03*
%TD*%
%TO.P,SW46,1,1*%
%TO.N,ROW3*%
X314325000Y-76041200D03*
%TO.P,SW46,2,2*%
%TO.N,Net-(D46-A)*%
X320675000Y-73501200D03*
%TD*%
%TO.P,SW79,1,1*%
%TO.N,ROW6*%
X219075000Y-133191200D03*
%TO.P,SW79,2,2*%
%TO.N,Net-(D79-A)*%
X225425000Y-130651200D03*
%TD*%
%TO.P,SW78,1,1*%
%TO.N,ROW6*%
X150018800Y-133191200D03*
%TO.P,SW78,2,2*%
%TO.N,Net-(D78-A)*%
X156368800Y-130651200D03*
%TD*%
%TO.P,SW19,1,1*%
%TO.N,ROW1*%
X66675000Y-56991200D03*
%TO.P,SW19,2,2*%
%TO.N,Net-(D19-A)*%
X73025000Y-54451200D03*
%TD*%
%TO.P,SW83,1,1*%
%TO.N,ROW6*%
X295275000Y-133191200D03*
%TO.P,SW83,2,2*%
%TO.N,Net-(D83-A)*%
X301625000Y-130651200D03*
%TD*%
%TO.P,SW33,1,1*%
%TO.N,ROW2*%
X57150000Y-76041200D03*
%TO.P,SW33,2,2*%
%TO.N,Net-(D33-A)*%
X63500000Y-73501200D03*
%TD*%
%TO.P,SW41,1,1*%
%TO.N,ROW3*%
X209550000Y-76041200D03*
%TO.P,SW41,2,2*%
%TO.N,Net-(D41-A)*%
X215900000Y-73501200D03*
%TD*%
%TO.P,SW58,1,1*%
%TO.N,ROW4*%
X252412500Y-95091200D03*
%TO.P,SW58,2,2*%
%TO.N,Net-(D58-A)*%
X258762500Y-92551200D03*
%TD*%
%TO.P,SW63,1,1*%
%TO.N,ROW5*%
X90487500Y-114141200D03*
%TO.P,SW63,2,2*%
%TO.N,Net-(D63-A)*%
X96837500Y-111601200D03*
%TD*%
D13*
%TO.N,ROW6*%
X362288000Y-56287500D03*
X362288000Y-111288000D03*
%TO.N,ROW5*%
X361288000Y-54287500D03*
X361288000Y-105288000D03*
%TO.N,ROW3*%
X133288000Y-88287500D03*
X170167300Y-73688800D03*
X188547400Y-74512200D03*
%TO.N,ROW2*%
X180288000Y-68287500D03*
%TO.N,ROW1*%
X257288000Y-50287500D03*
%TO.N,Net-(D78-A)*%
X213471200Y-131026700D03*
%TO.N,Net-(D61-A)*%
X61320200Y-112844000D03*
%TO.N,Net-(D60-A)*%
X323732800Y-94441900D03*
%TO.N,Net-(D59-A)*%
X305404000Y-92267200D03*
%TO.N,Net-(D47-A)*%
X49645300Y-92267200D03*
%TO.N,Net-(D46-A)*%
X323555400Y-74378200D03*
%TO.N,Net-(D45-A)*%
X305404000Y-77495800D03*
X299424200Y-76810700D03*
%TO.N,Net-(D37-A)*%
X146266400Y-77969400D03*
X142991300Y-76987900D03*
%TO.N,Net-(D32-A)*%
X49537100Y-77495800D03*
X41550400Y-76810700D03*
%TO.N,Net-(D31-A)*%
X323922300Y-54199900D03*
%TO.N,Net-(D19-A)*%
X79508200Y-53489100D03*
%TO.N,COL11*%
X289381600Y-115232500D03*
X175097600Y-58609500D03*
X251803400Y-49611500D03*
X177395900Y-49611500D03*
X328204700Y-112844000D03*
X132323300Y-62160700D03*
X127538900Y-81060500D03*
X78512100Y-81126800D03*
X276211900Y-113470200D03*
%TO.N,COL10*%
X308353100Y-122082200D03*
X259258900Y-119530000D03*
X311938700Y-118414300D03*
X58343900Y-89285700D03*
X108941000Y-86304200D03*
X329444000Y-83322700D03*
X308090000Y-83322700D03*
X148889600Y-79081900D03*
X234842500Y-63126400D03*
X156561800Y-63285000D03*
%TO.N,COL9*%
X264502700Y-112844000D03*
X236921900Y-112844000D03*
X326210900Y-86304200D03*
X266660900Y-94398600D03*
X100806200Y-61482400D03*
X137037300Y-59267600D03*
X214662100Y-66229100D03*
X138704000Y-63285000D03*
%TO.N,COL8*%
X263708600Y-104193200D03*
X309415000Y-95794700D03*
X72571800Y-56246200D03*
X117740500Y-55944800D03*
X330029300Y-82427300D03*
X309415000Y-82527300D03*
X195253700Y-49273500D03*
X219064100Y-107174700D03*
%TO.N,COL7*%
X278590100Y-77969400D03*
X100012100Y-59287500D03*
X251803400Y-122082200D03*
X198230000Y-116287500D03*
X173616100Y-58525000D03*
X55367600Y-62452200D03*
X329997200Y-81169100D03*
X222040400Y-122082200D03*
X227828600Y-86343900D03*
%TO.N,COL6*%
X208233000Y-98729700D03*
X183348500Y-101211700D03*
X331670500Y-58797000D03*
X245850800Y-100593400D03*
X85130600Y-50526200D03*
X155452800Y-40741500D03*
X248833900Y-99279400D03*
X326210900Y-81551300D03*
X261202000Y-81061700D03*
%TO.N,COL5*%
X241102700Y-77969400D03*
X137485900Y-40788800D03*
X191920600Y-80835600D03*
X70858100Y-46620700D03*
X206138600Y-81364100D03*
X153630100Y-84118100D03*
X242874500Y-65433700D03*
X308235800Y-65316300D03*
X328455700Y-67681200D03*
X331599000Y-64754000D03*
%TO.N,COL4*%
X223932000Y-63431100D03*
X332050900Y-60045400D03*
X328943500Y-65433700D03*
X141680300Y-107174700D03*
X171443300Y-104193200D03*
X114774800Y-106010000D03*
X171443300Y-65433700D03*
X272637500Y-63431100D03*
X43462400Y-62452200D03*
X114893600Y-65433700D03*
X104228300Y-104193200D03*
%TO.N,COL3*%
X70249100Y-106436000D03*
X115453300Y-107174700D03*
X319962500Y-44425000D03*
X251214800Y-47544700D03*
X152813700Y-86304200D03*
X204182600Y-81563900D03*
X239898200Y-83322700D03*
%TO.N,COL2*%
X132751400Y-97938000D03*
X184353200Y-77944000D03*
X105964700Y-101288800D03*
X135726600Y-83323800D03*
X311667400Y-35579000D03*
X353778200Y-38364800D03*
X58343900Y-104193200D03*
X76201700Y-104193200D03*
X230583900Y-62153900D03*
X185275600Y-62480000D03*
X306624800Y-58436600D03*
%TO.N,COL1*%
X212288000Y-74287500D03*
X113288000Y-90287500D03*
X78287500Y-47287500D03*
X322288000Y-42287500D03*
X359288000Y-115288000D03*
X84287500Y-108288000D03*
X327288000Y-114741000D03*
X289288000Y-38637500D03*
X307288000Y-54287500D03*
X359288000Y-60287500D03*
X213288000Y-56287500D03*
X112288000Y-107288000D03*
X165288000Y-75441200D03*
X61287500Y-38637500D03*
X163288000Y-88287500D03*
%TO.N,COL0*%
X277288000Y-50287500D03*
X65287500Y-107288000D03*
X303288000Y-50287500D03*
X315288000Y-119288000D03*
X191288000Y-69287500D03*
X146288000Y-69287500D03*
X92287500Y-107288000D03*
X360288000Y-115288000D03*
X360288000Y-58287500D03*
X194288000Y-51287500D03*
X144288000Y-89287500D03*
X48287500Y-107288000D03*
X94287500Y-89287500D03*
%TD*%
D14*
%TO.N,ROW6*%
X314325000Y-114141000D02*
X295275000Y-114141000D01*
X361368000Y-55367500D02*
X362288000Y-56287500D01*
X356908000Y-55367500D02*
X361368000Y-55367500D01*
X359434000Y-114141000D02*
X314325000Y-114141000D01*
X362288000Y-111288000D02*
X359434000Y-114141000D01*
X31075000Y-133191200D02*
X31075000Y-133191000D01*
X54881900Y-133185600D02*
X54887500Y-133191200D01*
X31080400Y-133185600D02*
X54881900Y-133185600D01*
X31075000Y-133191000D02*
X31080400Y-133185600D01*
X295275000Y-114141200D02*
X295275000Y-114141000D01*
X238119400Y-133185600D02*
X238125000Y-133191200D01*
X219080600Y-133185600D02*
X238119400Y-133185600D01*
X219075000Y-133191200D02*
X219080600Y-133185600D01*
X356907500Y-55367500D02*
X356908000Y-55367500D01*
X276225000Y-133191200D02*
X276225000Y-133191000D01*
X314325000Y-114141000D02*
X314325000Y-114141200D01*
X257169400Y-133185600D02*
X257175000Y-133191200D01*
X238130600Y-133185600D02*
X257169400Y-133185600D01*
X238125000Y-133191200D02*
X238130600Y-133185600D01*
X276219400Y-133185600D02*
X276225000Y-133191200D01*
X257180600Y-133185600D02*
X276219400Y-133185600D01*
X257175000Y-133191200D02*
X257180600Y-133185600D01*
X314325000Y-133191200D02*
X314325000Y-133187100D01*
X314325000Y-114141200D02*
X314325000Y-133187100D01*
X295275000Y-133191200D02*
X295275000Y-133191000D01*
X314325000Y-133191000D02*
X295275000Y-133191000D01*
X314325000Y-133187100D02*
X314325000Y-133191000D01*
X295275000Y-133191000D02*
X276225000Y-133191000D01*
X54893100Y-133185600D02*
X54887500Y-133191200D01*
X78575700Y-133185600D02*
X54893100Y-133185600D01*
X78581300Y-133191200D02*
X78575700Y-133185600D01*
X150018600Y-133191000D02*
X150018800Y-133191200D01*
X129378600Y-133191000D02*
X150018600Y-133191000D01*
X276225000Y-133191000D02*
X129378600Y-133191000D01*
X129378600Y-133191000D02*
X31075000Y-133191000D01*
%TO.N,ROW5*%
X359828000Y-52827500D02*
X361288000Y-54287500D01*
X356908000Y-52827500D02*
X359828000Y-52827500D01*
X204781900Y-114135600D02*
X204787500Y-114141200D01*
X185743100Y-114135600D02*
X204781900Y-114135600D01*
X185737500Y-114141200D02*
X185743100Y-114135600D01*
X155432300Y-114135600D02*
X155437700Y-114141000D01*
X138112500Y-114135600D02*
X155432300Y-114135600D01*
X147631900Y-114135600D02*
X138112500Y-114135600D01*
X147637500Y-114141200D02*
X147631900Y-114135600D01*
X128593100Y-114135600D02*
X128587500Y-114141200D01*
X138112500Y-114135600D02*
X128593100Y-114135600D01*
X269081300Y-114140700D02*
X269083100Y-114138900D01*
X269081300Y-114141200D02*
X269081300Y-114140700D01*
X274935000Y-108288000D02*
X269083100Y-114138900D01*
X329288000Y-108288000D02*
X274935000Y-108288000D01*
X332288000Y-105288000D02*
X329288000Y-108288000D01*
X361288000Y-105288000D02*
X332288000Y-105288000D01*
X250682300Y-114135600D02*
X250687700Y-114141000D01*
X242893100Y-114135600D02*
X250682300Y-114135600D01*
X242887500Y-114141200D02*
X242893100Y-114135600D01*
X269081000Y-114141000D02*
X250687700Y-114141000D01*
X269083100Y-114138900D02*
X269081000Y-114141000D01*
X40481300Y-114141200D02*
X40481300Y-114141000D01*
X356907500Y-52827500D02*
X356908000Y-52827500D01*
X242881900Y-114135600D02*
X242887500Y-114141200D01*
X223843100Y-114135600D02*
X242881900Y-114135600D01*
X223837500Y-114141200D02*
X223843100Y-114135600D01*
X109537300Y-114141000D02*
X109537500Y-114141200D01*
X105330300Y-114141000D02*
X109537300Y-114141000D01*
X155437700Y-114141000D02*
X105330300Y-114141000D01*
X166687300Y-114141000D02*
X155437700Y-114141000D01*
X166687500Y-114141200D02*
X166687300Y-114141000D01*
X90487300Y-114141000D02*
X90487500Y-114141200D01*
X86261600Y-114141000D02*
X90487300Y-114141000D01*
X105330300Y-114141000D02*
X86261600Y-114141000D01*
X185737700Y-114141000D02*
X185737500Y-114141200D01*
X186783000Y-114141000D02*
X185737700Y-114141000D01*
X250687700Y-114141000D02*
X186783000Y-114141000D01*
X186783000Y-114141000D02*
X155437700Y-114141000D01*
X71437300Y-114141000D02*
X71437500Y-114141200D01*
X68452900Y-114141000D02*
X71437300Y-114141000D01*
X86261600Y-114141000D02*
X68452900Y-114141000D01*
X68452900Y-114141000D02*
X40481300Y-114141000D01*
%TO.N,ROW4*%
X119062500Y-95091200D02*
X80962500Y-95091200D01*
X138112500Y-95091200D02*
X119062500Y-95091200D01*
X176212500Y-95091200D02*
X138112500Y-95091200D01*
X195262500Y-95091200D02*
X176212500Y-95091200D01*
X356907500Y-50287500D02*
X356907700Y-50287300D01*
X356908000Y-50287500D02*
X356907700Y-50287300D01*
X324484000Y-95091200D02*
X314325000Y-95091200D01*
X330688000Y-88886500D02*
X324484000Y-95091200D01*
X330688000Y-42287500D02*
X330688000Y-88886500D01*
X331688000Y-41287500D02*
X330688000Y-42287500D01*
X342144000Y-41287500D02*
X331688000Y-41287500D01*
X344288000Y-39144200D02*
X342144000Y-41287500D01*
X351683000Y-39144200D02*
X344288000Y-39144200D01*
X354322000Y-41783200D02*
X351683000Y-39144200D01*
X354322000Y-47701900D02*
X354322000Y-41783200D01*
X356907700Y-50287300D02*
X354322000Y-47701900D01*
X252412500Y-95091200D02*
X233362500Y-95091200D01*
X233362500Y-95091200D02*
X195262500Y-95091200D01*
X314325000Y-95091200D02*
X283368800Y-95091200D01*
X283368800Y-95091200D02*
X252412500Y-95091200D01*
%TO.N,ROW3*%
X61912500Y-95091200D02*
X35718800Y-95091200D01*
X68716200Y-88287500D02*
X61912500Y-95091200D01*
X133288000Y-88287500D02*
X68716200Y-88287500D01*
X152600000Y-75841200D02*
X152400000Y-76041200D01*
X158463100Y-75841200D02*
X152600000Y-75841200D01*
X160615500Y-73688800D02*
X158463100Y-75841200D01*
X170167300Y-73688800D02*
X160615500Y-73688800D01*
X152400000Y-76041200D02*
X133350000Y-76041200D01*
X209550000Y-76041200D02*
X152400000Y-76041200D01*
X228600000Y-76041200D02*
X209550000Y-76041200D01*
X314325000Y-76041200D02*
X247650000Y-76041200D01*
X247650000Y-76041200D02*
X228600000Y-76041200D01*
X356907500Y-47747500D02*
X356907700Y-47747300D01*
X356908000Y-47747500D02*
X356907700Y-47747300D01*
X318316000Y-72050200D02*
X314325000Y-76041200D01*
X326525000Y-72050200D02*
X318316000Y-72050200D01*
X330288000Y-68287500D02*
X326525000Y-72050200D01*
X330288000Y-40287500D02*
X330288000Y-68287500D01*
X331832000Y-38743200D02*
X330288000Y-40287500D01*
X351849000Y-38743200D02*
X331832000Y-38743200D01*
X354723000Y-41617200D02*
X351849000Y-38743200D01*
X354723000Y-45562900D02*
X354723000Y-41617200D01*
X356907700Y-47747300D02*
X354723000Y-45562900D01*
X173283100Y-73688800D02*
X170167300Y-73688800D01*
X174553300Y-74959000D02*
X173283100Y-73688800D01*
X188100600Y-74959000D02*
X174553300Y-74959000D01*
X188547400Y-74512200D02*
X188100600Y-74959000D01*
%TO.N,ROW2*%
X122054000Y-68287500D02*
X114300000Y-76041200D01*
X180288000Y-68287500D02*
X122054000Y-68287500D01*
X356907500Y-45207500D02*
X356907700Y-45207300D01*
X356908000Y-45207500D02*
X356907700Y-45207300D01*
X315288000Y-56028700D02*
X314325000Y-56991200D01*
X315288000Y-50287500D02*
X315288000Y-56028700D01*
X325288000Y-40287500D02*
X315288000Y-50287500D01*
X325288000Y-39287500D02*
X325288000Y-40287500D01*
X326233000Y-38342200D02*
X325288000Y-39287500D01*
X352015000Y-38342200D02*
X326233000Y-38342200D01*
X355124000Y-41451100D02*
X352015000Y-38342200D01*
X355124000Y-43423900D02*
X355124000Y-41451100D01*
X356907700Y-45207300D02*
X355124000Y-43423900D01*
X219075000Y-56991200D02*
X200025000Y-56991200D01*
X200025000Y-56991200D02*
X180975000Y-56991200D01*
X95250000Y-76041200D02*
X33337500Y-76041200D01*
X114300000Y-76041200D02*
X95250000Y-76041200D01*
X238125000Y-56991200D02*
X219075000Y-56991200D01*
X314325000Y-56991200D02*
X257175000Y-56991200D01*
X257175000Y-56991200D02*
X238125000Y-56991200D01*
%TO.N,ROW1*%
X168629000Y-50287500D02*
X161925000Y-56991200D01*
X257288000Y-50287500D02*
X168629000Y-50287500D01*
X314325000Y-37941200D02*
X295275000Y-37941200D01*
X295275000Y-37941200D02*
X276225000Y-37941200D01*
X276225000Y-37941200D02*
X257175000Y-37941200D01*
X257175000Y-38175000D02*
X257288000Y-38287500D01*
X257175000Y-37941200D02*
X257175000Y-38175000D01*
X161925000Y-56991200D02*
X142875000Y-56991200D01*
X142875000Y-56991200D02*
X123825000Y-56991200D01*
X47625000Y-56991200D02*
X28575000Y-56991200D01*
X66675000Y-56991200D02*
X47625000Y-56991200D01*
X356907500Y-42667500D02*
X356907700Y-42667300D01*
X356908000Y-42667500D02*
X356907700Y-42667300D01*
X352181000Y-37941200D02*
X314325000Y-37941200D01*
X356907700Y-42667300D02*
X352181000Y-37941200D01*
X123825000Y-56991200D02*
X104775000Y-56991200D01*
X104775000Y-56991200D02*
X85725000Y-56991200D01*
X85725000Y-56991200D02*
X66675000Y-56991200D01*
%TO.N,ROW0*%
X238125000Y-37941200D02*
X200025000Y-37941200D01*
X85725000Y-37941200D02*
X66675000Y-37941200D01*
X66675000Y-37941200D02*
X28575000Y-37941200D01*
X104775000Y-37941200D02*
X85725000Y-37941200D01*
X356908000Y-40127500D02*
X356907800Y-40127200D01*
X245779000Y-30287500D02*
X238125000Y-37941200D01*
X347068000Y-30287500D02*
X245779000Y-30287500D01*
X356907800Y-40127200D02*
X347068000Y-30287500D01*
X356907500Y-40127500D02*
X356907800Y-40127200D01*
X200025000Y-37941200D02*
X142875000Y-37941200D01*
X142875000Y-37941200D02*
X123825000Y-37941200D01*
X123825000Y-37941200D02*
X104775000Y-37941200D01*
%TO.N,Net-(D78-A)*%
X156744300Y-131026700D02*
X156368800Y-130651200D01*
X213471200Y-131026700D02*
X156744300Y-131026700D01*
%TO.N,Net-(D61-A)*%
X48074100Y-112844000D02*
X46831300Y-111601200D01*
X61320200Y-112844000D02*
X48074100Y-112844000D01*
%TO.N,Net-(D60-A)*%
X321842100Y-92551200D02*
X323732800Y-94441900D01*
X320675000Y-92551200D02*
X321842100Y-92551200D01*
%TO.N,Net-(D59-A)*%
X289945900Y-92778300D02*
X289718800Y-92551200D01*
X304892900Y-92778300D02*
X289945900Y-92778300D01*
X305404000Y-92267200D02*
X304892900Y-92778300D01*
%TO.N,Net-(D47-A)*%
X42352800Y-92267200D02*
X42068800Y-92551200D01*
X49645300Y-92267200D02*
X42352800Y-92267200D01*
%TO.N,Net-(D46-A)*%
X321552000Y-74378200D02*
X320675000Y-73501200D01*
X323555400Y-74378200D02*
X321552000Y-74378200D01*
%TO.N,Net-(D45-A)*%
X304718900Y-76810700D02*
X305404000Y-77495800D01*
X299424200Y-76810700D02*
X304718900Y-76810700D01*
%TO.N,Net-(D37-A)*%
X145284900Y-76987900D02*
X146266400Y-77969400D01*
X142991300Y-76987900D02*
X145284900Y-76987900D01*
%TO.N,Net-(D32-A)*%
X48852000Y-76810700D02*
X49537100Y-77495800D01*
X41550400Y-76810700D02*
X48852000Y-76810700D01*
%TO.N,Net-(D31-A)*%
X323671000Y-54451200D02*
X323922300Y-54199900D01*
X320675000Y-54451200D02*
X323671000Y-54451200D01*
%TO.N,Net-(D19-A)*%
X73987100Y-53489100D02*
X73025000Y-54451200D01*
X79508200Y-53489100D02*
X73987100Y-53489100D01*
%TO.N,COL11*%
X291932900Y-112681200D02*
X289381600Y-115232500D01*
X296356800Y-112681200D02*
X291932900Y-112681200D01*
X296773600Y-113098000D02*
X296356800Y-112681200D01*
X312828200Y-113098000D02*
X296773600Y-113098000D01*
X313267800Y-112658400D02*
X312828200Y-113098000D01*
X315625400Y-112658400D02*
X313267800Y-112658400D01*
X316071100Y-113104100D02*
X315625400Y-112658400D01*
X327944600Y-113104100D02*
X316071100Y-113104100D01*
X328204700Y-112844000D02*
X327944600Y-113104100D01*
X127472600Y-81126800D02*
X78512100Y-81126800D01*
X127538900Y-81060500D02*
X127472600Y-81126800D01*
X287619300Y-113470200D02*
X289381600Y-115232500D01*
X276211900Y-113470200D02*
X287619300Y-113470200D01*
X171180000Y-62527100D02*
X175097600Y-58609500D01*
X132689700Y-62527100D02*
X171180000Y-62527100D01*
X132323300Y-62160700D02*
X132689700Y-62527100D01*
X251539700Y-49875200D02*
X251803400Y-49611500D01*
X177659600Y-49875200D02*
X251539700Y-49875200D01*
X177395900Y-49611500D02*
X177659600Y-49875200D01*
%TO.N,COL10*%
X261811100Y-122082200D02*
X259258900Y-119530000D01*
X308353100Y-122082200D02*
X261811100Y-122082200D01*
X311938700Y-118496600D02*
X311938700Y-118414300D01*
X308353100Y-122082200D02*
X311938700Y-118496600D01*
X329444000Y-83322700D02*
X308090000Y-83322700D01*
X61325400Y-86304200D02*
X108941000Y-86304200D01*
X58343900Y-89285700D02*
X61325400Y-86304200D01*
X145588400Y-82383100D02*
X148889600Y-79081900D01*
X112862100Y-82383100D02*
X145588400Y-82383100D01*
X108941000Y-86304200D02*
X112862100Y-82383100D01*
X234537800Y-62821700D02*
X234842500Y-63126400D01*
X208422500Y-62821700D02*
X234537800Y-62821700D01*
X207959200Y-63285000D02*
X208422500Y-62821700D01*
X156561800Y-63285000D02*
X207959200Y-63285000D01*
%TO.N,COL9*%
X237106300Y-112659600D02*
X236921900Y-112844000D01*
X244980100Y-112659600D02*
X237106300Y-112659600D01*
X245423600Y-113103100D02*
X244980100Y-112659600D01*
X264243600Y-113103100D02*
X245423600Y-113103100D01*
X264502700Y-112844000D02*
X264243600Y-113103100D01*
X274755300Y-86304200D02*
X266660900Y-94398600D01*
X326210900Y-86304200D02*
X274755300Y-86304200D01*
X135277800Y-61027100D02*
X137037300Y-59267600D01*
X131754900Y-61027100D02*
X135277800Y-61027100D01*
X130678600Y-62103400D02*
X131754900Y-61027100D01*
X101427200Y-62103400D02*
X130678600Y-62103400D01*
X100806200Y-61482400D02*
X101427200Y-62103400D01*
X141648100Y-66229100D02*
X214662100Y-66229100D01*
X138704000Y-63285000D02*
X141648100Y-66229100D01*
%TO.N,COL8*%
X110565600Y-55944800D02*
X117740500Y-55944800D01*
X110115500Y-55494700D02*
X110565600Y-55944800D01*
X103379300Y-55494700D02*
X110115500Y-55494700D01*
X102962600Y-55911400D02*
X103379300Y-55494700D01*
X87185200Y-55911400D02*
X102962600Y-55911400D01*
X86810100Y-55536300D02*
X87185200Y-55911400D01*
X80865900Y-55536300D02*
X86810100Y-55536300D01*
X80156000Y-56246200D02*
X80865900Y-55536300D01*
X72571800Y-56246200D02*
X80156000Y-56246200D01*
X309515000Y-82427300D02*
X309415000Y-82527300D01*
X330029300Y-82427300D02*
X309515000Y-82427300D01*
X194969000Y-48988800D02*
X195253700Y-49273500D01*
X166045700Y-48988800D02*
X194969000Y-48988800D01*
X163212400Y-51822100D02*
X166045700Y-48988800D01*
X121863200Y-51822100D02*
X163212400Y-51822100D01*
X117740500Y-55944800D02*
X121863200Y-51822100D01*
X302872600Y-102337100D02*
X309415000Y-95794700D01*
X265564700Y-102337100D02*
X302872600Y-102337100D01*
X263708600Y-104193200D02*
X265564700Y-102337100D01*
X222045600Y-104193200D02*
X219064100Y-107174700D01*
X263708600Y-104193200D02*
X222045600Y-104193200D01*
%TO.N,COL7*%
X204024700Y-122082200D02*
X222040400Y-122082200D01*
X198230000Y-116287500D02*
X204024700Y-122082200D01*
X222040400Y-122082200D02*
X251803400Y-122082200D01*
X55367600Y-62452200D02*
X100012100Y-62452200D01*
X100012100Y-59287500D02*
X100012100Y-62452200D01*
X173616100Y-58723400D02*
X173616100Y-58525000D01*
X170214100Y-62125400D02*
X173616100Y-58723400D01*
X135954100Y-62125400D02*
X170214100Y-62125400D01*
X135350800Y-61522100D02*
X135954100Y-62125400D01*
X132110600Y-61522100D02*
X135350800Y-61522100D01*
X131127600Y-62505100D02*
X132110600Y-61522100D01*
X100065000Y-62505100D02*
X131127600Y-62505100D01*
X100012100Y-62452200D02*
X100065000Y-62505100D01*
X325740700Y-81170700D02*
X278590100Y-81170700D01*
X325961800Y-80949600D02*
X325740700Y-81170700D01*
X329777700Y-80949600D02*
X325961800Y-80949600D01*
X329997200Y-81169100D02*
X329777700Y-80949600D01*
X278590100Y-81170700D02*
X278590100Y-77969400D01*
X251398500Y-86343900D02*
X227828600Y-86343900D01*
X257364800Y-80377600D02*
X251398500Y-86343900D01*
X261369100Y-80377600D02*
X257364800Y-80377600D01*
X262162200Y-81170700D02*
X261369100Y-80377600D01*
X278590100Y-81170700D02*
X262162200Y-81170700D01*
%TO.N,COL6*%
X332269300Y-59395800D02*
X344207500Y-59395800D01*
X331670500Y-58797000D02*
X332269300Y-59395800D01*
X344207500Y-60447500D02*
X344207500Y-59395800D01*
X183966800Y-100593400D02*
X183348500Y-101211700D01*
X208233000Y-100593400D02*
X183966800Y-100593400D01*
X208233000Y-98729700D02*
X208233000Y-100593400D01*
X208233000Y-100593400D02*
X245850800Y-100593400D01*
X247519900Y-100593400D02*
X248833900Y-99279400D01*
X245850800Y-100593400D02*
X247519900Y-100593400D01*
X145668100Y-50526200D02*
X85130600Y-50526200D01*
X155452800Y-40741500D02*
X145668100Y-50526200D01*
X261760100Y-81619800D02*
X261202000Y-81061700D01*
X326142400Y-81619800D02*
X261760100Y-81619800D01*
X326210900Y-81551300D02*
X326142400Y-81619800D01*
%TO.N,COL5*%
X206138600Y-81195800D02*
X206138600Y-81364100D01*
X237876300Y-81195800D02*
X206138600Y-81195800D01*
X241102700Y-77969400D02*
X237876300Y-81195800D01*
X131654000Y-46620700D02*
X70858100Y-46620700D01*
X137485900Y-40788800D02*
X131654000Y-46620700D01*
X188638100Y-84118100D02*
X153630100Y-84118100D01*
X191920600Y-80835600D02*
X188638100Y-84118100D01*
X192280800Y-81195800D02*
X191920600Y-80835600D01*
X203699900Y-81195800D02*
X192280800Y-81195800D01*
X203933500Y-80962200D02*
X203699900Y-81195800D01*
X205905000Y-80962200D02*
X203933500Y-80962200D01*
X206138600Y-81195800D02*
X205905000Y-80962200D01*
X344492700Y-64754000D02*
X346747500Y-62499200D01*
X331599000Y-64754000D02*
X344492700Y-64754000D01*
X308118500Y-65199000D02*
X308235800Y-65316300D01*
X243109200Y-65199000D02*
X308118500Y-65199000D01*
X242874500Y-65433700D02*
X243109200Y-65199000D01*
X346747500Y-60447500D02*
X346747500Y-62499200D01*
X310600700Y-67681200D02*
X308235800Y-65316300D01*
X328455700Y-67681200D02*
X310600700Y-67681200D01*
%TO.N,COL4*%
X349287500Y-60447500D02*
X349287500Y-59395800D01*
X168461800Y-107174700D02*
X171443300Y-104193200D01*
X141680300Y-107174700D02*
X168461800Y-107174700D01*
X334504700Y-62499200D02*
X332050900Y-60045400D01*
X344643200Y-62499200D02*
X334504700Y-62499200D01*
X345259200Y-61883200D02*
X344643200Y-62499200D01*
X345259200Y-60362400D02*
X345259200Y-61883200D01*
X346225800Y-59395800D02*
X345259200Y-60362400D01*
X349287500Y-59395800D02*
X346225800Y-59395800D01*
X326940900Y-63431100D02*
X328943500Y-65433700D01*
X272637500Y-63431100D02*
X326940900Y-63431100D01*
X46443900Y-65433700D02*
X114893600Y-65433700D01*
X43462400Y-62452200D02*
X46443900Y-65433700D01*
X221929400Y-65433700D02*
X171443300Y-65433700D01*
X223932000Y-63431100D02*
X221929400Y-65433700D01*
X272340500Y-63728100D02*
X272637500Y-63431100D01*
X224229000Y-63728100D02*
X272340500Y-63728100D01*
X223932000Y-63431100D02*
X224229000Y-63728100D01*
X140515600Y-106010000D02*
X114774800Y-106010000D01*
X141680300Y-107174700D02*
X140515600Y-106010000D01*
X112958000Y-104193200D02*
X104228300Y-104193200D01*
X114774800Y-106010000D02*
X112958000Y-104193200D01*
%TO.N,COL3*%
X114890700Y-106612100D02*
X115453300Y-107174700D01*
X70425200Y-106612100D02*
X114890700Y-106612100D01*
X70249100Y-106436000D02*
X70425200Y-106612100D01*
X254334500Y-44425000D02*
X251214800Y-47544700D01*
X319962500Y-44425000D02*
X254334500Y-44425000D01*
X199442300Y-86304200D02*
X204182600Y-81563900D01*
X152813700Y-86304200D02*
X199442300Y-86304200D01*
X205941400Y-83322700D02*
X204182600Y-81563900D01*
X239898200Y-83322700D02*
X205941400Y-83322700D01*
%TO.N,COL2*%
X352751100Y-37337700D02*
X353778200Y-38364800D01*
X317096100Y-37337700D02*
X352751100Y-37337700D01*
X315337400Y-35579000D02*
X317096100Y-37337700D01*
X311667400Y-35579000D02*
X315337400Y-35579000D01*
X58343900Y-104193200D02*
X76201700Y-104193200D01*
X103060300Y-104193200D02*
X105964700Y-101288800D01*
X76201700Y-104193200D02*
X103060300Y-104193200D01*
X178973400Y-83323800D02*
X184353200Y-77944000D01*
X135726600Y-83323800D02*
X178973400Y-83323800D01*
X185601700Y-62153900D02*
X230583900Y-62153900D01*
X185275600Y-62480000D02*
X185601700Y-62153900D01*
X302907500Y-62153900D02*
X306624800Y-58436600D01*
X230583900Y-62153900D02*
X302907500Y-62153900D01*
X129400600Y-101288800D02*
X105964700Y-101288800D01*
X132751400Y-97938000D02*
X129400600Y-101288800D01*
%TO.N,COL1*%
X321288000Y-43287500D02*
X322288000Y-42287500D01*
X293938000Y-43287500D02*
X321288000Y-43287500D01*
X289288000Y-38637500D02*
X293938000Y-43287500D01*
X327834000Y-115288000D02*
X327288000Y-114741000D01*
X359288000Y-115288000D02*
X327834000Y-115288000D01*
X357068000Y-60287500D02*
X359288000Y-60287500D01*
X356908000Y-60447500D02*
X357068000Y-60287500D01*
X217288000Y-56287500D02*
X213288000Y-56287500D01*
X218035000Y-55540200D02*
X217288000Y-56287500D01*
X219676000Y-55540200D02*
X218035000Y-55540200D01*
X220423000Y-56287500D02*
X219676000Y-55540200D01*
X236288000Y-56287500D02*
X220423000Y-56287500D01*
X237035000Y-55540200D02*
X236288000Y-56287500D01*
X238726000Y-55540200D02*
X237035000Y-55540200D01*
X239473000Y-56287500D02*
X238726000Y-55540200D01*
X255288000Y-56287500D02*
X239473000Y-56287500D01*
X256035000Y-55540200D02*
X255288000Y-56287500D01*
X257776000Y-55540200D02*
X256035000Y-55540200D01*
X258523000Y-56287500D02*
X257776000Y-55540200D01*
X284288000Y-56287500D02*
X258523000Y-56287500D01*
X285035000Y-55540200D02*
X284288000Y-56287500D01*
X286351000Y-55540200D02*
X285035000Y-55540200D01*
X286713000Y-55902200D02*
X286351000Y-55540200D01*
X305673000Y-55902200D02*
X286713000Y-55902200D01*
X307288000Y-54287500D02*
X305673000Y-55902200D01*
X161288000Y-90287500D02*
X113288000Y-90287500D01*
X163288000Y-88287500D02*
X161288000Y-90287500D01*
X69937500Y-47287500D02*
X61287500Y-38637500D01*
X78287500Y-47287500D02*
X69937500Y-47287500D01*
X165486000Y-75640200D02*
X165288000Y-75441200D01*
X169288000Y-75640200D02*
X165486000Y-75640200D01*
X170338000Y-74590200D02*
X169288000Y-75640200D01*
X172051000Y-74590200D02*
X170338000Y-74590200D01*
X173101000Y-75640200D02*
X172051000Y-74590200D01*
X188288000Y-75640200D02*
X173101000Y-75640200D01*
X189338000Y-74590200D02*
X188288000Y-75640200D01*
X191101000Y-74590200D02*
X189338000Y-74590200D01*
X192151000Y-75640200D02*
X191101000Y-74590200D01*
X207899000Y-75640200D02*
X192151000Y-75640200D01*
X209252000Y-74287500D02*
X207899000Y-75640200D01*
X212288000Y-74287500D02*
X209252000Y-74287500D01*
X111288000Y-108288000D02*
X84287500Y-108288000D01*
X112288000Y-107288000D02*
X111288000Y-108288000D01*
X356907500Y-60447500D02*
X356908000Y-60447500D01*
%TO.N,COL0*%
X92287500Y-107288000D02*
X65287500Y-107288000D01*
X303288000Y-50287500D02*
X277288000Y-50287500D01*
X356288000Y-119288000D02*
X315288000Y-119288000D01*
X360288000Y-115288000D02*
X356288000Y-119288000D01*
X357288000Y-58287500D02*
X360288000Y-58287500D01*
X356908000Y-57907500D02*
X357288000Y-58287500D01*
X191288000Y-69287500D02*
X146288000Y-69287500D01*
X275086000Y-51287500D02*
X194288000Y-51287500D01*
X276086000Y-50287500D02*
X275086000Y-51287500D01*
X277288000Y-50287500D02*
X276086000Y-50287500D01*
X144288000Y-89287500D02*
X94287500Y-89287500D01*
X65287500Y-107288000D02*
X48287500Y-107288000D01*
X356907500Y-57907500D02*
X356908000Y-57907500D01*
%TD*%
M02*
